<?xml version="1.0" encoding="utf-8" standalone="no"?>
<!DOCTYPE svg PUBLIC "-//W3C//DTD SVG 1.1//EN"
  "http://www.w3.org/Graphics/SVG/1.1/DTD/svg11.dtd">
<svg xmlns:xlink="http://www.w3.org/1999/xlink" width="460.8pt" height="345.6pt" viewBox="0 0 460.8 345.6" xmlns="http://www.w3.org/2000/svg" version="1.1">
 <metadata>
  <rdf:RDF xmlns:dc="http://purl.org/dc/elements/1.1/" xmlns:cc="http://creativecommons.org/ns#" xmlns:rdf="http://www.w3.org/1999/02/22-rdf-syntax-ns#">
   <cc:Work>
    <dc:type rdf:resource="http://purl.org/dc/dcmitype/StillImage"/>
    <dc:date>2025-06-27T15:32:39.580416</dc:date>
    <dc:format>image/svg+xml</dc:format>
    <dc:creator>
     <cc:Agent>
      <dc:title>Matplotlib v3.10.1, https://matplotlib.org/</dc:title>
     </cc:Agent>
    </dc:creator>
   </cc:Work>
  </rdf:RDF>
 </metadata>
 <defs>
  <style type="text/css">*{stroke-linejoin: round; stroke-linecap: butt}</style>
 </defs>
 <g id="figure_1">
  <g id="patch_1">
   <path d="M 0 345.6 
L 460.8 345.6 
L 460.8 0 
L 0 0 
z
" style="fill: #ffffff"/>
  </g>
  <g id="axes_1">
   <g id="patch_2">
    <path d="M 57.6 307.584 
L 414.72 307.584 
L 414.72 41.472 
L 57.6 41.472 
z
" style="fill: #ffffff"/>
   </g>
   <g id="matplotlib.axis_1">
    <g id="xtick_1">
     <g id="line2d_1">
      <defs>
       <path id="m597a6c68a1" d="M 0 0 
L 0 3.5 
" style="stroke: #000000; stroke-width: 0.8"/>
      </defs>
      <g>
       <use xlink:href="#m597a6c68a1" x="109.249587" y="307.584" style="stroke: #000000; stroke-width: 0.8"/>
      </g>
     </g>
     <g id="text_1">
      <!-- 0.5 -->
      <g transform="translate(101.298024 322.182437) scale(0.1 -0.1)">
       <defs>
        <path id="DejaVuSans-30" d="M 2034 4250 
Q 1547 4250 1301 3770 
Q 1056 3291 1056 2328 
Q 1056 1369 1301 889 
Q 1547 409 2034 409 
Q 2525 409 2770 889 
Q 3016 1369 3016 2328 
Q 3016 3291 2770 3770 
Q 2525 4250 2034 4250 
z
M 2034 4750 
Q 2819 4750 3233 4129 
Q 3647 3509 3647 2328 
Q 3647 1150 3233 529 
Q 2819 -91 2034 -91 
Q 1250 -91 836 529 
Q 422 1150 422 2328 
Q 422 3509 836 4129 
Q 1250 4750 2034 4750 
z
" transform="scale(0.015625)"/>
        <path id="DejaVuSans-2e" d="M 684 794 
L 1344 794 
L 1344 0 
L 684 0 
L 684 794 
z
" transform="scale(0.015625)"/>
        <path id="DejaVuSans-35" d="M 691 4666 
L 3169 4666 
L 3169 4134 
L 1269 4134 
L 1269 2991 
Q 1406 3038 1543 3061 
Q 1681 3084 1819 3084 
Q 2600 3084 3056 2656 
Q 3513 2228 3513 1497 
Q 3513 744 3044 326 
Q 2575 -91 1722 -91 
Q 1428 -91 1123 -41 
Q 819 9 494 109 
L 494 744 
Q 775 591 1075 516 
Q 1375 441 1709 441 
Q 2250 441 2565 725 
Q 2881 1009 2881 1497 
Q 2881 1984 2565 2268 
Q 2250 2553 1709 2553 
Q 1456 2553 1204 2497 
Q 953 2441 691 2322 
L 691 4666 
z
" transform="scale(0.015625)"/>
       </defs>
       <use xlink:href="#DejaVuSans-30"/>
       <use xlink:href="#DejaVuSans-2e" transform="translate(63.623047 0)"/>
       <use xlink:href="#DejaVuSans-35" transform="translate(95.410156 0)"/>
      </g>
     </g>
    </g>
    <g id="xtick_2">
     <g id="line2d_2">
      <g>
       <use xlink:href="#m597a6c68a1" x="168.277686" y="307.584" style="stroke: #000000; stroke-width: 0.8"/>
      </g>
     </g>
     <g id="text_2">
      <!-- 1.0 -->
      <g transform="translate(160.326123 322.182437) scale(0.1 -0.1)">
       <defs>
        <path id="DejaVuSans-31" d="M 794 531 
L 1825 531 
L 1825 4091 
L 703 3866 
L 703 4441 
L 1819 4666 
L 2450 4666 
L 2450 531 
L 3481 531 
L 3481 0 
L 794 0 
L 794 531 
z
" transform="scale(0.015625)"/>
       </defs>
       <use xlink:href="#DejaVuSans-31"/>
       <use xlink:href="#DejaVuSans-2e" transform="translate(63.623047 0)"/>
       <use xlink:href="#DejaVuSans-30" transform="translate(95.410156 0)"/>
      </g>
     </g>
    </g>
    <g id="xtick_3">
     <g id="line2d_3">
      <g>
       <use xlink:href="#m597a6c68a1" x="227.305785" y="307.584" style="stroke: #000000; stroke-width: 0.8"/>
      </g>
     </g>
     <g id="text_3">
      <!-- 1.5 -->
      <g transform="translate(219.354223 322.182437) scale(0.1 -0.1)">
       <use xlink:href="#DejaVuSans-31"/>
       <use xlink:href="#DejaVuSans-2e" transform="translate(63.623047 0)"/>
       <use xlink:href="#DejaVuSans-35" transform="translate(95.410156 0)"/>
      </g>
     </g>
    </g>
    <g id="xtick_4">
     <g id="line2d_4">
      <g>
       <use xlink:href="#m597a6c68a1" x="286.333884" y="307.584" style="stroke: #000000; stroke-width: 0.8"/>
      </g>
     </g>
     <g id="text_4">
      <!-- 2.0 -->
      <g transform="translate(278.382322 322.182437) scale(0.1 -0.1)">
       <defs>
        <path id="DejaVuSans-32" d="M 1228 531 
L 3431 531 
L 3431 0 
L 469 0 
L 469 531 
Q 828 903 1448 1529 
Q 2069 2156 2228 2338 
Q 2531 2678 2651 2914 
Q 2772 3150 2772 3378 
Q 2772 3750 2511 3984 
Q 2250 4219 1831 4219 
Q 1534 4219 1204 4116 
Q 875 4013 500 3803 
L 500 4441 
Q 881 4594 1212 4672 
Q 1544 4750 1819 4750 
Q 2544 4750 2975 4387 
Q 3406 4025 3406 3419 
Q 3406 3131 3298 2873 
Q 3191 2616 2906 2266 
Q 2828 2175 2409 1742 
Q 1991 1309 1228 531 
z
" transform="scale(0.015625)"/>
       </defs>
       <use xlink:href="#DejaVuSans-32"/>
       <use xlink:href="#DejaVuSans-2e" transform="translate(63.623047 0)"/>
       <use xlink:href="#DejaVuSans-30" transform="translate(95.410156 0)"/>
      </g>
     </g>
    </g>
    <g id="xtick_5">
     <g id="line2d_5">
      <g>
       <use xlink:href="#m597a6c68a1" x="345.361983" y="307.584" style="stroke: #000000; stroke-width: 0.8"/>
      </g>
     </g>
     <g id="text_5">
      <!-- 2.5 -->
      <g transform="translate(337.410421 322.182437) scale(0.1 -0.1)">
       <use xlink:href="#DejaVuSans-32"/>
       <use xlink:href="#DejaVuSans-2e" transform="translate(63.623047 0)"/>
       <use xlink:href="#DejaVuSans-35" transform="translate(95.410156 0)"/>
      </g>
     </g>
    </g>
    <g id="xtick_6">
     <g id="line2d_6">
      <g>
       <use xlink:href="#m597a6c68a1" x="404.390083" y="307.584" style="stroke: #000000; stroke-width: 0.8"/>
      </g>
     </g>
     <g id="text_6">
      <!-- 3.0 -->
      <g transform="translate(396.43852 322.182437) scale(0.1 -0.1)">
       <defs>
        <path id="DejaVuSans-33" d="M 2597 2516 
Q 3050 2419 3304 2112 
Q 3559 1806 3559 1356 
Q 3559 666 3084 287 
Q 2609 -91 1734 -91 
Q 1441 -91 1130 -33 
Q 819 25 488 141 
L 488 750 
Q 750 597 1062 519 
Q 1375 441 1716 441 
Q 2309 441 2620 675 
Q 2931 909 2931 1356 
Q 2931 1769 2642 2001 
Q 2353 2234 1838 2234 
L 1294 2234 
L 1294 2753 
L 1863 2753 
Q 2328 2753 2575 2939 
Q 2822 3125 2822 3475 
Q 2822 3834 2567 4026 
Q 2313 4219 1838 4219 
Q 1578 4219 1281 4162 
Q 984 4106 628 3988 
L 628 4550 
Q 988 4650 1302 4700 
Q 1616 4750 1894 4750 
Q 2613 4750 3031 4423 
Q 3450 4097 3450 3541 
Q 3450 3153 3228 2886 
Q 3006 2619 2597 2516 
z
" transform="scale(0.015625)"/>
       </defs>
       <use xlink:href="#DejaVuSans-33"/>
       <use xlink:href="#DejaVuSans-2e" transform="translate(63.623047 0)"/>
       <use xlink:href="#DejaVuSans-30" transform="translate(95.410156 0)"/>
      </g>
     </g>
    </g>
    <g id="text_7">
     <!-- Bond Length (Å) -->
     <g transform="translate(195.580312 337.544938) scale(0.1 -0.1)">
      <defs>
       <path id="DejaVuSans-42" d="M 1259 2228 
L 1259 519 
L 2272 519 
Q 2781 519 3026 730 
Q 3272 941 3272 1375 
Q 3272 1813 3026 2020 
Q 2781 2228 2272 2228 
L 1259 2228 
z
M 1259 4147 
L 1259 2741 
L 2194 2741 
Q 2656 2741 2882 2914 
Q 3109 3088 3109 3444 
Q 3109 3797 2882 3972 
Q 2656 4147 2194 4147 
L 1259 4147 
z
M 628 4666 
L 2241 4666 
Q 2963 4666 3353 4366 
Q 3744 4066 3744 3513 
Q 3744 3084 3544 2831 
Q 3344 2578 2956 2516 
Q 3422 2416 3680 2098 
Q 3938 1781 3938 1306 
Q 3938 681 3513 340 
Q 3088 0 2303 0 
L 628 0 
L 628 4666 
z
" transform="scale(0.015625)"/>
       <path id="DejaVuSans-6f" d="M 1959 3097 
Q 1497 3097 1228 2736 
Q 959 2375 959 1747 
Q 959 1119 1226 758 
Q 1494 397 1959 397 
Q 2419 397 2687 759 
Q 2956 1122 2956 1747 
Q 2956 2369 2687 2733 
Q 2419 3097 1959 3097 
z
M 1959 3584 
Q 2709 3584 3137 3096 
Q 3566 2609 3566 1747 
Q 3566 888 3137 398 
Q 2709 -91 1959 -91 
Q 1206 -91 779 398 
Q 353 888 353 1747 
Q 353 2609 779 3096 
Q 1206 3584 1959 3584 
z
" transform="scale(0.015625)"/>
       <path id="DejaVuSans-6e" d="M 3513 2113 
L 3513 0 
L 2938 0 
L 2938 2094 
Q 2938 2591 2744 2837 
Q 2550 3084 2163 3084 
Q 1697 3084 1428 2787 
Q 1159 2491 1159 1978 
L 1159 0 
L 581 0 
L 581 3500 
L 1159 3500 
L 1159 2956 
Q 1366 3272 1645 3428 
Q 1925 3584 2291 3584 
Q 2894 3584 3203 3211 
Q 3513 2838 3513 2113 
z
" transform="scale(0.015625)"/>
       <path id="DejaVuSans-64" d="M 2906 2969 
L 2906 4863 
L 3481 4863 
L 3481 0 
L 2906 0 
L 2906 525 
Q 2725 213 2448 61 
Q 2172 -91 1784 -91 
Q 1150 -91 751 415 
Q 353 922 353 1747 
Q 353 2572 751 3078 
Q 1150 3584 1784 3584 
Q 2172 3584 2448 3432 
Q 2725 3281 2906 2969 
z
M 947 1747 
Q 947 1113 1208 752 
Q 1469 391 1925 391 
Q 2381 391 2643 752 
Q 2906 1113 2906 1747 
Q 2906 2381 2643 2742 
Q 2381 3103 1925 3103 
Q 1469 3103 1208 2742 
Q 947 2381 947 1747 
z
" transform="scale(0.015625)"/>
       <path id="DejaVuSans-20" transform="scale(0.015625)"/>
       <path id="DejaVuSans-4c" d="M 628 4666 
L 1259 4666 
L 1259 531 
L 3531 531 
L 3531 0 
L 628 0 
L 628 4666 
z
" transform="scale(0.015625)"/>
       <path id="DejaVuSans-65" d="M 3597 1894 
L 3597 1613 
L 953 1613 
Q 991 1019 1311 708 
Q 1631 397 2203 397 
Q 2534 397 2845 478 
Q 3156 559 3463 722 
L 3463 178 
Q 3153 47 2828 -22 
Q 2503 -91 2169 -91 
Q 1331 -91 842 396 
Q 353 884 353 1716 
Q 353 2575 817 3079 
Q 1281 3584 2069 3584 
Q 2775 3584 3186 3129 
Q 3597 2675 3597 1894 
z
M 3022 2063 
Q 3016 2534 2758 2815 
Q 2500 3097 2075 3097 
Q 1594 3097 1305 2825 
Q 1016 2553 972 2059 
L 3022 2063 
z
" transform="scale(0.015625)"/>
       <path id="DejaVuSans-67" d="M 2906 1791 
Q 2906 2416 2648 2759 
Q 2391 3103 1925 3103 
Q 1463 3103 1205 2759 
Q 947 2416 947 1791 
Q 947 1169 1205 825 
Q 1463 481 1925 481 
Q 2391 481 2648 825 
Q 2906 1169 2906 1791 
z
M 3481 434 
Q 3481 -459 3084 -895 
Q 2688 -1331 1869 -1331 
Q 1566 -1331 1297 -1286 
Q 1028 -1241 775 -1147 
L 775 -588 
Q 1028 -725 1275 -790 
Q 1522 -856 1778 -856 
Q 2344 -856 2625 -561 
Q 2906 -266 2906 331 
L 2906 616 
Q 2728 306 2450 153 
Q 2172 0 1784 0 
Q 1141 0 747 490 
Q 353 981 353 1791 
Q 353 2603 747 3093 
Q 1141 3584 1784 3584 
Q 2172 3584 2450 3431 
Q 2728 3278 2906 2969 
L 2906 3500 
L 3481 3500 
L 3481 434 
z
" transform="scale(0.015625)"/>
       <path id="DejaVuSans-74" d="M 1172 4494 
L 1172 3500 
L 2356 3500 
L 2356 3053 
L 1172 3053 
L 1172 1153 
Q 1172 725 1289 603 
Q 1406 481 1766 481 
L 2356 481 
L 2356 0 
L 1766 0 
Q 1100 0 847 248 
Q 594 497 594 1153 
L 594 3053 
L 172 3053 
L 172 3500 
L 594 3500 
L 594 4494 
L 1172 4494 
z
" transform="scale(0.015625)"/>
       <path id="DejaVuSans-68" d="M 3513 2113 
L 3513 0 
L 2938 0 
L 2938 2094 
Q 2938 2591 2744 2837 
Q 2550 3084 2163 3084 
Q 1697 3084 1428 2787 
Q 1159 2491 1159 1978 
L 1159 0 
L 581 0 
L 581 4863 
L 1159 4863 
L 1159 2956 
Q 1366 3272 1645 3428 
Q 1925 3584 2291 3584 
Q 2894 3584 3203 3211 
Q 3513 2838 3513 2113 
z
" transform="scale(0.015625)"/>
       <path id="DejaVuSans-28" d="M 1984 4856 
Q 1566 4138 1362 3434 
Q 1159 2731 1159 2009 
Q 1159 1288 1364 580 
Q 1569 -128 1984 -844 
L 1484 -844 
Q 1016 -109 783 600 
Q 550 1309 550 2009 
Q 550 2706 781 3412 
Q 1013 4119 1484 4856 
L 1984 4856 
z
" transform="scale(0.015625)"/>
       <path id="DejaVuSans-c5" d="M 2663 5081 
Q 2663 5278 2523 5417 
Q 2384 5556 2188 5556 
Q 1988 5556 1852 5420 
Q 1716 5284 1716 5081 
Q 1716 4884 1853 4746 
Q 1991 4609 2188 4609 
Q 2384 4609 2523 4746 
Q 2663 4884 2663 5081 
z
M 2188 4044 
L 1338 1722 
L 3041 1722 
L 2188 4044 
z
M 1716 4366 
Q 1525 4494 1428 4673 
Q 1331 4853 1331 5081 
Q 1331 5441 1579 5691 
Q 1828 5941 2188 5941 
Q 2544 5941 2795 5689 
Q 3047 5438 3047 5081 
Q 3047 4863 2948 4678 
Q 2850 4494 2663 4366 
L 4325 0 
L 3669 0 
L 3244 1197 
L 1141 1197 
L 716 0 
L 50 0 
L 1716 4366 
z
" transform="scale(0.015625)"/>
       <path id="DejaVuSans-29" d="M 513 4856 
L 1013 4856 
Q 1481 4119 1714 3412 
Q 1947 2706 1947 2009 
Q 1947 1309 1714 600 
Q 1481 -109 1013 -844 
L 513 -844 
Q 928 -128 1133 580 
Q 1338 1288 1338 2009 
Q 1338 2731 1133 3434 
Q 928 4138 513 4856 
z
" transform="scale(0.015625)"/>
      </defs>
      <use xlink:href="#DejaVuSans-42"/>
      <use xlink:href="#DejaVuSans-6f" transform="translate(68.603516 0)"/>
      <use xlink:href="#DejaVuSans-6e" transform="translate(129.785156 0)"/>
      <use xlink:href="#DejaVuSans-64" transform="translate(193.164062 0)"/>
      <use xlink:href="#DejaVuSans-20" transform="translate(256.640625 0)"/>
      <use xlink:href="#DejaVuSans-4c" transform="translate(288.427734 0)"/>
      <use xlink:href="#DejaVuSans-65" transform="translate(342.390625 0)"/>
      <use xlink:href="#DejaVuSans-6e" transform="translate(403.914062 0)"/>
      <use xlink:href="#DejaVuSans-67" transform="translate(467.292969 0)"/>
      <use xlink:href="#DejaVuSans-74" transform="translate(530.769531 0)"/>
      <use xlink:href="#DejaVuSans-68" transform="translate(569.978516 0)"/>
      <use xlink:href="#DejaVuSans-20" transform="translate(633.357422 0)"/>
      <use xlink:href="#DejaVuSans-28" transform="translate(665.144531 0)"/>
      <use xlink:href="#DejaVuSans-c5" transform="translate(704.158203 0)"/>
      <use xlink:href="#DejaVuSans-29" transform="translate(772.566406 0)"/>
     </g>
    </g>
   </g>
   <g id="matplotlib.axis_2">
    <g id="ytick_1">
     <g id="line2d_7">
      <defs>
       <path id="m22e495489b" d="M 0 0 
L -3.5 0 
" style="stroke: #000000; stroke-width: 0.8"/>
      </defs>
      <g>
       <use xlink:href="#m22e495489b" x="57.6" y="263.189421" style="stroke: #000000; stroke-width: 0.8"/>
      </g>
     </g>
     <g id="text_8">
      <!-- −1.0 -->
      <g transform="translate(26.317187 266.98864) scale(0.1 -0.1)">
       <defs>
        <path id="DejaVuSans-2212" d="M 678 2272 
L 4684 2272 
L 4684 1741 
L 678 1741 
L 678 2272 
z
" transform="scale(0.015625)"/>
       </defs>
       <use xlink:href="#DejaVuSans-2212"/>
       <use xlink:href="#DejaVuSans-31" transform="translate(83.789062 0)"/>
       <use xlink:href="#DejaVuSans-2e" transform="translate(147.412109 0)"/>
       <use xlink:href="#DejaVuSans-30" transform="translate(179.199219 0)"/>
      </g>
     </g>
    </g>
    <g id="ytick_2">
     <g id="line2d_8">
      <g>
       <use xlink:href="#m22e495489b" x="57.6" y="212.811368" style="stroke: #000000; stroke-width: 0.8"/>
      </g>
     </g>
     <g id="text_9">
      <!-- −0.5 -->
      <g transform="translate(26.317187 216.610587) scale(0.1 -0.1)">
       <use xlink:href="#DejaVuSans-2212"/>
       <use xlink:href="#DejaVuSans-30" transform="translate(83.789062 0)"/>
       <use xlink:href="#DejaVuSans-2e" transform="translate(147.412109 0)"/>
       <use xlink:href="#DejaVuSans-35" transform="translate(179.199219 0)"/>
      </g>
     </g>
    </g>
    <g id="ytick_3">
     <g id="line2d_9">
      <g>
       <use xlink:href="#m22e495489b" x="57.6" y="162.433316" style="stroke: #000000; stroke-width: 0.8"/>
      </g>
     </g>
     <g id="text_10">
      <!-- 0.0 -->
      <g transform="translate(34.696875 166.232535) scale(0.1 -0.1)">
       <use xlink:href="#DejaVuSans-30"/>
       <use xlink:href="#DejaVuSans-2e" transform="translate(63.623047 0)"/>
       <use xlink:href="#DejaVuSans-30" transform="translate(95.410156 0)"/>
      </g>
     </g>
    </g>
    <g id="ytick_4">
     <g id="line2d_10">
      <g>
       <use xlink:href="#m22e495489b" x="57.6" y="112.055264" style="stroke: #000000; stroke-width: 0.8"/>
      </g>
     </g>
     <g id="text_11">
      <!-- 0.5 -->
      <g transform="translate(34.696875 115.854482) scale(0.1 -0.1)">
       <use xlink:href="#DejaVuSans-30"/>
       <use xlink:href="#DejaVuSans-2e" transform="translate(63.623047 0)"/>
       <use xlink:href="#DejaVuSans-35" transform="translate(95.410156 0)"/>
      </g>
     </g>
    </g>
    <g id="ytick_5">
     <g id="line2d_11">
      <g>
       <use xlink:href="#m22e495489b" x="57.6" y="61.677211" style="stroke: #000000; stroke-width: 0.8"/>
      </g>
     </g>
     <g id="text_12">
      <!-- 1.0 -->
      <g transform="translate(34.696875 65.47643) scale(0.1 -0.1)">
       <use xlink:href="#DejaVuSans-31"/>
       <use xlink:href="#DejaVuSans-2e" transform="translate(63.623047 0)"/>
       <use xlink:href="#DejaVuSans-30" transform="translate(95.410156 0)"/>
      </g>
     </g>
    </g>
    <g id="text_13">
     <!-- Energy (Ha) -->
     <g transform="translate(20.2375 204.349094) rotate(-90) scale(0.1 -0.1)">
      <defs>
       <path id="DejaVuSans-45" d="M 628 4666 
L 3578 4666 
L 3578 4134 
L 1259 4134 
L 1259 2753 
L 3481 2753 
L 3481 2222 
L 1259 2222 
L 1259 531 
L 3634 531 
L 3634 0 
L 628 0 
L 628 4666 
z
" transform="scale(0.015625)"/>
       <path id="DejaVuSans-72" d="M 2631 2963 
Q 2534 3019 2420 3045 
Q 2306 3072 2169 3072 
Q 1681 3072 1420 2755 
Q 1159 2438 1159 1844 
L 1159 0 
L 581 0 
L 581 3500 
L 1159 3500 
L 1159 2956 
Q 1341 3275 1631 3429 
Q 1922 3584 2338 3584 
Q 2397 3584 2469 3576 
Q 2541 3569 2628 3553 
L 2631 2963 
z
" transform="scale(0.015625)"/>
       <path id="DejaVuSans-79" d="M 2059 -325 
Q 1816 -950 1584 -1140 
Q 1353 -1331 966 -1331 
L 506 -1331 
L 506 -850 
L 844 -850 
Q 1081 -850 1212 -737 
Q 1344 -625 1503 -206 
L 1606 56 
L 191 3500 
L 800 3500 
L 1894 763 
L 2988 3500 
L 3597 3500 
L 2059 -325 
z
" transform="scale(0.015625)"/>
       <path id="DejaVuSans-48" d="M 628 4666 
L 1259 4666 
L 1259 2753 
L 3553 2753 
L 3553 4666 
L 4184 4666 
L 4184 0 
L 3553 0 
L 3553 2222 
L 1259 2222 
L 1259 0 
L 628 0 
L 628 4666 
z
" transform="scale(0.015625)"/>
       <path id="DejaVuSans-61" d="M 2194 1759 
Q 1497 1759 1228 1600 
Q 959 1441 959 1056 
Q 959 750 1161 570 
Q 1363 391 1709 391 
Q 2188 391 2477 730 
Q 2766 1069 2766 1631 
L 2766 1759 
L 2194 1759 
z
M 3341 1997 
L 3341 0 
L 2766 0 
L 2766 531 
Q 2569 213 2275 61 
Q 1981 -91 1556 -91 
Q 1019 -91 701 211 
Q 384 513 384 1019 
Q 384 1609 779 1909 
Q 1175 2209 1959 2209 
L 2766 2209 
L 2766 2266 
Q 2766 2663 2505 2880 
Q 2244 3097 1772 3097 
Q 1472 3097 1187 3025 
Q 903 2953 641 2809 
L 641 3341 
Q 956 3463 1253 3523 
Q 1550 3584 1831 3584 
Q 2591 3584 2966 3190 
Q 3341 2797 3341 1997 
z
" transform="scale(0.015625)"/>
      </defs>
      <use xlink:href="#DejaVuSans-45"/>
      <use xlink:href="#DejaVuSans-6e" transform="translate(63.183594 0)"/>
      <use xlink:href="#DejaVuSans-65" transform="translate(126.5625 0)"/>
      <use xlink:href="#DejaVuSans-72" transform="translate(188.085938 0)"/>
      <use xlink:href="#DejaVuSans-67" transform="translate(227.449219 0)"/>
      <use xlink:href="#DejaVuSans-79" transform="translate(290.925781 0)"/>
      <use xlink:href="#DejaVuSans-20" transform="translate(350.105469 0)"/>
      <use xlink:href="#DejaVuSans-28" transform="translate(381.892578 0)"/>
      <use xlink:href="#DejaVuSans-48" transform="translate(420.90625 0)"/>
      <use xlink:href="#DejaVuSans-61" transform="translate(496.101562 0)"/>
      <use xlink:href="#DejaVuSans-29" transform="translate(557.380859 0)"/>
     </g>
    </g>
   </g>
   <g id="line2d_12">
    <path d="M 73.832727 146.56603 
L 79.735537 193.896415 
L 85.638347 223.068714 
L 91.541157 241.957026 
L 97.443967 254.53948 
L 103.346777 263.029782 
L 109.249587 268.747107 
L 115.152397 53.568 
L 121.055207 274.905946 
L 126.958017 89.320115 
L 132.860826 103.660859 
L 138.763636 116.105203 
L 144.666446 276.705617 
L 150.569256 276.122664 
L 156.472066 275.336605 
L 162.374876 152.030297 
L 168.277686 273.380934 
L 174.180496 272.291947 
L 180.083306 271.168594 
L 185.986116 270.033749 
L 191.888926 203.628498 
L 197.791736 267.802352 
L 203.694545 266.734652 
L 209.597355 265.713801 
L 215.500165 264.747941 
L 221.402975 263.843019 
L 227.305785 263.002957 
L 233.208595 194.891636 
L 239.111405 261.524197 
L 245.014215 260.88509 
L 250.917025 260.310485 
L 256.819835 259.797421 
L 262.722645 259.342246 
L 268.625455 162.433316 
L 274.528264 258.588782 
L 280.431074 258.281567 
L 286.333884 258.014699 
L 292.236694 257.783829 
L 298.139504 257.58483 
L 304.042314 257.413858 
L 309.945124 257.267383 
L 315.847934 257.142211 
L 321.750744 257.035478 
L 327.653554 256.944645 
L 333.556364 256.867474 
L 339.459174 256.802013 
L 345.361983 256.746564 
L 351.264793 198.562053 
L 357.167603 256.660025 
L 363.070413 256.626584 
L 368.973223 197.713897 
L 374.876033 256.574681 
L 380.778843 256.554742 
L 386.681653 256.538005 
L 392.584463 256.523976 
L 398.487273 256.512235 
" clip-path="url(#paaa2c92831)" style="fill: none; stroke: #377eb8; stroke-opacity: 0.6; stroke-width: 1.5; stroke-linecap: square"/>
    <defs>
     <path id="m615d9c68d6" d="M 0 3 
L 0 -3 
" style="stroke: #377eb8; stroke-opacity: 0.6"/>
    </defs>
    <g clip-path="url(#paaa2c92831)">
     <use xlink:href="#m615d9c68d6" x="73.832727" y="146.56603" style="fill: #377eb8; fill-opacity: 0.6; stroke: #377eb8; stroke-opacity: 0.6"/>
     <use xlink:href="#m615d9c68d6" x="79.735537" y="193.896415" style="fill: #377eb8; fill-opacity: 0.6; stroke: #377eb8; stroke-opacity: 0.6"/>
     <use xlink:href="#m615d9c68d6" x="85.638347" y="223.068714" style="fill: #377eb8; fill-opacity: 0.6; stroke: #377eb8; stroke-opacity: 0.6"/>
     <use xlink:href="#m615d9c68d6" x="91.541157" y="241.957026" style="fill: #377eb8; fill-opacity: 0.6; stroke: #377eb8; stroke-opacity: 0.6"/>
     <use xlink:href="#m615d9c68d6" x="97.443967" y="254.53948" style="fill: #377eb8; fill-opacity: 0.6; stroke: #377eb8; stroke-opacity: 0.6"/>
     <use xlink:href="#m615d9c68d6" x="103.346777" y="263.029782" style="fill: #377eb8; fill-opacity: 0.6; stroke: #377eb8; stroke-opacity: 0.6"/>
     <use xlink:href="#m615d9c68d6" x="109.249587" y="268.747107" style="fill: #377eb8; fill-opacity: 0.6; stroke: #377eb8; stroke-opacity: 0.6"/>
     <use xlink:href="#m615d9c68d6" x="115.152397" y="53.568" style="fill: #377eb8; fill-opacity: 0.6; stroke: #377eb8; stroke-opacity: 0.6"/>
     <use xlink:href="#m615d9c68d6" x="121.055207" y="274.905946" style="fill: #377eb8; fill-opacity: 0.6; stroke: #377eb8; stroke-opacity: 0.6"/>
     <use xlink:href="#m615d9c68d6" x="126.958017" y="89.320115" style="fill: #377eb8; fill-opacity: 0.6; stroke: #377eb8; stroke-opacity: 0.6"/>
     <use xlink:href="#m615d9c68d6" x="132.860826" y="103.660859" style="fill: #377eb8; fill-opacity: 0.6; stroke: #377eb8; stroke-opacity: 0.6"/>
     <use xlink:href="#m615d9c68d6" x="138.763636" y="116.105203" style="fill: #377eb8; fill-opacity: 0.6; stroke: #377eb8; stroke-opacity: 0.6"/>
     <use xlink:href="#m615d9c68d6" x="144.666446" y="276.705617" style="fill: #377eb8; fill-opacity: 0.6; stroke: #377eb8; stroke-opacity: 0.6"/>
     <use xlink:href="#m615d9c68d6" x="150.569256" y="276.122664" style="fill: #377eb8; fill-opacity: 0.6; stroke: #377eb8; stroke-opacity: 0.6"/>
     <use xlink:href="#m615d9c68d6" x="156.472066" y="275.336605" style="fill: #377eb8; fill-opacity: 0.6; stroke: #377eb8; stroke-opacity: 0.6"/>
     <use xlink:href="#m615d9c68d6" x="162.374876" y="152.030297" style="fill: #377eb8; fill-opacity: 0.6; stroke: #377eb8; stroke-opacity: 0.6"/>
     <use xlink:href="#m615d9c68d6" x="168.277686" y="273.380934" style="fill: #377eb8; fill-opacity: 0.6; stroke: #377eb8; stroke-opacity: 0.6"/>
     <use xlink:href="#m615d9c68d6" x="174.180496" y="272.291947" style="fill: #377eb8; fill-opacity: 0.6; stroke: #377eb8; stroke-opacity: 0.6"/>
     <use xlink:href="#m615d9c68d6" x="180.083306" y="271.168594" style="fill: #377eb8; fill-opacity: 0.6; stroke: #377eb8; stroke-opacity: 0.6"/>
     <use xlink:href="#m615d9c68d6" x="185.986116" y="270.033749" style="fill: #377eb8; fill-opacity: 0.6; stroke: #377eb8; stroke-opacity: 0.6"/>
     <use xlink:href="#m615d9c68d6" x="191.888926" y="203.628498" style="fill: #377eb8; fill-opacity: 0.6; stroke: #377eb8; stroke-opacity: 0.6"/>
     <use xlink:href="#m615d9c68d6" x="197.791736" y="267.802352" style="fill: #377eb8; fill-opacity: 0.6; stroke: #377eb8; stroke-opacity: 0.6"/>
     <use xlink:href="#m615d9c68d6" x="203.694545" y="266.734652" style="fill: #377eb8; fill-opacity: 0.6; stroke: #377eb8; stroke-opacity: 0.6"/>
     <use xlink:href="#m615d9c68d6" x="209.597355" y="265.713801" style="fill: #377eb8; fill-opacity: 0.6; stroke: #377eb8; stroke-opacity: 0.6"/>
     <use xlink:href="#m615d9c68d6" x="215.500165" y="264.747941" style="fill: #377eb8; fill-opacity: 0.6; stroke: #377eb8; stroke-opacity: 0.6"/>
     <use xlink:href="#m615d9c68d6" x="221.402975" y="263.843019" style="fill: #377eb8; fill-opacity: 0.6; stroke: #377eb8; stroke-opacity: 0.6"/>
     <use xlink:href="#m615d9c68d6" x="227.305785" y="263.002957" style="fill: #377eb8; fill-opacity: 0.6; stroke: #377eb8; stroke-opacity: 0.6"/>
     <use xlink:href="#m615d9c68d6" x="233.208595" y="194.891636" style="fill: #377eb8; fill-opacity: 0.6; stroke: #377eb8; stroke-opacity: 0.6"/>
     <use xlink:href="#m615d9c68d6" x="239.111405" y="261.524197" style="fill: #377eb8; fill-opacity: 0.6; stroke: #377eb8; stroke-opacity: 0.6"/>
     <use xlink:href="#m615d9c68d6" x="245.014215" y="260.88509" style="fill: #377eb8; fill-opacity: 0.6; stroke: #377eb8; stroke-opacity: 0.6"/>
     <use xlink:href="#m615d9c68d6" x="250.917025" y="260.310485" style="fill: #377eb8; fill-opacity: 0.6; stroke: #377eb8; stroke-opacity: 0.6"/>
     <use xlink:href="#m615d9c68d6" x="256.819835" y="259.797421" style="fill: #377eb8; fill-opacity: 0.6; stroke: #377eb8; stroke-opacity: 0.6"/>
     <use xlink:href="#m615d9c68d6" x="262.722645" y="259.342246" style="fill: #377eb8; fill-opacity: 0.6; stroke: #377eb8; stroke-opacity: 0.6"/>
     <use xlink:href="#m615d9c68d6" x="268.625455" y="162.433316" style="fill: #377eb8; fill-opacity: 0.6; stroke: #377eb8; stroke-opacity: 0.6"/>
     <use xlink:href="#m615d9c68d6" x="274.528264" y="258.588782" style="fill: #377eb8; fill-opacity: 0.6; stroke: #377eb8; stroke-opacity: 0.6"/>
     <use xlink:href="#m615d9c68d6" x="280.431074" y="258.281567" style="fill: #377eb8; fill-opacity: 0.6; stroke: #377eb8; stroke-opacity: 0.6"/>
     <use xlink:href="#m615d9c68d6" x="286.333884" y="258.014699" style="fill: #377eb8; fill-opacity: 0.6; stroke: #377eb8; stroke-opacity: 0.6"/>
     <use xlink:href="#m615d9c68d6" x="292.236694" y="257.783829" style="fill: #377eb8; fill-opacity: 0.6; stroke: #377eb8; stroke-opacity: 0.6"/>
     <use xlink:href="#m615d9c68d6" x="298.139504" y="257.58483" style="fill: #377eb8; fill-opacity: 0.6; stroke: #377eb8; stroke-opacity: 0.6"/>
     <use xlink:href="#m615d9c68d6" x="304.042314" y="257.413858" style="fill: #377eb8; fill-opacity: 0.6; stroke: #377eb8; stroke-opacity: 0.6"/>
     <use xlink:href="#m615d9c68d6" x="309.945124" y="257.267383" style="fill: #377eb8; fill-opacity: 0.6; stroke: #377eb8; stroke-opacity: 0.6"/>
     <use xlink:href="#m615d9c68d6" x="315.847934" y="257.142211" style="fill: #377eb8; fill-opacity: 0.6; stroke: #377eb8; stroke-opacity: 0.6"/>
     <use xlink:href="#m615d9c68d6" x="321.750744" y="257.035478" style="fill: #377eb8; fill-opacity: 0.6; stroke: #377eb8; stroke-opacity: 0.6"/>
     <use xlink:href="#m615d9c68d6" x="327.653554" y="256.944645" style="fill: #377eb8; fill-opacity: 0.6; stroke: #377eb8; stroke-opacity: 0.6"/>
     <use xlink:href="#m615d9c68d6" x="333.556364" y="256.867474" style="fill: #377eb8; fill-opacity: 0.6; stroke: #377eb8; stroke-opacity: 0.6"/>
     <use xlink:href="#m615d9c68d6" x="339.459174" y="256.802013" style="fill: #377eb8; fill-opacity: 0.6; stroke: #377eb8; stroke-opacity: 0.6"/>
     <use xlink:href="#m615d9c68d6" x="345.361983" y="256.746564" style="fill: #377eb8; fill-opacity: 0.6; stroke: #377eb8; stroke-opacity: 0.6"/>
     <use xlink:href="#m615d9c68d6" x="351.264793" y="198.562053" style="fill: #377eb8; fill-opacity: 0.6; stroke: #377eb8; stroke-opacity: 0.6"/>
     <use xlink:href="#m615d9c68d6" x="357.167603" y="256.660025" style="fill: #377eb8; fill-opacity: 0.6; stroke: #377eb8; stroke-opacity: 0.6"/>
     <use xlink:href="#m615d9c68d6" x="363.070413" y="256.626584" style="fill: #377eb8; fill-opacity: 0.6; stroke: #377eb8; stroke-opacity: 0.6"/>
     <use xlink:href="#m615d9c68d6" x="368.973223" y="197.713897" style="fill: #377eb8; fill-opacity: 0.6; stroke: #377eb8; stroke-opacity: 0.6"/>
     <use xlink:href="#m615d9c68d6" x="374.876033" y="256.574681" style="fill: #377eb8; fill-opacity: 0.6; stroke: #377eb8; stroke-opacity: 0.6"/>
     <use xlink:href="#m615d9c68d6" x="380.778843" y="256.554742" style="fill: #377eb8; fill-opacity: 0.6; stroke: #377eb8; stroke-opacity: 0.6"/>
     <use xlink:href="#m615d9c68d6" x="386.681653" y="256.538005" style="fill: #377eb8; fill-opacity: 0.6; stroke: #377eb8; stroke-opacity: 0.6"/>
     <use xlink:href="#m615d9c68d6" x="392.584463" y="256.523976" style="fill: #377eb8; fill-opacity: 0.6; stroke: #377eb8; stroke-opacity: 0.6"/>
     <use xlink:href="#m615d9c68d6" x="398.487273" y="256.512235" style="fill: #377eb8; fill-opacity: 0.6; stroke: #377eb8; stroke-opacity: 0.6"/>
    </g>
   </g>
   <g id="line2d_13">
    <path d="M 73.832727 161.808396 
L 79.735537 209.21207 
L 85.638347 238.468536 
L 91.541157 257.449157 
L 97.443967 270.129181 
L 103.346777 278.719417 
L 109.249587 284.536265 
L 115.152397 288.473366 
L 121.055207 290.979906 
L 126.958017 292.42402 
L 132.860826 293.07855 
L 138.763636 293.206981 
L 144.666446 292.960551 
L 150.569256 292.415987 
L 156.472066 291.651583 
L 162.374876 290.724779 
L 168.277686 289.678124 
L 174.180496 288.54379 
L 180.083306 287.346815 
L 185.986116 286.107286 
L 191.888926 284.841724 
L 197.791736 283.563939 
L 203.694545 282.285531 
L 209.597355 281.016219 
L 215.500165 279.764076 
L 221.402975 278.535728 
L 227.305785 277.336534 
L 233.208595 276.170762 
L 239.111405 275.041738 
L 245.014215 273.95199 
L 250.917025 272.903364 
L 256.819835 271.897128 
L 262.722645 270.934053 
L 268.625455 270.014483 
L 274.528264 269.138392 
L 280.431074 268.305435 
L 286.333884 267.514995 
L 292.236694 266.766222 
L 298.139504 266.05807 
L 304.042314 265.389342 
L 309.945124 264.758719 
L 315.847934 264.164789 
L 321.750744 263.606085 
L 327.653554 263.081112 
L 333.556364 262.588361 
L 339.459174 262.126334 
L 345.361983 261.69356 
L 351.264793 261.288601 
L 357.167603 260.910063 
L 363.070413 260.5566 
L 368.973223 260.226915 
L 374.876033 259.91976 
L 380.778843 259.633938 
L 386.681653 259.368296 
L 392.584463 259.121725 
L 398.487273 258.893159 
" clip-path="url(#paaa2c92831)" style="fill: none; stroke: #a65628; stroke-opacity: 0.6; stroke-width: 1.5; stroke-linecap: square"/>
    <defs>
     <path id="md754eb4b4e" d="M 0 3 
L 0 -3 
" style="stroke: #a65628; stroke-opacity: 0.6"/>
    </defs>
    <g clip-path="url(#paaa2c92831)">
     <use xlink:href="#md754eb4b4e" x="73.832727" y="161.808396" style="fill: #a65628; fill-opacity: 0.6; stroke: #a65628; stroke-opacity: 0.6"/>
     <use xlink:href="#md754eb4b4e" x="79.735537" y="209.21207" style="fill: #a65628; fill-opacity: 0.6; stroke: #a65628; stroke-opacity: 0.6"/>
     <use xlink:href="#md754eb4b4e" x="85.638347" y="238.468536" style="fill: #a65628; fill-opacity: 0.6; stroke: #a65628; stroke-opacity: 0.6"/>
     <use xlink:href="#md754eb4b4e" x="91.541157" y="257.449157" style="fill: #a65628; fill-opacity: 0.6; stroke: #a65628; stroke-opacity: 0.6"/>
     <use xlink:href="#md754eb4b4e" x="97.443967" y="270.129181" style="fill: #a65628; fill-opacity: 0.6; stroke: #a65628; stroke-opacity: 0.6"/>
     <use xlink:href="#md754eb4b4e" x="103.346777" y="278.719417" style="fill: #a65628; fill-opacity: 0.6; stroke: #a65628; stroke-opacity: 0.6"/>
     <use xlink:href="#md754eb4b4e" x="109.249587" y="284.536265" style="fill: #a65628; fill-opacity: 0.6; stroke: #a65628; stroke-opacity: 0.6"/>
     <use xlink:href="#md754eb4b4e" x="115.152397" y="288.473366" style="fill: #a65628; fill-opacity: 0.6; stroke: #a65628; stroke-opacity: 0.6"/>
     <use xlink:href="#md754eb4b4e" x="121.055207" y="290.979906" style="fill: #a65628; fill-opacity: 0.6; stroke: #a65628; stroke-opacity: 0.6"/>
     <use xlink:href="#md754eb4b4e" x="126.958017" y="292.42402" style="fill: #a65628; fill-opacity: 0.6; stroke: #a65628; stroke-opacity: 0.6"/>
     <use xlink:href="#md754eb4b4e" x="132.860826" y="293.07855" style="fill: #a65628; fill-opacity: 0.6; stroke: #a65628; stroke-opacity: 0.6"/>
     <use xlink:href="#md754eb4b4e" x="138.763636" y="293.206981" style="fill: #a65628; fill-opacity: 0.6; stroke: #a65628; stroke-opacity: 0.6"/>
     <use xlink:href="#md754eb4b4e" x="144.666446" y="292.960551" style="fill: #a65628; fill-opacity: 0.6; stroke: #a65628; stroke-opacity: 0.6"/>
     <use xlink:href="#md754eb4b4e" x="150.569256" y="292.415987" style="fill: #a65628; fill-opacity: 0.6; stroke: #a65628; stroke-opacity: 0.6"/>
     <use xlink:href="#md754eb4b4e" x="156.472066" y="291.651583" style="fill: #a65628; fill-opacity: 0.6; stroke: #a65628; stroke-opacity: 0.6"/>
     <use xlink:href="#md754eb4b4e" x="162.374876" y="290.724779" style="fill: #a65628; fill-opacity: 0.6; stroke: #a65628; stroke-opacity: 0.6"/>
     <use xlink:href="#md754eb4b4e" x="168.277686" y="289.678124" style="fill: #a65628; fill-opacity: 0.6; stroke: #a65628; stroke-opacity: 0.6"/>
     <use xlink:href="#md754eb4b4e" x="174.180496" y="288.54379" style="fill: #a65628; fill-opacity: 0.6; stroke: #a65628; stroke-opacity: 0.6"/>
     <use xlink:href="#md754eb4b4e" x="180.083306" y="287.346815" style="fill: #a65628; fill-opacity: 0.6; stroke: #a65628; stroke-opacity: 0.6"/>
     <use xlink:href="#md754eb4b4e" x="185.986116" y="286.107286" style="fill: #a65628; fill-opacity: 0.6; stroke: #a65628; stroke-opacity: 0.6"/>
     <use xlink:href="#md754eb4b4e" x="191.888926" y="284.841724" style="fill: #a65628; fill-opacity: 0.6; stroke: #a65628; stroke-opacity: 0.6"/>
     <use xlink:href="#md754eb4b4e" x="197.791736" y="283.563939" style="fill: #a65628; fill-opacity: 0.6; stroke: #a65628; stroke-opacity: 0.6"/>
     <use xlink:href="#md754eb4b4e" x="203.694545" y="282.285531" style="fill: #a65628; fill-opacity: 0.6; stroke: #a65628; stroke-opacity: 0.6"/>
     <use xlink:href="#md754eb4b4e" x="209.597355" y="281.016219" style="fill: #a65628; fill-opacity: 0.6; stroke: #a65628; stroke-opacity: 0.6"/>
     <use xlink:href="#md754eb4b4e" x="215.500165" y="279.764076" style="fill: #a65628; fill-opacity: 0.6; stroke: #a65628; stroke-opacity: 0.6"/>
     <use xlink:href="#md754eb4b4e" x="221.402975" y="278.535728" style="fill: #a65628; fill-opacity: 0.6; stroke: #a65628; stroke-opacity: 0.6"/>
     <use xlink:href="#md754eb4b4e" x="227.305785" y="277.336534" style="fill: #a65628; fill-opacity: 0.6; stroke: #a65628; stroke-opacity: 0.6"/>
     <use xlink:href="#md754eb4b4e" x="233.208595" y="276.170762" style="fill: #a65628; fill-opacity: 0.6; stroke: #a65628; stroke-opacity: 0.6"/>
     <use xlink:href="#md754eb4b4e" x="239.111405" y="275.041738" style="fill: #a65628; fill-opacity: 0.6; stroke: #a65628; stroke-opacity: 0.6"/>
     <use xlink:href="#md754eb4b4e" x="245.014215" y="273.95199" style="fill: #a65628; fill-opacity: 0.6; stroke: #a65628; stroke-opacity: 0.6"/>
     <use xlink:href="#md754eb4b4e" x="250.917025" y="272.903364" style="fill: #a65628; fill-opacity: 0.6; stroke: #a65628; stroke-opacity: 0.6"/>
     <use xlink:href="#md754eb4b4e" x="256.819835" y="271.897128" style="fill: #a65628; fill-opacity: 0.6; stroke: #a65628; stroke-opacity: 0.6"/>
     <use xlink:href="#md754eb4b4e" x="262.722645" y="270.934053" style="fill: #a65628; fill-opacity: 0.6; stroke: #a65628; stroke-opacity: 0.6"/>
     <use xlink:href="#md754eb4b4e" x="268.625455" y="270.014483" style="fill: #a65628; fill-opacity: 0.6; stroke: #a65628; stroke-opacity: 0.6"/>
     <use xlink:href="#md754eb4b4e" x="274.528264" y="269.138392" style="fill: #a65628; fill-opacity: 0.6; stroke: #a65628; stroke-opacity: 0.6"/>
     <use xlink:href="#md754eb4b4e" x="280.431074" y="268.305435" style="fill: #a65628; fill-opacity: 0.6; stroke: #a65628; stroke-opacity: 0.6"/>
     <use xlink:href="#md754eb4b4e" x="286.333884" y="267.514995" style="fill: #a65628; fill-opacity: 0.6; stroke: #a65628; stroke-opacity: 0.6"/>
     <use xlink:href="#md754eb4b4e" x="292.236694" y="266.766222" style="fill: #a65628; fill-opacity: 0.6; stroke: #a65628; stroke-opacity: 0.6"/>
     <use xlink:href="#md754eb4b4e" x="298.139504" y="266.05807" style="fill: #a65628; fill-opacity: 0.6; stroke: #a65628; stroke-opacity: 0.6"/>
     <use xlink:href="#md754eb4b4e" x="304.042314" y="265.389342" style="fill: #a65628; fill-opacity: 0.6; stroke: #a65628; stroke-opacity: 0.6"/>
     <use xlink:href="#md754eb4b4e" x="309.945124" y="264.758719" style="fill: #a65628; fill-opacity: 0.6; stroke: #a65628; stroke-opacity: 0.6"/>
     <use xlink:href="#md754eb4b4e" x="315.847934" y="264.164789" style="fill: #a65628; fill-opacity: 0.6; stroke: #a65628; stroke-opacity: 0.6"/>
     <use xlink:href="#md754eb4b4e" x="321.750744" y="263.606085" style="fill: #a65628; fill-opacity: 0.6; stroke: #a65628; stroke-opacity: 0.6"/>
     <use xlink:href="#md754eb4b4e" x="327.653554" y="263.081112" style="fill: #a65628; fill-opacity: 0.6; stroke: #a65628; stroke-opacity: 0.6"/>
     <use xlink:href="#md754eb4b4e" x="333.556364" y="262.588361" style="fill: #a65628; fill-opacity: 0.6; stroke: #a65628; stroke-opacity: 0.6"/>
     <use xlink:href="#md754eb4b4e" x="339.459174" y="262.126334" style="fill: #a65628; fill-opacity: 0.6; stroke: #a65628; stroke-opacity: 0.6"/>
     <use xlink:href="#md754eb4b4e" x="345.361983" y="261.69356" style="fill: #a65628; fill-opacity: 0.6; stroke: #a65628; stroke-opacity: 0.6"/>
     <use xlink:href="#md754eb4b4e" x="351.264793" y="261.288601" style="fill: #a65628; fill-opacity: 0.6; stroke: #a65628; stroke-opacity: 0.6"/>
     <use xlink:href="#md754eb4b4e" x="357.167603" y="260.910063" style="fill: #a65628; fill-opacity: 0.6; stroke: #a65628; stroke-opacity: 0.6"/>
     <use xlink:href="#md754eb4b4e" x="363.070413" y="260.5566" style="fill: #a65628; fill-opacity: 0.6; stroke: #a65628; stroke-opacity: 0.6"/>
     <use xlink:href="#md754eb4b4e" x="368.973223" y="260.226915" style="fill: #a65628; fill-opacity: 0.6; stroke: #a65628; stroke-opacity: 0.6"/>
     <use xlink:href="#md754eb4b4e" x="374.876033" y="259.91976" style="fill: #a65628; fill-opacity: 0.6; stroke: #a65628; stroke-opacity: 0.6"/>
     <use xlink:href="#md754eb4b4e" x="380.778843" y="259.633938" style="fill: #a65628; fill-opacity: 0.6; stroke: #a65628; stroke-opacity: 0.6"/>
     <use xlink:href="#md754eb4b4e" x="386.681653" y="259.368296" style="fill: #a65628; fill-opacity: 0.6; stroke: #a65628; stroke-opacity: 0.6"/>
     <use xlink:href="#md754eb4b4e" x="392.584463" y="259.121725" style="fill: #a65628; fill-opacity: 0.6; stroke: #a65628; stroke-opacity: 0.6"/>
     <use xlink:href="#md754eb4b4e" x="398.487273" y="258.893159" style="fill: #a65628; fill-opacity: 0.6; stroke: #a65628; stroke-opacity: 0.6"/>
    </g>
   </g>
   <g id="line2d_14">
    <path d="M 73.832727 164.597315 
L 79.735537 211.967132 
L 85.638347 241.186487 
L 91.541157 260.128104 
L 97.443967 272.768038 
L 103.346777 281.317249 
L 109.249587 287.091641 
L 115.152397 290.91868 
L 121.055207 293.344984 
L 126.958017 294.747799 
L 132.860826 295.396579 
L 138.763636 295.488 
L 144.666446 295.16697 
L 150.569256 294.540389 
L 156.472066 293.687063 
L 162.374876 292.665298 
L 168.277686 291.518773 
L 174.180496 290.280958 
L 180.083306 288.978259 
L 185.986116 287.632125 
L 191.888926 286.260377 
L 197.791736 284.878003 
L 203.694545 283.497637 
L 209.597355 282.129864 
L 215.500165 280.783448 
L 221.402975 279.465537 
L 227.305785 278.18185 
L 233.208595 276.936868 
L 239.111405 275.734007 
L 245.014215 274.575774 
L 250.917025 273.463917 
L 256.819835 272.399533 
L 262.722645 271.38318 
L 268.625455 270.414955 
L 274.528264 269.494568 
L 280.431074 268.621401 
L 286.333884 267.794558 
L 292.236694 267.012919 
L 298.139504 266.275177 
L 304.042314 265.579878 
L 309.945124 264.92546 
L 315.847934 264.310285 
L 321.750744 263.73267 
L 327.653554 263.190912 
L 333.556364 262.683311 
L 339.459174 262.20819 
L 345.361983 261.763907 
L 351.264793 261.348868 
L 357.167603 260.961532 
L 363.070413 260.600416 
L 368.973223 260.264098 
L 374.876033 259.951216 
L 380.778843 259.660464 
L 386.681653 259.390595 
L 392.584463 259.140413 
L 398.487273 258.908773 
" clip-path="url(#paaa2c92831)" style="fill: none; stroke: #984ea3; stroke-opacity: 0.6; stroke-width: 1.5; stroke-linecap: square"/>
    <defs>
     <path id="m2957f44ae2" d="M 0 3 
L 0 -3 
" style="stroke: #984ea3; stroke-opacity: 0.6"/>
    </defs>
    <g clip-path="url(#paaa2c92831)">
     <use xlink:href="#m2957f44ae2" x="73.832727" y="164.597315" style="fill: #984ea3; fill-opacity: 0.6; stroke: #984ea3; stroke-opacity: 0.6"/>
     <use xlink:href="#m2957f44ae2" x="79.735537" y="211.967132" style="fill: #984ea3; fill-opacity: 0.6; stroke: #984ea3; stroke-opacity: 0.6"/>
     <use xlink:href="#m2957f44ae2" x="85.638347" y="241.186487" style="fill: #984ea3; fill-opacity: 0.6; stroke: #984ea3; stroke-opacity: 0.6"/>
     <use xlink:href="#m2957f44ae2" x="91.541157" y="260.128104" style="fill: #984ea3; fill-opacity: 0.6; stroke: #984ea3; stroke-opacity: 0.6"/>
     <use xlink:href="#m2957f44ae2" x="97.443967" y="272.768038" style="fill: #984ea3; fill-opacity: 0.6; stroke: #984ea3; stroke-opacity: 0.6"/>
     <use xlink:href="#m2957f44ae2" x="103.346777" y="281.317249" style="fill: #984ea3; fill-opacity: 0.6; stroke: #984ea3; stroke-opacity: 0.6"/>
     <use xlink:href="#m2957f44ae2" x="109.249587" y="287.091641" style="fill: #984ea3; fill-opacity: 0.6; stroke: #984ea3; stroke-opacity: 0.6"/>
     <use xlink:href="#m2957f44ae2" x="115.152397" y="290.91868" style="fill: #984ea3; fill-opacity: 0.6; stroke: #984ea3; stroke-opacity: 0.6"/>
     <use xlink:href="#m2957f44ae2" x="121.055207" y="293.344984" style="fill: #984ea3; fill-opacity: 0.6; stroke: #984ea3; stroke-opacity: 0.6"/>
     <use xlink:href="#m2957f44ae2" x="126.958017" y="294.747799" style="fill: #984ea3; fill-opacity: 0.6; stroke: #984ea3; stroke-opacity: 0.6"/>
     <use xlink:href="#m2957f44ae2" x="132.860826" y="295.396579" style="fill: #984ea3; fill-opacity: 0.6; stroke: #984ea3; stroke-opacity: 0.6"/>
     <use xlink:href="#m2957f44ae2" x="138.763636" y="295.488" style="fill: #984ea3; fill-opacity: 0.6; stroke: #984ea3; stroke-opacity: 0.6"/>
     <use xlink:href="#m2957f44ae2" x="144.666446" y="295.16697" style="fill: #984ea3; fill-opacity: 0.6; stroke: #984ea3; stroke-opacity: 0.6"/>
     <use xlink:href="#m2957f44ae2" x="150.569256" y="294.540389" style="fill: #984ea3; fill-opacity: 0.6; stroke: #984ea3; stroke-opacity: 0.6"/>
     <use xlink:href="#m2957f44ae2" x="156.472066" y="293.687063" style="fill: #984ea3; fill-opacity: 0.6; stroke: #984ea3; stroke-opacity: 0.6"/>
     <use xlink:href="#m2957f44ae2" x="162.374876" y="292.665298" style="fill: #984ea3; fill-opacity: 0.6; stroke: #984ea3; stroke-opacity: 0.6"/>
     <use xlink:href="#m2957f44ae2" x="168.277686" y="291.518773" style="fill: #984ea3; fill-opacity: 0.6; stroke: #984ea3; stroke-opacity: 0.6"/>
     <use xlink:href="#m2957f44ae2" x="174.180496" y="290.280958" style="fill: #984ea3; fill-opacity: 0.6; stroke: #984ea3; stroke-opacity: 0.6"/>
     <use xlink:href="#m2957f44ae2" x="180.083306" y="288.978259" style="fill: #984ea3; fill-opacity: 0.6; stroke: #984ea3; stroke-opacity: 0.6"/>
     <use xlink:href="#m2957f44ae2" x="185.986116" y="287.632125" style="fill: #984ea3; fill-opacity: 0.6; stroke: #984ea3; stroke-opacity: 0.6"/>
     <use xlink:href="#m2957f44ae2" x="191.888926" y="286.260377" style="fill: #984ea3; fill-opacity: 0.6; stroke: #984ea3; stroke-opacity: 0.6"/>
     <use xlink:href="#m2957f44ae2" x="197.791736" y="284.878003" style="fill: #984ea3; fill-opacity: 0.6; stroke: #984ea3; stroke-opacity: 0.6"/>
     <use xlink:href="#m2957f44ae2" x="203.694545" y="283.497637" style="fill: #984ea3; fill-opacity: 0.6; stroke: #984ea3; stroke-opacity: 0.6"/>
     <use xlink:href="#m2957f44ae2" x="209.597355" y="282.129864" style="fill: #984ea3; fill-opacity: 0.6; stroke: #984ea3; stroke-opacity: 0.6"/>
     <use xlink:href="#m2957f44ae2" x="215.500165" y="280.783448" style="fill: #984ea3; fill-opacity: 0.6; stroke: #984ea3; stroke-opacity: 0.6"/>
     <use xlink:href="#m2957f44ae2" x="221.402975" y="279.465537" style="fill: #984ea3; fill-opacity: 0.6; stroke: #984ea3; stroke-opacity: 0.6"/>
     <use xlink:href="#m2957f44ae2" x="227.305785" y="278.18185" style="fill: #984ea3; fill-opacity: 0.6; stroke: #984ea3; stroke-opacity: 0.6"/>
     <use xlink:href="#m2957f44ae2" x="233.208595" y="276.936868" style="fill: #984ea3; fill-opacity: 0.6; stroke: #984ea3; stroke-opacity: 0.6"/>
     <use xlink:href="#m2957f44ae2" x="239.111405" y="275.734007" style="fill: #984ea3; fill-opacity: 0.6; stroke: #984ea3; stroke-opacity: 0.6"/>
     <use xlink:href="#m2957f44ae2" x="245.014215" y="274.575774" style="fill: #984ea3; fill-opacity: 0.6; stroke: #984ea3; stroke-opacity: 0.6"/>
     <use xlink:href="#m2957f44ae2" x="250.917025" y="273.463917" style="fill: #984ea3; fill-opacity: 0.6; stroke: #984ea3; stroke-opacity: 0.6"/>
     <use xlink:href="#m2957f44ae2" x="256.819835" y="272.399533" style="fill: #984ea3; fill-opacity: 0.6; stroke: #984ea3; stroke-opacity: 0.6"/>
     <use xlink:href="#m2957f44ae2" x="262.722645" y="271.38318" style="fill: #984ea3; fill-opacity: 0.6; stroke: #984ea3; stroke-opacity: 0.6"/>
     <use xlink:href="#m2957f44ae2" x="268.625455" y="270.414955" style="fill: #984ea3; fill-opacity: 0.6; stroke: #984ea3; stroke-opacity: 0.6"/>
     <use xlink:href="#m2957f44ae2" x="274.528264" y="269.494568" style="fill: #984ea3; fill-opacity: 0.6; stroke: #984ea3; stroke-opacity: 0.6"/>
     <use xlink:href="#m2957f44ae2" x="280.431074" y="268.621401" style="fill: #984ea3; fill-opacity: 0.6; stroke: #984ea3; stroke-opacity: 0.6"/>
     <use xlink:href="#m2957f44ae2" x="286.333884" y="267.794558" style="fill: #984ea3; fill-opacity: 0.6; stroke: #984ea3; stroke-opacity: 0.6"/>
     <use xlink:href="#m2957f44ae2" x="292.236694" y="267.012919" style="fill: #984ea3; fill-opacity: 0.6; stroke: #984ea3; stroke-opacity: 0.6"/>
     <use xlink:href="#m2957f44ae2" x="298.139504" y="266.275177" style="fill: #984ea3; fill-opacity: 0.6; stroke: #984ea3; stroke-opacity: 0.6"/>
     <use xlink:href="#m2957f44ae2" x="304.042314" y="265.579878" style="fill: #984ea3; fill-opacity: 0.6; stroke: #984ea3; stroke-opacity: 0.6"/>
     <use xlink:href="#m2957f44ae2" x="309.945124" y="264.92546" style="fill: #984ea3; fill-opacity: 0.6; stroke: #984ea3; stroke-opacity: 0.6"/>
     <use xlink:href="#m2957f44ae2" x="315.847934" y="264.310285" style="fill: #984ea3; fill-opacity: 0.6; stroke: #984ea3; stroke-opacity: 0.6"/>
     <use xlink:href="#m2957f44ae2" x="321.750744" y="263.73267" style="fill: #984ea3; fill-opacity: 0.6; stroke: #984ea3; stroke-opacity: 0.6"/>
     <use xlink:href="#m2957f44ae2" x="327.653554" y="263.190912" style="fill: #984ea3; fill-opacity: 0.6; stroke: #984ea3; stroke-opacity: 0.6"/>
     <use xlink:href="#m2957f44ae2" x="333.556364" y="262.683311" style="fill: #984ea3; fill-opacity: 0.6; stroke: #984ea3; stroke-opacity: 0.6"/>
     <use xlink:href="#m2957f44ae2" x="339.459174" y="262.20819" style="fill: #984ea3; fill-opacity: 0.6; stroke: #984ea3; stroke-opacity: 0.6"/>
     <use xlink:href="#m2957f44ae2" x="345.361983" y="261.763907" style="fill: #984ea3; fill-opacity: 0.6; stroke: #984ea3; stroke-opacity: 0.6"/>
     <use xlink:href="#m2957f44ae2" x="351.264793" y="261.348868" style="fill: #984ea3; fill-opacity: 0.6; stroke: #984ea3; stroke-opacity: 0.6"/>
     <use xlink:href="#m2957f44ae2" x="357.167603" y="260.961532" style="fill: #984ea3; fill-opacity: 0.6; stroke: #984ea3; stroke-opacity: 0.6"/>
     <use xlink:href="#m2957f44ae2" x="363.070413" y="260.600416" style="fill: #984ea3; fill-opacity: 0.6; stroke: #984ea3; stroke-opacity: 0.6"/>
     <use xlink:href="#m2957f44ae2" x="368.973223" y="260.264098" style="fill: #984ea3; fill-opacity: 0.6; stroke: #984ea3; stroke-opacity: 0.6"/>
     <use xlink:href="#m2957f44ae2" x="374.876033" y="259.951216" style="fill: #984ea3; fill-opacity: 0.6; stroke: #984ea3; stroke-opacity: 0.6"/>
     <use xlink:href="#m2957f44ae2" x="380.778843" y="259.660464" style="fill: #984ea3; fill-opacity: 0.6; stroke: #984ea3; stroke-opacity: 0.6"/>
     <use xlink:href="#m2957f44ae2" x="386.681653" y="259.390595" style="fill: #984ea3; fill-opacity: 0.6; stroke: #984ea3; stroke-opacity: 0.6"/>
     <use xlink:href="#m2957f44ae2" x="392.584463" y="259.140413" style="fill: #984ea3; fill-opacity: 0.6; stroke: #984ea3; stroke-opacity: 0.6"/>
     <use xlink:href="#m2957f44ae2" x="398.487273" y="258.908773" style="fill: #984ea3; fill-opacity: 0.6; stroke: #984ea3; stroke-opacity: 0.6"/>
    </g>
   </g>
   <g id="patch_3">
    <path d="M 57.6 307.584 
L 57.6 41.472 
" style="fill: none; stroke: #000000; stroke-width: 0.8; stroke-linejoin: miter; stroke-linecap: square"/>
   </g>
   <g id="patch_4">
    <path d="M 414.72 307.584 
L 414.72 41.472 
" style="fill: none; stroke: #000000; stroke-width: 0.8; stroke-linejoin: miter; stroke-linecap: square"/>
   </g>
   <g id="patch_5">
    <path d="M 57.6 307.584 
L 414.72 307.584 
" style="fill: none; stroke: #000000; stroke-width: 0.8; stroke-linejoin: miter; stroke-linecap: square"/>
   </g>
   <g id="patch_6">
    <path d="M 57.6 41.472 
L 414.72 41.472 
" style="fill: none; stroke: #000000; stroke-width: 0.8; stroke-linejoin: miter; stroke-linecap: square"/>
   </g>
   <g id="text_14">
    <!-- H2 Lower Bounds -->
    <g transform="translate(183.714375 35.472) scale(0.12 -0.12)">
     <defs>
      <path id="DejaVuSans-77" d="M 269 3500 
L 844 3500 
L 1563 769 
L 2278 3500 
L 2956 3500 
L 3675 769 
L 4391 3500 
L 4966 3500 
L 4050 0 
L 3372 0 
L 2619 2869 
L 1863 0 
L 1184 0 
L 269 3500 
z
" transform="scale(0.015625)"/>
      <path id="DejaVuSans-75" d="M 544 1381 
L 544 3500 
L 1119 3500 
L 1119 1403 
Q 1119 906 1312 657 
Q 1506 409 1894 409 
Q 2359 409 2629 706 
Q 2900 1003 2900 1516 
L 2900 3500 
L 3475 3500 
L 3475 0 
L 2900 0 
L 2900 538 
Q 2691 219 2414 64 
Q 2138 -91 1772 -91 
Q 1169 -91 856 284 
Q 544 659 544 1381 
z
M 1991 3584 
L 1991 3584 
z
" transform="scale(0.015625)"/>
      <path id="DejaVuSans-73" d="M 2834 3397 
L 2834 2853 
Q 2591 2978 2328 3040 
Q 2066 3103 1784 3103 
Q 1356 3103 1142 2972 
Q 928 2841 928 2578 
Q 928 2378 1081 2264 
Q 1234 2150 1697 2047 
L 1894 2003 
Q 2506 1872 2764 1633 
Q 3022 1394 3022 966 
Q 3022 478 2636 193 
Q 2250 -91 1575 -91 
Q 1294 -91 989 -36 
Q 684 19 347 128 
L 347 722 
Q 666 556 975 473 
Q 1284 391 1588 391 
Q 1994 391 2212 530 
Q 2431 669 2431 922 
Q 2431 1156 2273 1281 
Q 2116 1406 1581 1522 
L 1381 1569 
Q 847 1681 609 1914 
Q 372 2147 372 2553 
Q 372 3047 722 3315 
Q 1072 3584 1716 3584 
Q 2034 3584 2315 3537 
Q 2597 3491 2834 3397 
z
" transform="scale(0.015625)"/>
     </defs>
     <use xlink:href="#DejaVuSans-48"/>
     <use xlink:href="#DejaVuSans-32" transform="translate(75.195312 0)"/>
     <use xlink:href="#DejaVuSans-20" transform="translate(138.818359 0)"/>
     <use xlink:href="#DejaVuSans-4c" transform="translate(170.605469 0)"/>
     <use xlink:href="#DejaVuSans-6f" transform="translate(224.568359 0)"/>
     <use xlink:href="#DejaVuSans-77" transform="translate(285.75 0)"/>
     <use xlink:href="#DejaVuSans-65" transform="translate(367.537109 0)"/>
     <use xlink:href="#DejaVuSans-72" transform="translate(429.060547 0)"/>
     <use xlink:href="#DejaVuSans-20" transform="translate(470.173828 0)"/>
     <use xlink:href="#DejaVuSans-42" transform="translate(501.960938 0)"/>
     <use xlink:href="#DejaVuSans-6f" transform="translate(570.564453 0)"/>
     <use xlink:href="#DejaVuSans-75" transform="translate(631.746094 0)"/>
     <use xlink:href="#DejaVuSans-6e" transform="translate(695.125 0)"/>
     <use xlink:href="#DejaVuSans-64" transform="translate(758.503906 0)"/>
     <use xlink:href="#DejaVuSans-73" transform="translate(821.980469 0)"/>
    </g>
   </g>
   <g id="legend_1">
    <g id="patch_7">
     <path d="M 272.771563 93.506375 
L 407.72 93.506375 
Q 409.72 93.506375 409.72 91.506375 
L 409.72 48.472 
Q 409.72 46.472 407.72 46.472 
L 272.771563 46.472 
Q 270.771563 46.472 270.771563 48.472 
L 270.771563 91.506375 
Q 270.771563 93.506375 272.771563 93.506375 
z
" style="fill: #ffffff; opacity: 0.8; stroke: #cccccc; stroke-linejoin: miter"/>
    </g>
    <g id="line2d_15">
     <path d="M 274.771563 54.570438 
L 284.771563 54.570438 
L 294.771563 54.570438 
" style="fill: none; stroke: #377eb8; stroke-opacity: 0.6; stroke-width: 1.5; stroke-linecap: square"/>
     <g>
      <use xlink:href="#m615d9c68d6" x="284.771563" y="54.570438" style="fill: #377eb8; fill-opacity: 0.6; stroke: #377eb8; stroke-opacity: 0.6"/>
     </g>
    </g>
    <g id="text_15">
     <!-- No Partitioning -->
     <g transform="translate(302.771563 58.070438) scale(0.1 -0.1)">
      <defs>
       <path id="DejaVuSans-4e" d="M 628 4666 
L 1478 4666 
L 3547 763 
L 3547 4666 
L 4159 4666 
L 4159 0 
L 3309 0 
L 1241 3903 
L 1241 0 
L 628 0 
L 628 4666 
z
" transform="scale(0.015625)"/>
       <path id="DejaVuSans-50" d="M 1259 4147 
L 1259 2394 
L 2053 2394 
Q 2494 2394 2734 2622 
Q 2975 2850 2975 3272 
Q 2975 3691 2734 3919 
Q 2494 4147 2053 4147 
L 1259 4147 
z
M 628 4666 
L 2053 4666 
Q 2838 4666 3239 4311 
Q 3641 3956 3641 3272 
Q 3641 2581 3239 2228 
Q 2838 1875 2053 1875 
L 1259 1875 
L 1259 0 
L 628 0 
L 628 4666 
z
" transform="scale(0.015625)"/>
       <path id="DejaVuSans-69" d="M 603 3500 
L 1178 3500 
L 1178 0 
L 603 0 
L 603 3500 
z
M 603 4863 
L 1178 4863 
L 1178 4134 
L 603 4134 
L 603 4863 
z
" transform="scale(0.015625)"/>
      </defs>
      <use xlink:href="#DejaVuSans-4e"/>
      <use xlink:href="#DejaVuSans-6f" transform="translate(74.804688 0)"/>
      <use xlink:href="#DejaVuSans-20" transform="translate(135.986328 0)"/>
      <use xlink:href="#DejaVuSans-50" transform="translate(167.773438 0)"/>
      <use xlink:href="#DejaVuSans-61" transform="translate(223.576172 0)"/>
      <use xlink:href="#DejaVuSans-72" transform="translate(284.855469 0)"/>
      <use xlink:href="#DejaVuSans-74" transform="translate(325.96875 0)"/>
      <use xlink:href="#DejaVuSans-69" transform="translate(365.177734 0)"/>
      <use xlink:href="#DejaVuSans-74" transform="translate(392.960938 0)"/>
      <use xlink:href="#DejaVuSans-69" transform="translate(432.169922 0)"/>
      <use xlink:href="#DejaVuSans-6f" transform="translate(459.953125 0)"/>
      <use xlink:href="#DejaVuSans-6e" transform="translate(521.134766 0)"/>
      <use xlink:href="#DejaVuSans-69" transform="translate(584.513672 0)"/>
      <use xlink:href="#DejaVuSans-6e" transform="translate(612.296875 0)"/>
      <use xlink:href="#DejaVuSans-67" transform="translate(675.675781 0)"/>
     </g>
    </g>
    <g id="line2d_16">
     <path d="M 274.771563 69.248563 
L 284.771563 69.248563 
L 294.771563 69.248563 
" style="fill: none; stroke: #a65628; stroke-opacity: 0.6; stroke-width: 1.5; stroke-linecap: square"/>
     <g>
      <use xlink:href="#md754eb4b4e" x="284.771563" y="69.248563" style="fill: #a65628; fill-opacity: 0.6; stroke: #a65628; stroke-opacity: 0.6"/>
     </g>
    </g>
    <g id="text_16">
     <!-- LR F(M, 2) + Spin -->
     <g transform="translate(302.771563 72.748563) scale(0.1 -0.1)">
      <defs>
       <path id="DejaVuSans-52" d="M 2841 2188 
Q 3044 2119 3236 1894 
Q 3428 1669 3622 1275 
L 4263 0 
L 3584 0 
L 2988 1197 
Q 2756 1666 2539 1819 
Q 2322 1972 1947 1972 
L 1259 1972 
L 1259 0 
L 628 0 
L 628 4666 
L 2053 4666 
Q 2853 4666 3247 4331 
Q 3641 3997 3641 3322 
Q 3641 2881 3436 2590 
Q 3231 2300 2841 2188 
z
M 1259 4147 
L 1259 2491 
L 2053 2491 
Q 2509 2491 2742 2702 
Q 2975 2913 2975 3322 
Q 2975 3731 2742 3939 
Q 2509 4147 2053 4147 
L 1259 4147 
z
" transform="scale(0.015625)"/>
       <path id="DejaVuSans-46" d="M 628 4666 
L 3309 4666 
L 3309 4134 
L 1259 4134 
L 1259 2759 
L 3109 2759 
L 3109 2228 
L 1259 2228 
L 1259 0 
L 628 0 
L 628 4666 
z
" transform="scale(0.015625)"/>
       <path id="DejaVuSans-4d" d="M 628 4666 
L 1569 4666 
L 2759 1491 
L 3956 4666 
L 4897 4666 
L 4897 0 
L 4281 0 
L 4281 4097 
L 3078 897 
L 2444 897 
L 1241 4097 
L 1241 0 
L 628 0 
L 628 4666 
z
" transform="scale(0.015625)"/>
       <path id="DejaVuSans-2c" d="M 750 794 
L 1409 794 
L 1409 256 
L 897 -744 
L 494 -744 
L 750 256 
L 750 794 
z
" transform="scale(0.015625)"/>
       <path id="DejaVuSans-2b" d="M 2944 4013 
L 2944 2272 
L 4684 2272 
L 4684 1741 
L 2944 1741 
L 2944 0 
L 2419 0 
L 2419 1741 
L 678 1741 
L 678 2272 
L 2419 2272 
L 2419 4013 
L 2944 4013 
z
" transform="scale(0.015625)"/>
       <path id="DejaVuSans-53" d="M 3425 4513 
L 3425 3897 
Q 3066 4069 2747 4153 
Q 2428 4238 2131 4238 
Q 1616 4238 1336 4038 
Q 1056 3838 1056 3469 
Q 1056 3159 1242 3001 
Q 1428 2844 1947 2747 
L 2328 2669 
Q 3034 2534 3370 2195 
Q 3706 1856 3706 1288 
Q 3706 609 3251 259 
Q 2797 -91 1919 -91 
Q 1588 -91 1214 -16 
Q 841 59 441 206 
L 441 856 
Q 825 641 1194 531 
Q 1563 422 1919 422 
Q 2459 422 2753 634 
Q 3047 847 3047 1241 
Q 3047 1584 2836 1778 
Q 2625 1972 2144 2069 
L 1759 2144 
Q 1053 2284 737 2584 
Q 422 2884 422 3419 
Q 422 4038 858 4394 
Q 1294 4750 2059 4750 
Q 2388 4750 2728 4690 
Q 3069 4631 3425 4513 
z
" transform="scale(0.015625)"/>
       <path id="DejaVuSans-70" d="M 1159 525 
L 1159 -1331 
L 581 -1331 
L 581 3500 
L 1159 3500 
L 1159 2969 
Q 1341 3281 1617 3432 
Q 1894 3584 2278 3584 
Q 2916 3584 3314 3078 
Q 3713 2572 3713 1747 
Q 3713 922 3314 415 
Q 2916 -91 2278 -91 
Q 1894 -91 1617 61 
Q 1341 213 1159 525 
z
M 3116 1747 
Q 3116 2381 2855 2742 
Q 2594 3103 2138 3103 
Q 1681 3103 1420 2742 
Q 1159 2381 1159 1747 
Q 1159 1113 1420 752 
Q 1681 391 2138 391 
Q 2594 391 2855 752 
Q 3116 1113 3116 1747 
z
" transform="scale(0.015625)"/>
      </defs>
      <use xlink:href="#DejaVuSans-4c"/>
      <use xlink:href="#DejaVuSans-52" transform="translate(55.712891 0)"/>
      <use xlink:href="#DejaVuSans-20" transform="translate(125.195312 0)"/>
      <use xlink:href="#DejaVuSans-46" transform="translate(156.982422 0)"/>
      <use xlink:href="#DejaVuSans-28" transform="translate(214.501953 0)"/>
      <use xlink:href="#DejaVuSans-4d" transform="translate(253.515625 0)"/>
      <use xlink:href="#DejaVuSans-2c" transform="translate(339.794922 0)"/>
      <use xlink:href="#DejaVuSans-20" transform="translate(371.582031 0)"/>
      <use xlink:href="#DejaVuSans-32" transform="translate(403.369141 0)"/>
      <use xlink:href="#DejaVuSans-29" transform="translate(466.992188 0)"/>
      <use xlink:href="#DejaVuSans-20" transform="translate(506.005859 0)"/>
      <use xlink:href="#DejaVuSans-2b" transform="translate(537.792969 0)"/>
      <use xlink:href="#DejaVuSans-20" transform="translate(621.582031 0)"/>
      <use xlink:href="#DejaVuSans-53" transform="translate(653.369141 0)"/>
      <use xlink:href="#DejaVuSans-70" transform="translate(716.845703 0)"/>
      <use xlink:href="#DejaVuSans-69" transform="translate(780.322266 0)"/>
      <use xlink:href="#DejaVuSans-6e" transform="translate(808.105469 0)"/>
     </g>
    </g>
    <g id="line2d_17">
     <path d="M 274.771563 83.926688 
L 284.771563 83.926688 
L 294.771563 83.926688 
" style="fill: none; stroke: #984ea3; stroke-opacity: 0.6; stroke-width: 1.5; stroke-linecap: square"/>
     <g>
      <use xlink:href="#m2957f44ae2" x="284.771563" y="83.926688" style="fill: #984ea3; fill-opacity: 0.6; stroke: #984ea3; stroke-opacity: 0.6"/>
     </g>
    </g>
    <g id="text_17">
     <!-- GFRO F(M, 2) + Spin -->
     <g transform="translate(302.771563 87.426688) scale(0.1 -0.1)">
      <defs>
       <path id="DejaVuSans-47" d="M 3809 666 
L 3809 1919 
L 2778 1919 
L 2778 2438 
L 4434 2438 
L 4434 434 
Q 4069 175 3628 42 
Q 3188 -91 2688 -91 
Q 1594 -91 976 548 
Q 359 1188 359 2328 
Q 359 3472 976 4111 
Q 1594 4750 2688 4750 
Q 3144 4750 3555 4637 
Q 3966 4525 4313 4306 
L 4313 3634 
Q 3963 3931 3569 4081 
Q 3175 4231 2741 4231 
Q 1884 4231 1454 3753 
Q 1025 3275 1025 2328 
Q 1025 1384 1454 906 
Q 1884 428 2741 428 
Q 3075 428 3337 486 
Q 3600 544 3809 666 
z
" transform="scale(0.015625)"/>
       <path id="DejaVuSans-4f" d="M 2522 4238 
Q 1834 4238 1429 3725 
Q 1025 3213 1025 2328 
Q 1025 1447 1429 934 
Q 1834 422 2522 422 
Q 3209 422 3611 934 
Q 4013 1447 4013 2328 
Q 4013 3213 3611 3725 
Q 3209 4238 2522 4238 
z
M 2522 4750 
Q 3503 4750 4090 4092 
Q 4678 3434 4678 2328 
Q 4678 1225 4090 567 
Q 3503 -91 2522 -91 
Q 1538 -91 948 565 
Q 359 1222 359 2328 
Q 359 3434 948 4092 
Q 1538 4750 2522 4750 
z
" transform="scale(0.015625)"/>
      </defs>
      <use xlink:href="#DejaVuSans-47"/>
      <use xlink:href="#DejaVuSans-46" transform="translate(77.490234 0)"/>
      <use xlink:href="#DejaVuSans-52" transform="translate(135.009766 0)"/>
      <use xlink:href="#DejaVuSans-4f" transform="translate(204.492188 0)"/>
      <use xlink:href="#DejaVuSans-20" transform="translate(283.203125 0)"/>
      <use xlink:href="#DejaVuSans-46" transform="translate(314.990234 0)"/>
      <use xlink:href="#DejaVuSans-28" transform="translate(372.509766 0)"/>
      <use xlink:href="#DejaVuSans-4d" transform="translate(411.523438 0)"/>
      <use xlink:href="#DejaVuSans-2c" transform="translate(497.802734 0)"/>
      <use xlink:href="#DejaVuSans-20" transform="translate(529.589844 0)"/>
      <use xlink:href="#DejaVuSans-32" transform="translate(561.376953 0)"/>
      <use xlink:href="#DejaVuSans-29" transform="translate(625 0)"/>
      <use xlink:href="#DejaVuSans-20" transform="translate(664.013672 0)"/>
      <use xlink:href="#DejaVuSans-2b" transform="translate(695.800781 0)"/>
      <use xlink:href="#DejaVuSans-20" transform="translate(779.589844 0)"/>
      <use xlink:href="#DejaVuSans-53" transform="translate(811.376953 0)"/>
      <use xlink:href="#DejaVuSans-70" transform="translate(874.853516 0)"/>
      <use xlink:href="#DejaVuSans-69" transform="translate(938.330078 0)"/>
      <use xlink:href="#DejaVuSans-6e" transform="translate(966.113281 0)"/>
     </g>
    </g>
   </g>
  </g>
 </g>
 <defs>
  <clipPath id="paaa2c92831">
   <rect x="57.6" y="41.472" width="357.12" height="266.112"/>
  </clipPath>
 </defs>
</svg>
