<?xml version="1.0" encoding="utf-8" standalone="no"?>
<!DOCTYPE svg PUBLIC "-//W3C//DTD SVG 1.1//EN"
  "http://www.w3.org/Graphics/SVG/1.1/DTD/svg11.dtd">
<svg xmlns:xlink="http://www.w3.org/1999/xlink" width="460.8pt" height="345.6pt" viewBox="0 0 460.8 345.6" xmlns="http://www.w3.org/2000/svg" version="1.1">
 <metadata>
  <rdf:RDF xmlns:dc="http://purl.org/dc/elements/1.1/" xmlns:cc="http://creativecommons.org/ns#" xmlns:rdf="http://www.w3.org/1999/02/22-rdf-syntax-ns#">
   <cc:Work>
    <dc:type rdf:resource="http://purl.org/dc/dcmitype/StillImage"/>
    <dc:date>2025-07-15T22:31:03.138517</dc:date>
    <dc:format>image/svg+xml</dc:format>
    <dc:creator>
     <cc:Agent>
      <dc:title>Matplotlib v3.10.1, https://matplotlib.org/</dc:title>
     </cc:Agent>
    </dc:creator>
   </cc:Work>
  </rdf:RDF>
 </metadata>
 <defs>
  <style type="text/css">*{stroke-linejoin: round; stroke-linecap: butt}</style>
 </defs>
 <g id="figure_1">
  <g id="patch_1">
   <path d="M 0 345.6 
L 460.8 345.6 
L 460.8 0 
L 0 0 
z
" style="fill: #ffffff"/>
  </g>
  <g id="axes_1">
   <g id="patch_2">
    <path d="M 57.6 307.584 
L 414.72 307.584 
L 414.72 41.472 
L 57.6 41.472 
z
" style="fill: #ffffff"/>
   </g>
   <g id="matplotlib.axis_1">
    <g id="xtick_1">
     <g id="line2d_1">
      <defs>
       <path id="macebece529" d="M 0 0 
L 0 3.5 
" style="stroke: #000000; stroke-width: 0.8"/>
      </defs>
      <g>
       <use xlink:href="#macebece529" x="109.249587" y="307.584" style="stroke: #000000; stroke-width: 0.8"/>
      </g>
     </g>
     <g id="text_1">
      <!-- 0.5 -->
      <g transform="translate(101.298024 322.182437) scale(0.1 -0.1)">
       <defs>
        <path id="DejaVuSans-30" d="M 2034 4250 
Q 1547 4250 1301 3770 
Q 1056 3291 1056 2328 
Q 1056 1369 1301 889 
Q 1547 409 2034 409 
Q 2525 409 2770 889 
Q 3016 1369 3016 2328 
Q 3016 3291 2770 3770 
Q 2525 4250 2034 4250 
z
M 2034 4750 
Q 2819 4750 3233 4129 
Q 3647 3509 3647 2328 
Q 3647 1150 3233 529 
Q 2819 -91 2034 -91 
Q 1250 -91 836 529 
Q 422 1150 422 2328 
Q 422 3509 836 4129 
Q 1250 4750 2034 4750 
z
" transform="scale(0.015625)"/>
        <path id="DejaVuSans-2e" d="M 684 794 
L 1344 794 
L 1344 0 
L 684 0 
L 684 794 
z
" transform="scale(0.015625)"/>
        <path id="DejaVuSans-35" d="M 691 4666 
L 3169 4666 
L 3169 4134 
L 1269 4134 
L 1269 2991 
Q 1406 3038 1543 3061 
Q 1681 3084 1819 3084 
Q 2600 3084 3056 2656 
Q 3513 2228 3513 1497 
Q 3513 744 3044 326 
Q 2575 -91 1722 -91 
Q 1428 -91 1123 -41 
Q 819 9 494 109 
L 494 744 
Q 775 591 1075 516 
Q 1375 441 1709 441 
Q 2250 441 2565 725 
Q 2881 1009 2881 1497 
Q 2881 1984 2565 2268 
Q 2250 2553 1709 2553 
Q 1456 2553 1204 2497 
Q 953 2441 691 2322 
L 691 4666 
z
" transform="scale(0.015625)"/>
       </defs>
       <use xlink:href="#DejaVuSans-30"/>
       <use xlink:href="#DejaVuSans-2e" transform="translate(63.623047 0)"/>
       <use xlink:href="#DejaVuSans-35" transform="translate(95.410156 0)"/>
      </g>
     </g>
    </g>
    <g id="xtick_2">
     <g id="line2d_2">
      <g>
       <use xlink:href="#macebece529" x="168.277686" y="307.584" style="stroke: #000000; stroke-width: 0.8"/>
      </g>
     </g>
     <g id="text_2">
      <!-- 1.0 -->
      <g transform="translate(160.326123 322.182437) scale(0.1 -0.1)">
       <defs>
        <path id="DejaVuSans-31" d="M 794 531 
L 1825 531 
L 1825 4091 
L 703 3866 
L 703 4441 
L 1819 4666 
L 2450 4666 
L 2450 531 
L 3481 531 
L 3481 0 
L 794 0 
L 794 531 
z
" transform="scale(0.015625)"/>
       </defs>
       <use xlink:href="#DejaVuSans-31"/>
       <use xlink:href="#DejaVuSans-2e" transform="translate(63.623047 0)"/>
       <use xlink:href="#DejaVuSans-30" transform="translate(95.410156 0)"/>
      </g>
     </g>
    </g>
    <g id="xtick_3">
     <g id="line2d_3">
      <g>
       <use xlink:href="#macebece529" x="227.305785" y="307.584" style="stroke: #000000; stroke-width: 0.8"/>
      </g>
     </g>
     <g id="text_3">
      <!-- 1.5 -->
      <g transform="translate(219.354223 322.182437) scale(0.1 -0.1)">
       <use xlink:href="#DejaVuSans-31"/>
       <use xlink:href="#DejaVuSans-2e" transform="translate(63.623047 0)"/>
       <use xlink:href="#DejaVuSans-35" transform="translate(95.410156 0)"/>
      </g>
     </g>
    </g>
    <g id="xtick_4">
     <g id="line2d_4">
      <g>
       <use xlink:href="#macebece529" x="286.333884" y="307.584" style="stroke: #000000; stroke-width: 0.8"/>
      </g>
     </g>
     <g id="text_4">
      <!-- 2.0 -->
      <g transform="translate(278.382322 322.182437) scale(0.1 -0.1)">
       <defs>
        <path id="DejaVuSans-32" d="M 1228 531 
L 3431 531 
L 3431 0 
L 469 0 
L 469 531 
Q 828 903 1448 1529 
Q 2069 2156 2228 2338 
Q 2531 2678 2651 2914 
Q 2772 3150 2772 3378 
Q 2772 3750 2511 3984 
Q 2250 4219 1831 4219 
Q 1534 4219 1204 4116 
Q 875 4013 500 3803 
L 500 4441 
Q 881 4594 1212 4672 
Q 1544 4750 1819 4750 
Q 2544 4750 2975 4387 
Q 3406 4025 3406 3419 
Q 3406 3131 3298 2873 
Q 3191 2616 2906 2266 
Q 2828 2175 2409 1742 
Q 1991 1309 1228 531 
z
" transform="scale(0.015625)"/>
       </defs>
       <use xlink:href="#DejaVuSans-32"/>
       <use xlink:href="#DejaVuSans-2e" transform="translate(63.623047 0)"/>
       <use xlink:href="#DejaVuSans-30" transform="translate(95.410156 0)"/>
      </g>
     </g>
    </g>
    <g id="xtick_5">
     <g id="line2d_5">
      <g>
       <use xlink:href="#macebece529" x="345.361983" y="307.584" style="stroke: #000000; stroke-width: 0.8"/>
      </g>
     </g>
     <g id="text_5">
      <!-- 2.5 -->
      <g transform="translate(337.410421 322.182437) scale(0.1 -0.1)">
       <use xlink:href="#DejaVuSans-32"/>
       <use xlink:href="#DejaVuSans-2e" transform="translate(63.623047 0)"/>
       <use xlink:href="#DejaVuSans-35" transform="translate(95.410156 0)"/>
      </g>
     </g>
    </g>
    <g id="xtick_6">
     <g id="line2d_6">
      <g>
       <use xlink:href="#macebece529" x="404.390083" y="307.584" style="stroke: #000000; stroke-width: 0.8"/>
      </g>
     </g>
     <g id="text_6">
      <!-- 3.0 -->
      <g transform="translate(396.43852 322.182437) scale(0.1 -0.1)">
       <defs>
        <path id="DejaVuSans-33" d="M 2597 2516 
Q 3050 2419 3304 2112 
Q 3559 1806 3559 1356 
Q 3559 666 3084 287 
Q 2609 -91 1734 -91 
Q 1441 -91 1130 -33 
Q 819 25 488 141 
L 488 750 
Q 750 597 1062 519 
Q 1375 441 1716 441 
Q 2309 441 2620 675 
Q 2931 909 2931 1356 
Q 2931 1769 2642 2001 
Q 2353 2234 1838 2234 
L 1294 2234 
L 1294 2753 
L 1863 2753 
Q 2328 2753 2575 2939 
Q 2822 3125 2822 3475 
Q 2822 3834 2567 4026 
Q 2313 4219 1838 4219 
Q 1578 4219 1281 4162 
Q 984 4106 628 3988 
L 628 4550 
Q 988 4650 1302 4700 
Q 1616 4750 1894 4750 
Q 2613 4750 3031 4423 
Q 3450 4097 3450 3541 
Q 3450 3153 3228 2886 
Q 3006 2619 2597 2516 
z
" transform="scale(0.015625)"/>
       </defs>
       <use xlink:href="#DejaVuSans-33"/>
       <use xlink:href="#DejaVuSans-2e" transform="translate(63.623047 0)"/>
       <use xlink:href="#DejaVuSans-30" transform="translate(95.410156 0)"/>
      </g>
     </g>
    </g>
    <g id="text_7">
     <!-- Bond Length (Å) -->
     <g transform="translate(195.580312 337.544938) scale(0.1 -0.1)">
      <defs>
       <path id="DejaVuSans-42" d="M 1259 2228 
L 1259 519 
L 2272 519 
Q 2781 519 3026 730 
Q 3272 941 3272 1375 
Q 3272 1813 3026 2020 
Q 2781 2228 2272 2228 
L 1259 2228 
z
M 1259 4147 
L 1259 2741 
L 2194 2741 
Q 2656 2741 2882 2914 
Q 3109 3088 3109 3444 
Q 3109 3797 2882 3972 
Q 2656 4147 2194 4147 
L 1259 4147 
z
M 628 4666 
L 2241 4666 
Q 2963 4666 3353 4366 
Q 3744 4066 3744 3513 
Q 3744 3084 3544 2831 
Q 3344 2578 2956 2516 
Q 3422 2416 3680 2098 
Q 3938 1781 3938 1306 
Q 3938 681 3513 340 
Q 3088 0 2303 0 
L 628 0 
L 628 4666 
z
" transform="scale(0.015625)"/>
       <path id="DejaVuSans-6f" d="M 1959 3097 
Q 1497 3097 1228 2736 
Q 959 2375 959 1747 
Q 959 1119 1226 758 
Q 1494 397 1959 397 
Q 2419 397 2687 759 
Q 2956 1122 2956 1747 
Q 2956 2369 2687 2733 
Q 2419 3097 1959 3097 
z
M 1959 3584 
Q 2709 3584 3137 3096 
Q 3566 2609 3566 1747 
Q 3566 888 3137 398 
Q 2709 -91 1959 -91 
Q 1206 -91 779 398 
Q 353 888 353 1747 
Q 353 2609 779 3096 
Q 1206 3584 1959 3584 
z
" transform="scale(0.015625)"/>
       <path id="DejaVuSans-6e" d="M 3513 2113 
L 3513 0 
L 2938 0 
L 2938 2094 
Q 2938 2591 2744 2837 
Q 2550 3084 2163 3084 
Q 1697 3084 1428 2787 
Q 1159 2491 1159 1978 
L 1159 0 
L 581 0 
L 581 3500 
L 1159 3500 
L 1159 2956 
Q 1366 3272 1645 3428 
Q 1925 3584 2291 3584 
Q 2894 3584 3203 3211 
Q 3513 2838 3513 2113 
z
" transform="scale(0.015625)"/>
       <path id="DejaVuSans-64" d="M 2906 2969 
L 2906 4863 
L 3481 4863 
L 3481 0 
L 2906 0 
L 2906 525 
Q 2725 213 2448 61 
Q 2172 -91 1784 -91 
Q 1150 -91 751 415 
Q 353 922 353 1747 
Q 353 2572 751 3078 
Q 1150 3584 1784 3584 
Q 2172 3584 2448 3432 
Q 2725 3281 2906 2969 
z
M 947 1747 
Q 947 1113 1208 752 
Q 1469 391 1925 391 
Q 2381 391 2643 752 
Q 2906 1113 2906 1747 
Q 2906 2381 2643 2742 
Q 2381 3103 1925 3103 
Q 1469 3103 1208 2742 
Q 947 2381 947 1747 
z
" transform="scale(0.015625)"/>
       <path id="DejaVuSans-20" transform="scale(0.015625)"/>
       <path id="DejaVuSans-4c" d="M 628 4666 
L 1259 4666 
L 1259 531 
L 3531 531 
L 3531 0 
L 628 0 
L 628 4666 
z
" transform="scale(0.015625)"/>
       <path id="DejaVuSans-65" d="M 3597 1894 
L 3597 1613 
L 953 1613 
Q 991 1019 1311 708 
Q 1631 397 2203 397 
Q 2534 397 2845 478 
Q 3156 559 3463 722 
L 3463 178 
Q 3153 47 2828 -22 
Q 2503 -91 2169 -91 
Q 1331 -91 842 396 
Q 353 884 353 1716 
Q 353 2575 817 3079 
Q 1281 3584 2069 3584 
Q 2775 3584 3186 3129 
Q 3597 2675 3597 1894 
z
M 3022 2063 
Q 3016 2534 2758 2815 
Q 2500 3097 2075 3097 
Q 1594 3097 1305 2825 
Q 1016 2553 972 2059 
L 3022 2063 
z
" transform="scale(0.015625)"/>
       <path id="DejaVuSans-67" d="M 2906 1791 
Q 2906 2416 2648 2759 
Q 2391 3103 1925 3103 
Q 1463 3103 1205 2759 
Q 947 2416 947 1791 
Q 947 1169 1205 825 
Q 1463 481 1925 481 
Q 2391 481 2648 825 
Q 2906 1169 2906 1791 
z
M 3481 434 
Q 3481 -459 3084 -895 
Q 2688 -1331 1869 -1331 
Q 1566 -1331 1297 -1286 
Q 1028 -1241 775 -1147 
L 775 -588 
Q 1028 -725 1275 -790 
Q 1522 -856 1778 -856 
Q 2344 -856 2625 -561 
Q 2906 -266 2906 331 
L 2906 616 
Q 2728 306 2450 153 
Q 2172 0 1784 0 
Q 1141 0 747 490 
Q 353 981 353 1791 
Q 353 2603 747 3093 
Q 1141 3584 1784 3584 
Q 2172 3584 2450 3431 
Q 2728 3278 2906 2969 
L 2906 3500 
L 3481 3500 
L 3481 434 
z
" transform="scale(0.015625)"/>
       <path id="DejaVuSans-74" d="M 1172 4494 
L 1172 3500 
L 2356 3500 
L 2356 3053 
L 1172 3053 
L 1172 1153 
Q 1172 725 1289 603 
Q 1406 481 1766 481 
L 2356 481 
L 2356 0 
L 1766 0 
Q 1100 0 847 248 
Q 594 497 594 1153 
L 594 3053 
L 172 3053 
L 172 3500 
L 594 3500 
L 594 4494 
L 1172 4494 
z
" transform="scale(0.015625)"/>
       <path id="DejaVuSans-68" d="M 3513 2113 
L 3513 0 
L 2938 0 
L 2938 2094 
Q 2938 2591 2744 2837 
Q 2550 3084 2163 3084 
Q 1697 3084 1428 2787 
Q 1159 2491 1159 1978 
L 1159 0 
L 581 0 
L 581 4863 
L 1159 4863 
L 1159 2956 
Q 1366 3272 1645 3428 
Q 1925 3584 2291 3584 
Q 2894 3584 3203 3211 
Q 3513 2838 3513 2113 
z
" transform="scale(0.015625)"/>
       <path id="DejaVuSans-28" d="M 1984 4856 
Q 1566 4138 1362 3434 
Q 1159 2731 1159 2009 
Q 1159 1288 1364 580 
Q 1569 -128 1984 -844 
L 1484 -844 
Q 1016 -109 783 600 
Q 550 1309 550 2009 
Q 550 2706 781 3412 
Q 1013 4119 1484 4856 
L 1984 4856 
z
" transform="scale(0.015625)"/>
       <path id="DejaVuSans-c5" d="M 2663 5081 
Q 2663 5278 2523 5417 
Q 2384 5556 2188 5556 
Q 1988 5556 1852 5420 
Q 1716 5284 1716 5081 
Q 1716 4884 1853 4746 
Q 1991 4609 2188 4609 
Q 2384 4609 2523 4746 
Q 2663 4884 2663 5081 
z
M 2188 4044 
L 1338 1722 
L 3041 1722 
L 2188 4044 
z
M 1716 4366 
Q 1525 4494 1428 4673 
Q 1331 4853 1331 5081 
Q 1331 5441 1579 5691 
Q 1828 5941 2188 5941 
Q 2544 5941 2795 5689 
Q 3047 5438 3047 5081 
Q 3047 4863 2948 4678 
Q 2850 4494 2663 4366 
L 4325 0 
L 3669 0 
L 3244 1197 
L 1141 1197 
L 716 0 
L 50 0 
L 1716 4366 
z
" transform="scale(0.015625)"/>
       <path id="DejaVuSans-29" d="M 513 4856 
L 1013 4856 
Q 1481 4119 1714 3412 
Q 1947 2706 1947 2009 
Q 1947 1309 1714 600 
Q 1481 -109 1013 -844 
L 513 -844 
Q 928 -128 1133 580 
Q 1338 1288 1338 2009 
Q 1338 2731 1133 3434 
Q 928 4138 513 4856 
z
" transform="scale(0.015625)"/>
      </defs>
      <use xlink:href="#DejaVuSans-42"/>
      <use xlink:href="#DejaVuSans-6f" transform="translate(68.603516 0)"/>
      <use xlink:href="#DejaVuSans-6e" transform="translate(129.785156 0)"/>
      <use xlink:href="#DejaVuSans-64" transform="translate(193.164062 0)"/>
      <use xlink:href="#DejaVuSans-20" transform="translate(256.640625 0)"/>
      <use xlink:href="#DejaVuSans-4c" transform="translate(288.427734 0)"/>
      <use xlink:href="#DejaVuSans-65" transform="translate(342.390625 0)"/>
      <use xlink:href="#DejaVuSans-6e" transform="translate(403.914062 0)"/>
      <use xlink:href="#DejaVuSans-67" transform="translate(467.292969 0)"/>
      <use xlink:href="#DejaVuSans-74" transform="translate(530.769531 0)"/>
      <use xlink:href="#DejaVuSans-68" transform="translate(569.978516 0)"/>
      <use xlink:href="#DejaVuSans-20" transform="translate(633.357422 0)"/>
      <use xlink:href="#DejaVuSans-28" transform="translate(665.144531 0)"/>
      <use xlink:href="#DejaVuSans-c5" transform="translate(704.158203 0)"/>
      <use xlink:href="#DejaVuSans-29" transform="translate(772.566406 0)"/>
     </g>
    </g>
   </g>
   <g id="matplotlib.axis_2">
    <g id="ytick_1">
     <g id="line2d_7">
      <defs>
       <path id="m87f64d10c1" d="M 0 0 
L -3.5 0 
" style="stroke: #000000; stroke-width: 0.8"/>
      </defs>
      <g>
       <use xlink:href="#m87f64d10c1" x="57.6" y="297.075512" style="stroke: #000000; stroke-width: 0.8"/>
      </g>
     </g>
     <g id="text_8">
      <!-- −3 -->
      <g transform="translate(35.857813 300.874731) scale(0.1 -0.1)">
       <defs>
        <path id="DejaVuSans-2212" d="M 678 2272 
L 4684 2272 
L 4684 1741 
L 678 1741 
L 678 2272 
z
" transform="scale(0.015625)"/>
       </defs>
       <use xlink:href="#DejaVuSans-2212"/>
       <use xlink:href="#DejaVuSans-33" transform="translate(83.789062 0)"/>
      </g>
     </g>
    </g>
    <g id="ytick_2">
     <g id="line2d_8">
      <g>
       <use xlink:href="#m87f64d10c1" x="57.6" y="259.963569" style="stroke: #000000; stroke-width: 0.8"/>
      </g>
     </g>
     <g id="text_9">
      <!-- −2 -->
      <g transform="translate(35.857813 263.762787) scale(0.1 -0.1)">
       <use xlink:href="#DejaVuSans-2212"/>
       <use xlink:href="#DejaVuSans-32" transform="translate(83.789062 0)"/>
      </g>
     </g>
    </g>
    <g id="ytick_3">
     <g id="line2d_9">
      <g>
       <use xlink:href="#m87f64d10c1" x="57.6" y="222.851625" style="stroke: #000000; stroke-width: 0.8"/>
      </g>
     </g>
     <g id="text_10">
      <!-- −1 -->
      <g transform="translate(35.857813 226.650844) scale(0.1 -0.1)">
       <use xlink:href="#DejaVuSans-2212"/>
       <use xlink:href="#DejaVuSans-31" transform="translate(83.789062 0)"/>
      </g>
     </g>
    </g>
    <g id="ytick_4">
     <g id="line2d_10">
      <g>
       <use xlink:href="#m87f64d10c1" x="57.6" y="185.739682" style="stroke: #000000; stroke-width: 0.8"/>
      </g>
     </g>
     <g id="text_11">
      <!-- 0 -->
      <g transform="translate(44.2375 189.5389) scale(0.1 -0.1)">
       <use xlink:href="#DejaVuSans-30"/>
      </g>
     </g>
    </g>
    <g id="ytick_5">
     <g id="line2d_11">
      <g>
       <use xlink:href="#m87f64d10c1" x="57.6" y="148.627738" style="stroke: #000000; stroke-width: 0.8"/>
      </g>
     </g>
     <g id="text_12">
      <!-- 1 -->
      <g transform="translate(44.2375 152.426957) scale(0.1 -0.1)">
       <use xlink:href="#DejaVuSans-31"/>
      </g>
     </g>
    </g>
    <g id="ytick_6">
     <g id="line2d_12">
      <g>
       <use xlink:href="#m87f64d10c1" x="57.6" y="111.515795" style="stroke: #000000; stroke-width: 0.8"/>
      </g>
     </g>
     <g id="text_13">
      <!-- 2 -->
      <g transform="translate(44.2375 115.315013) scale(0.1 -0.1)">
       <use xlink:href="#DejaVuSans-32"/>
      </g>
     </g>
    </g>
    <g id="ytick_7">
     <g id="line2d_13">
      <g>
       <use xlink:href="#m87f64d10c1" x="57.6" y="74.403851" style="stroke: #000000; stroke-width: 0.8"/>
      </g>
     </g>
     <g id="text_14">
      <!-- 3 -->
      <g transform="translate(44.2375 78.20307) scale(0.1 -0.1)">
       <use xlink:href="#DejaVuSans-33"/>
      </g>
     </g>
    </g>
    <g id="text_15">
     <!-- Energy (Ha) -->
     <g transform="translate(29.778125 204.349094) rotate(-90) scale(0.1 -0.1)">
      <defs>
       <path id="DejaVuSans-45" d="M 628 4666 
L 3578 4666 
L 3578 4134 
L 1259 4134 
L 1259 2753 
L 3481 2753 
L 3481 2222 
L 1259 2222 
L 1259 531 
L 3634 531 
L 3634 0 
L 628 0 
L 628 4666 
z
" transform="scale(0.015625)"/>
       <path id="DejaVuSans-72" d="M 2631 2963 
Q 2534 3019 2420 3045 
Q 2306 3072 2169 3072 
Q 1681 3072 1420 2755 
Q 1159 2438 1159 1844 
L 1159 0 
L 581 0 
L 581 3500 
L 1159 3500 
L 1159 2956 
Q 1341 3275 1631 3429 
Q 1922 3584 2338 3584 
Q 2397 3584 2469 3576 
Q 2541 3569 2628 3553 
L 2631 2963 
z
" transform="scale(0.015625)"/>
       <path id="DejaVuSans-79" d="M 2059 -325 
Q 1816 -950 1584 -1140 
Q 1353 -1331 966 -1331 
L 506 -1331 
L 506 -850 
L 844 -850 
Q 1081 -850 1212 -737 
Q 1344 -625 1503 -206 
L 1606 56 
L 191 3500 
L 800 3500 
L 1894 763 
L 2988 3500 
L 3597 3500 
L 2059 -325 
z
" transform="scale(0.015625)"/>
       <path id="DejaVuSans-48" d="M 628 4666 
L 1259 4666 
L 1259 2753 
L 3553 2753 
L 3553 4666 
L 4184 4666 
L 4184 0 
L 3553 0 
L 3553 2222 
L 1259 2222 
L 1259 0 
L 628 0 
L 628 4666 
z
" transform="scale(0.015625)"/>
       <path id="DejaVuSans-61" d="M 2194 1759 
Q 1497 1759 1228 1600 
Q 959 1441 959 1056 
Q 959 750 1161 570 
Q 1363 391 1709 391 
Q 2188 391 2477 730 
Q 2766 1069 2766 1631 
L 2766 1759 
L 2194 1759 
z
M 3341 1997 
L 3341 0 
L 2766 0 
L 2766 531 
Q 2569 213 2275 61 
Q 1981 -91 1556 -91 
Q 1019 -91 701 211 
Q 384 513 384 1019 
Q 384 1609 779 1909 
Q 1175 2209 1959 2209 
L 2766 2209 
L 2766 2266 
Q 2766 2663 2505 2880 
Q 2244 3097 1772 3097 
Q 1472 3097 1187 3025 
Q 903 2953 641 2809 
L 641 3341 
Q 956 3463 1253 3523 
Q 1550 3584 1831 3584 
Q 2591 3584 2966 3190 
Q 3341 2797 3341 1997 
z
" transform="scale(0.015625)"/>
      </defs>
      <use xlink:href="#DejaVuSans-45"/>
      <use xlink:href="#DejaVuSans-6e" transform="translate(63.183594 0)"/>
      <use xlink:href="#DejaVuSans-65" transform="translate(126.5625 0)"/>
      <use xlink:href="#DejaVuSans-72" transform="translate(188.085938 0)"/>
      <use xlink:href="#DejaVuSans-67" transform="translate(227.449219 0)"/>
      <use xlink:href="#DejaVuSans-79" transform="translate(290.925781 0)"/>
      <use xlink:href="#DejaVuSans-20" transform="translate(350.105469 0)"/>
      <use xlink:href="#DejaVuSans-28" transform="translate(381.892578 0)"/>
      <use xlink:href="#DejaVuSans-48" transform="translate(420.90625 0)"/>
      <use xlink:href="#DejaVuSans-61" transform="translate(496.101562 0)"/>
      <use xlink:href="#DejaVuSans-29" transform="translate(557.380859 0)"/>
     </g>
    </g>
   </g>
   <g id="line2d_14">
    <path d="M 73.832727 53.568 
L 79.735537 128.256668 
L 85.638347 174.162857 
L 91.541157 203.897758 
L 97.443967 223.84585 
L 103.346777 237.543849 
L 109.249587 247.090065 
L 115.152397 253.790366 
L 121.055207 258.486278 
L 126.958017 261.738639 
L 132.860826 263.934432 
L 138.763636 265.348907 
L 144.666446 266.182066 
L 150.569256 266.581134 
L 156.472066 266.655469 
L 162.374876 266.487122 
L 168.277686 266.13853 
L 174.180496 265.658064 
L 180.083306 265.083923 
L 185.986116 264.446787 
L 191.888926 263.771569 
L 197.791736 263.078583 
L 203.694545 262.384342 
L 209.597355 261.702128 
L 215.500165 261.042431 
L 221.402975 260.413312 
L 227.305785 259.8207 
L 233.208595 259.268667 
L 239.111405 258.759669 
L 245.014215 258.294771 
L 250.917025 257.873871 
L 256.819835 257.495902 
L 262.722645 257.159043 
L 268.625455 256.860903 
L 274.528264 256.598705 
L 280.431074 256.369442 
L 286.333884 256.17001 
L 292.236694 255.997325 
L 298.139504 255.848406 
L 304.042314 255.720437 
L 309.945124 255.610807 
L 315.847934 255.517137 
L 321.750744 255.437286 
L 327.653554 255.369349 
L 333.556364 255.311645 
L 339.459174 255.262706 
L 345.361983 255.221256 
L 351.264793 255.18619 
L 357.167603 255.15656 
L 363.070413 255.131551 
L 368.973223 255.110465 
L 374.876033 255.092707 
L 380.778843 255.077771 
L 386.681653 255.065222 
L 392.584463 255.054694 
L 398.487273 255.045873 
" clip-path="url(#p506d3b6a5d)" style="fill: none; stroke: #377eb8; stroke-opacity: 0.6; stroke-width: 1.5; stroke-linecap: square"/>
    <defs>
     <path id="me7c873b26e" d="M 0 3 
L 0 -3 
" style="stroke: #377eb8; stroke-opacity: 0.6"/>
    </defs>
    <g clip-path="url(#p506d3b6a5d)">
     <use xlink:href="#me7c873b26e" x="73.832727" y="53.568" style="fill: #377eb8; fill-opacity: 0.6; stroke: #377eb8; stroke-opacity: 0.6"/>
     <use xlink:href="#me7c873b26e" x="79.735537" y="128.256668" style="fill: #377eb8; fill-opacity: 0.6; stroke: #377eb8; stroke-opacity: 0.6"/>
     <use xlink:href="#me7c873b26e" x="85.638347" y="174.162857" style="fill: #377eb8; fill-opacity: 0.6; stroke: #377eb8; stroke-opacity: 0.6"/>
     <use xlink:href="#me7c873b26e" x="91.541157" y="203.897758" style="fill: #377eb8; fill-opacity: 0.6; stroke: #377eb8; stroke-opacity: 0.6"/>
     <use xlink:href="#me7c873b26e" x="97.443967" y="223.84585" style="fill: #377eb8; fill-opacity: 0.6; stroke: #377eb8; stroke-opacity: 0.6"/>
     <use xlink:href="#me7c873b26e" x="103.346777" y="237.543849" style="fill: #377eb8; fill-opacity: 0.6; stroke: #377eb8; stroke-opacity: 0.6"/>
     <use xlink:href="#me7c873b26e" x="109.249587" y="247.090065" style="fill: #377eb8; fill-opacity: 0.6; stroke: #377eb8; stroke-opacity: 0.6"/>
     <use xlink:href="#me7c873b26e" x="115.152397" y="253.790366" style="fill: #377eb8; fill-opacity: 0.6; stroke: #377eb8; stroke-opacity: 0.6"/>
     <use xlink:href="#me7c873b26e" x="121.055207" y="258.486278" style="fill: #377eb8; fill-opacity: 0.6; stroke: #377eb8; stroke-opacity: 0.6"/>
     <use xlink:href="#me7c873b26e" x="126.958017" y="261.738639" style="fill: #377eb8; fill-opacity: 0.6; stroke: #377eb8; stroke-opacity: 0.6"/>
     <use xlink:href="#me7c873b26e" x="132.860826" y="263.934432" style="fill: #377eb8; fill-opacity: 0.6; stroke: #377eb8; stroke-opacity: 0.6"/>
     <use xlink:href="#me7c873b26e" x="138.763636" y="265.348907" style="fill: #377eb8; fill-opacity: 0.6; stroke: #377eb8; stroke-opacity: 0.6"/>
     <use xlink:href="#me7c873b26e" x="144.666446" y="266.182066" style="fill: #377eb8; fill-opacity: 0.6; stroke: #377eb8; stroke-opacity: 0.6"/>
     <use xlink:href="#me7c873b26e" x="150.569256" y="266.581134" style="fill: #377eb8; fill-opacity: 0.6; stroke: #377eb8; stroke-opacity: 0.6"/>
     <use xlink:href="#me7c873b26e" x="156.472066" y="266.655469" style="fill: #377eb8; fill-opacity: 0.6; stroke: #377eb8; stroke-opacity: 0.6"/>
     <use xlink:href="#me7c873b26e" x="162.374876" y="266.487122" style="fill: #377eb8; fill-opacity: 0.6; stroke: #377eb8; stroke-opacity: 0.6"/>
     <use xlink:href="#me7c873b26e" x="168.277686" y="266.13853" style="fill: #377eb8; fill-opacity: 0.6; stroke: #377eb8; stroke-opacity: 0.6"/>
     <use xlink:href="#me7c873b26e" x="174.180496" y="265.658064" style="fill: #377eb8; fill-opacity: 0.6; stroke: #377eb8; stroke-opacity: 0.6"/>
     <use xlink:href="#me7c873b26e" x="180.083306" y="265.083923" style="fill: #377eb8; fill-opacity: 0.6; stroke: #377eb8; stroke-opacity: 0.6"/>
     <use xlink:href="#me7c873b26e" x="185.986116" y="264.446787" style="fill: #377eb8; fill-opacity: 0.6; stroke: #377eb8; stroke-opacity: 0.6"/>
     <use xlink:href="#me7c873b26e" x="191.888926" y="263.771569" style="fill: #377eb8; fill-opacity: 0.6; stroke: #377eb8; stroke-opacity: 0.6"/>
     <use xlink:href="#me7c873b26e" x="197.791736" y="263.078583" style="fill: #377eb8; fill-opacity: 0.6; stroke: #377eb8; stroke-opacity: 0.6"/>
     <use xlink:href="#me7c873b26e" x="203.694545" y="262.384342" style="fill: #377eb8; fill-opacity: 0.6; stroke: #377eb8; stroke-opacity: 0.6"/>
     <use xlink:href="#me7c873b26e" x="209.597355" y="261.702128" style="fill: #377eb8; fill-opacity: 0.6; stroke: #377eb8; stroke-opacity: 0.6"/>
     <use xlink:href="#me7c873b26e" x="215.500165" y="261.042431" style="fill: #377eb8; fill-opacity: 0.6; stroke: #377eb8; stroke-opacity: 0.6"/>
     <use xlink:href="#me7c873b26e" x="221.402975" y="260.413312" style="fill: #377eb8; fill-opacity: 0.6; stroke: #377eb8; stroke-opacity: 0.6"/>
     <use xlink:href="#me7c873b26e" x="227.305785" y="259.8207" style="fill: #377eb8; fill-opacity: 0.6; stroke: #377eb8; stroke-opacity: 0.6"/>
     <use xlink:href="#me7c873b26e" x="233.208595" y="259.268667" style="fill: #377eb8; fill-opacity: 0.6; stroke: #377eb8; stroke-opacity: 0.6"/>
     <use xlink:href="#me7c873b26e" x="239.111405" y="258.759669" style="fill: #377eb8; fill-opacity: 0.6; stroke: #377eb8; stroke-opacity: 0.6"/>
     <use xlink:href="#me7c873b26e" x="245.014215" y="258.294771" style="fill: #377eb8; fill-opacity: 0.6; stroke: #377eb8; stroke-opacity: 0.6"/>
     <use xlink:href="#me7c873b26e" x="250.917025" y="257.873871" style="fill: #377eb8; fill-opacity: 0.6; stroke: #377eb8; stroke-opacity: 0.6"/>
     <use xlink:href="#me7c873b26e" x="256.819835" y="257.495902" style="fill: #377eb8; fill-opacity: 0.6; stroke: #377eb8; stroke-opacity: 0.6"/>
     <use xlink:href="#me7c873b26e" x="262.722645" y="257.159043" style="fill: #377eb8; fill-opacity: 0.6; stroke: #377eb8; stroke-opacity: 0.6"/>
     <use xlink:href="#me7c873b26e" x="268.625455" y="256.860903" style="fill: #377eb8; fill-opacity: 0.6; stroke: #377eb8; stroke-opacity: 0.6"/>
     <use xlink:href="#me7c873b26e" x="274.528264" y="256.598705" style="fill: #377eb8; fill-opacity: 0.6; stroke: #377eb8; stroke-opacity: 0.6"/>
     <use xlink:href="#me7c873b26e" x="280.431074" y="256.369442" style="fill: #377eb8; fill-opacity: 0.6; stroke: #377eb8; stroke-opacity: 0.6"/>
     <use xlink:href="#me7c873b26e" x="286.333884" y="256.17001" style="fill: #377eb8; fill-opacity: 0.6; stroke: #377eb8; stroke-opacity: 0.6"/>
     <use xlink:href="#me7c873b26e" x="292.236694" y="255.997325" style="fill: #377eb8; fill-opacity: 0.6; stroke: #377eb8; stroke-opacity: 0.6"/>
     <use xlink:href="#me7c873b26e" x="298.139504" y="255.848406" style="fill: #377eb8; fill-opacity: 0.6; stroke: #377eb8; stroke-opacity: 0.6"/>
     <use xlink:href="#me7c873b26e" x="304.042314" y="255.720437" style="fill: #377eb8; fill-opacity: 0.6; stroke: #377eb8; stroke-opacity: 0.6"/>
     <use xlink:href="#me7c873b26e" x="309.945124" y="255.610807" style="fill: #377eb8; fill-opacity: 0.6; stroke: #377eb8; stroke-opacity: 0.6"/>
     <use xlink:href="#me7c873b26e" x="315.847934" y="255.517137" style="fill: #377eb8; fill-opacity: 0.6; stroke: #377eb8; stroke-opacity: 0.6"/>
     <use xlink:href="#me7c873b26e" x="321.750744" y="255.437286" style="fill: #377eb8; fill-opacity: 0.6; stroke: #377eb8; stroke-opacity: 0.6"/>
     <use xlink:href="#me7c873b26e" x="327.653554" y="255.369349" style="fill: #377eb8; fill-opacity: 0.6; stroke: #377eb8; stroke-opacity: 0.6"/>
     <use xlink:href="#me7c873b26e" x="333.556364" y="255.311645" style="fill: #377eb8; fill-opacity: 0.6; stroke: #377eb8; stroke-opacity: 0.6"/>
     <use xlink:href="#me7c873b26e" x="339.459174" y="255.262706" style="fill: #377eb8; fill-opacity: 0.6; stroke: #377eb8; stroke-opacity: 0.6"/>
     <use xlink:href="#me7c873b26e" x="345.361983" y="255.221256" style="fill: #377eb8; fill-opacity: 0.6; stroke: #377eb8; stroke-opacity: 0.6"/>
     <use xlink:href="#me7c873b26e" x="351.264793" y="255.18619" style="fill: #377eb8; fill-opacity: 0.6; stroke: #377eb8; stroke-opacity: 0.6"/>
     <use xlink:href="#me7c873b26e" x="357.167603" y="255.15656" style="fill: #377eb8; fill-opacity: 0.6; stroke: #377eb8; stroke-opacity: 0.6"/>
     <use xlink:href="#me7c873b26e" x="363.070413" y="255.131551" style="fill: #377eb8; fill-opacity: 0.6; stroke: #377eb8; stroke-opacity: 0.6"/>
     <use xlink:href="#me7c873b26e" x="368.973223" y="255.110465" style="fill: #377eb8; fill-opacity: 0.6; stroke: #377eb8; stroke-opacity: 0.6"/>
     <use xlink:href="#me7c873b26e" x="374.876033" y="255.092707" style="fill: #377eb8; fill-opacity: 0.6; stroke: #377eb8; stroke-opacity: 0.6"/>
     <use xlink:href="#me7c873b26e" x="380.778843" y="255.077771" style="fill: #377eb8; fill-opacity: 0.6; stroke: #377eb8; stroke-opacity: 0.6"/>
     <use xlink:href="#me7c873b26e" x="386.681653" y="255.065222" style="fill: #377eb8; fill-opacity: 0.6; stroke: #377eb8; stroke-opacity: 0.6"/>
     <use xlink:href="#me7c873b26e" x="392.584463" y="255.054694" style="fill: #377eb8; fill-opacity: 0.6; stroke: #377eb8; stroke-opacity: 0.6"/>
     <use xlink:href="#me7c873b26e" x="398.487273" y="255.045873" style="fill: #377eb8; fill-opacity: 0.6; stroke: #377eb8; stroke-opacity: 0.6"/>
    </g>
   </g>
   <g id="line2d_15">
    <path d="M 73.832727 76.424886 
L 79.735537 148.443522 
L 85.638347 199.777269 
L 91.541157 226.333879 
L 97.443967 240.694665 
L 103.346777 255.364892 
L 109.249587 264.504652 
L 115.152397 271.36862 
L 121.055207 274.666434 
L 126.958017 280.874967 
L 132.860826 282.727464 
L 138.763636 281.732842 
L 144.666446 282.267098 
L 150.569256 282.46545 
L 156.472066 282.542504 
L 162.374876 283.181706 
L 168.277686 282.641569 
L 174.180496 281.718239 
L 180.083306 280.647064 
L 185.986116 279.483413 
L 191.888926 278.531643 
L 197.791736 277.649547 
L 203.694545 277.035398 
L 209.597355 275.63998 
L 215.500165 274.370167 
L 221.402975 273.499215 
L 227.305785 272.617789 
L 233.208595 271.728188 
L 239.111405 270.894465 
L 245.014215 269.969817 
L 250.917025 269.237946 
L 256.819835 268.46858 
L 262.722645 267.68678 
L 268.625455 266.942236 
L 274.528264 266.135378 
L 280.431074 265.427716 
L 286.333884 264.704843 
L 292.236694 264.198893 
L 298.139504 263.529597 
L 304.042314 262.962341 
L 309.945124 262.42163 
L 315.847934 261.908711 
L 321.750744 261.424248 
L 327.653554 260.964184 
L 333.556364 260.533912 
L 339.459174 260.123419 
L 345.361983 259.748031 
L 351.264793 259.395078 
L 357.167603 259.064029 
L 363.070413 258.762886 
L 368.973223 258.470329 
L 374.876033 258.198736 
L 380.778843 257.947028 
L 386.681653 257.709181 
L 392.584463 257.487949 
L 398.487273 257.270371 
" clip-path="url(#p506d3b6a5d)" style="fill: none; stroke: #f781bf; stroke-opacity: 0.6; stroke-width: 1.5; stroke-linecap: square"/>
    <defs>
     <path id="m7545f7fd5a" d="M 0 3 
L 0 -3 
" style="stroke: #f781bf; stroke-opacity: 0.6"/>
    </defs>
    <g clip-path="url(#p506d3b6a5d)">
     <use xlink:href="#m7545f7fd5a" x="73.832727" y="76.424886" style="fill: #f781bf; fill-opacity: 0.6; stroke: #f781bf; stroke-opacity: 0.6"/>
     <use xlink:href="#m7545f7fd5a" x="79.735537" y="148.443522" style="fill: #f781bf; fill-opacity: 0.6; stroke: #f781bf; stroke-opacity: 0.6"/>
     <use xlink:href="#m7545f7fd5a" x="85.638347" y="199.777269" style="fill: #f781bf; fill-opacity: 0.6; stroke: #f781bf; stroke-opacity: 0.6"/>
     <use xlink:href="#m7545f7fd5a" x="91.541157" y="226.333879" style="fill: #f781bf; fill-opacity: 0.6; stroke: #f781bf; stroke-opacity: 0.6"/>
     <use xlink:href="#m7545f7fd5a" x="97.443967" y="240.694665" style="fill: #f781bf; fill-opacity: 0.6; stroke: #f781bf; stroke-opacity: 0.6"/>
     <use xlink:href="#m7545f7fd5a" x="103.346777" y="255.364892" style="fill: #f781bf; fill-opacity: 0.6; stroke: #f781bf; stroke-opacity: 0.6"/>
     <use xlink:href="#m7545f7fd5a" x="109.249587" y="264.504652" style="fill: #f781bf; fill-opacity: 0.6; stroke: #f781bf; stroke-opacity: 0.6"/>
     <use xlink:href="#m7545f7fd5a" x="115.152397" y="271.36862" style="fill: #f781bf; fill-opacity: 0.6; stroke: #f781bf; stroke-opacity: 0.6"/>
     <use xlink:href="#m7545f7fd5a" x="121.055207" y="274.666434" style="fill: #f781bf; fill-opacity: 0.6; stroke: #f781bf; stroke-opacity: 0.6"/>
     <use xlink:href="#m7545f7fd5a" x="126.958017" y="280.874967" style="fill: #f781bf; fill-opacity: 0.6; stroke: #f781bf; stroke-opacity: 0.6"/>
     <use xlink:href="#m7545f7fd5a" x="132.860826" y="282.727464" style="fill: #f781bf; fill-opacity: 0.6; stroke: #f781bf; stroke-opacity: 0.6"/>
     <use xlink:href="#m7545f7fd5a" x="138.763636" y="281.732842" style="fill: #f781bf; fill-opacity: 0.6; stroke: #f781bf; stroke-opacity: 0.6"/>
     <use xlink:href="#m7545f7fd5a" x="144.666446" y="282.267098" style="fill: #f781bf; fill-opacity: 0.6; stroke: #f781bf; stroke-opacity: 0.6"/>
     <use xlink:href="#m7545f7fd5a" x="150.569256" y="282.46545" style="fill: #f781bf; fill-opacity: 0.6; stroke: #f781bf; stroke-opacity: 0.6"/>
     <use xlink:href="#m7545f7fd5a" x="156.472066" y="282.542504" style="fill: #f781bf; fill-opacity: 0.6; stroke: #f781bf; stroke-opacity: 0.6"/>
     <use xlink:href="#m7545f7fd5a" x="162.374876" y="283.181706" style="fill: #f781bf; fill-opacity: 0.6; stroke: #f781bf; stroke-opacity: 0.6"/>
     <use xlink:href="#m7545f7fd5a" x="168.277686" y="282.641569" style="fill: #f781bf; fill-opacity: 0.6; stroke: #f781bf; stroke-opacity: 0.6"/>
     <use xlink:href="#m7545f7fd5a" x="174.180496" y="281.718239" style="fill: #f781bf; fill-opacity: 0.6; stroke: #f781bf; stroke-opacity: 0.6"/>
     <use xlink:href="#m7545f7fd5a" x="180.083306" y="280.647064" style="fill: #f781bf; fill-opacity: 0.6; stroke: #f781bf; stroke-opacity: 0.6"/>
     <use xlink:href="#m7545f7fd5a" x="185.986116" y="279.483413" style="fill: #f781bf; fill-opacity: 0.6; stroke: #f781bf; stroke-opacity: 0.6"/>
     <use xlink:href="#m7545f7fd5a" x="191.888926" y="278.531643" style="fill: #f781bf; fill-opacity: 0.6; stroke: #f781bf; stroke-opacity: 0.6"/>
     <use xlink:href="#m7545f7fd5a" x="197.791736" y="277.649547" style="fill: #f781bf; fill-opacity: 0.6; stroke: #f781bf; stroke-opacity: 0.6"/>
     <use xlink:href="#m7545f7fd5a" x="203.694545" y="277.035398" style="fill: #f781bf; fill-opacity: 0.6; stroke: #f781bf; stroke-opacity: 0.6"/>
     <use xlink:href="#m7545f7fd5a" x="209.597355" y="275.63998" style="fill: #f781bf; fill-opacity: 0.6; stroke: #f781bf; stroke-opacity: 0.6"/>
     <use xlink:href="#m7545f7fd5a" x="215.500165" y="274.370167" style="fill: #f781bf; fill-opacity: 0.6; stroke: #f781bf; stroke-opacity: 0.6"/>
     <use xlink:href="#m7545f7fd5a" x="221.402975" y="273.499215" style="fill: #f781bf; fill-opacity: 0.6; stroke: #f781bf; stroke-opacity: 0.6"/>
     <use xlink:href="#m7545f7fd5a" x="227.305785" y="272.617789" style="fill: #f781bf; fill-opacity: 0.6; stroke: #f781bf; stroke-opacity: 0.6"/>
     <use xlink:href="#m7545f7fd5a" x="233.208595" y="271.728188" style="fill: #f781bf; fill-opacity: 0.6; stroke: #f781bf; stroke-opacity: 0.6"/>
     <use xlink:href="#m7545f7fd5a" x="239.111405" y="270.894465" style="fill: #f781bf; fill-opacity: 0.6; stroke: #f781bf; stroke-opacity: 0.6"/>
     <use xlink:href="#m7545f7fd5a" x="245.014215" y="269.969817" style="fill: #f781bf; fill-opacity: 0.6; stroke: #f781bf; stroke-opacity: 0.6"/>
     <use xlink:href="#m7545f7fd5a" x="250.917025" y="269.237946" style="fill: #f781bf; fill-opacity: 0.6; stroke: #f781bf; stroke-opacity: 0.6"/>
     <use xlink:href="#m7545f7fd5a" x="256.819835" y="268.46858" style="fill: #f781bf; fill-opacity: 0.6; stroke: #f781bf; stroke-opacity: 0.6"/>
     <use xlink:href="#m7545f7fd5a" x="262.722645" y="267.68678" style="fill: #f781bf; fill-opacity: 0.6; stroke: #f781bf; stroke-opacity: 0.6"/>
     <use xlink:href="#m7545f7fd5a" x="268.625455" y="266.942236" style="fill: #f781bf; fill-opacity: 0.6; stroke: #f781bf; stroke-opacity: 0.6"/>
     <use xlink:href="#m7545f7fd5a" x="274.528264" y="266.135378" style="fill: #f781bf; fill-opacity: 0.6; stroke: #f781bf; stroke-opacity: 0.6"/>
     <use xlink:href="#m7545f7fd5a" x="280.431074" y="265.427716" style="fill: #f781bf; fill-opacity: 0.6; stroke: #f781bf; stroke-opacity: 0.6"/>
     <use xlink:href="#m7545f7fd5a" x="286.333884" y="264.704843" style="fill: #f781bf; fill-opacity: 0.6; stroke: #f781bf; stroke-opacity: 0.6"/>
     <use xlink:href="#m7545f7fd5a" x="292.236694" y="264.198893" style="fill: #f781bf; fill-opacity: 0.6; stroke: #f781bf; stroke-opacity: 0.6"/>
     <use xlink:href="#m7545f7fd5a" x="298.139504" y="263.529597" style="fill: #f781bf; fill-opacity: 0.6; stroke: #f781bf; stroke-opacity: 0.6"/>
     <use xlink:href="#m7545f7fd5a" x="304.042314" y="262.962341" style="fill: #f781bf; fill-opacity: 0.6; stroke: #f781bf; stroke-opacity: 0.6"/>
     <use xlink:href="#m7545f7fd5a" x="309.945124" y="262.42163" style="fill: #f781bf; fill-opacity: 0.6; stroke: #f781bf; stroke-opacity: 0.6"/>
     <use xlink:href="#m7545f7fd5a" x="315.847934" y="261.908711" style="fill: #f781bf; fill-opacity: 0.6; stroke: #f781bf; stroke-opacity: 0.6"/>
     <use xlink:href="#m7545f7fd5a" x="321.750744" y="261.424248" style="fill: #f781bf; fill-opacity: 0.6; stroke: #f781bf; stroke-opacity: 0.6"/>
     <use xlink:href="#m7545f7fd5a" x="327.653554" y="260.964184" style="fill: #f781bf; fill-opacity: 0.6; stroke: #f781bf; stroke-opacity: 0.6"/>
     <use xlink:href="#m7545f7fd5a" x="333.556364" y="260.533912" style="fill: #f781bf; fill-opacity: 0.6; stroke: #f781bf; stroke-opacity: 0.6"/>
     <use xlink:href="#m7545f7fd5a" x="339.459174" y="260.123419" style="fill: #f781bf; fill-opacity: 0.6; stroke: #f781bf; stroke-opacity: 0.6"/>
     <use xlink:href="#m7545f7fd5a" x="345.361983" y="259.748031" style="fill: #f781bf; fill-opacity: 0.6; stroke: #f781bf; stroke-opacity: 0.6"/>
     <use xlink:href="#m7545f7fd5a" x="351.264793" y="259.395078" style="fill: #f781bf; fill-opacity: 0.6; stroke: #f781bf; stroke-opacity: 0.6"/>
     <use xlink:href="#m7545f7fd5a" x="357.167603" y="259.064029" style="fill: #f781bf; fill-opacity: 0.6; stroke: #f781bf; stroke-opacity: 0.6"/>
     <use xlink:href="#m7545f7fd5a" x="363.070413" y="258.762886" style="fill: #f781bf; fill-opacity: 0.6; stroke: #f781bf; stroke-opacity: 0.6"/>
     <use xlink:href="#m7545f7fd5a" x="368.973223" y="258.470329" style="fill: #f781bf; fill-opacity: 0.6; stroke: #f781bf; stroke-opacity: 0.6"/>
     <use xlink:href="#m7545f7fd5a" x="374.876033" y="258.198736" style="fill: #f781bf; fill-opacity: 0.6; stroke: #f781bf; stroke-opacity: 0.6"/>
     <use xlink:href="#m7545f7fd5a" x="380.778843" y="257.947028" style="fill: #f781bf; fill-opacity: 0.6; stroke: #f781bf; stroke-opacity: 0.6"/>
     <use xlink:href="#m7545f7fd5a" x="386.681653" y="257.709181" style="fill: #f781bf; fill-opacity: 0.6; stroke: #f781bf; stroke-opacity: 0.6"/>
     <use xlink:href="#m7545f7fd5a" x="392.584463" y="257.487949" style="fill: #f781bf; fill-opacity: 0.6; stroke: #f781bf; stroke-opacity: 0.6"/>
     <use xlink:href="#m7545f7fd5a" x="398.487273" y="257.270371" style="fill: #f781bf; fill-opacity: 0.6; stroke: #f781bf; stroke-opacity: 0.6"/>
    </g>
   </g>
   <g id="line2d_16">
    <path d="M 73.832727 136.886478 
L 79.735537 205.085159 
L 85.638347 243.613183 
L 91.541157 266.378313 
L 97.443967 279.411329 
L 103.346777 287.505365 
L 109.249587 291.718257 
L 115.152397 294.108303 
L 121.055207 294.978264 
L 126.958017 295.488 
L 132.860826 294.242099 
L 138.763636 293.275281 
L 144.666446 292.530947 
L 150.569256 291.511345 
L 156.472066 290.336903 
L 162.374876 289.150328 
L 168.277686 288.542909 
L 174.180496 287.89363 
L 180.083306 286.826931 
L 185.986116 285.885638 
L 191.888926 284.920728 
L 197.791736 283.93712 
L 203.694545 283.096487 
L 209.597355 281.857175 
L 215.500165 280.687749 
L 221.402975 279.886625 
L 227.305785 279.11172 
L 233.208595 278.340254 
L 239.111405 277.583046 
L 245.014215 276.818869 
L 250.917025 276.042627 
L 256.819835 275.383621 
L 262.722645 274.686561 
L 268.625455 274.029945 
L 274.528264 273.398572 
L 280.431074 272.787156 
L 286.333884 272.165779 
L 292.236694 271.628898 
L 298.139504 271.084638 
L 304.042314 270.59412 
L 309.945124 270.12446 
L 315.847934 269.677649 
L 321.750744 269.242306 
L 327.653554 268.833612 
L 333.556364 268.450424 
L 339.459174 268.069745 
L 345.361983 267.712924 
L 351.264793 267.370385 
L 357.167603 267.041633 
L 363.070413 266.725795 
L 368.973223 266.422597 
L 374.876033 266.132327 
L 380.778843 265.851267 
L 386.681653 265.581545 
L 392.584463 265.323569 
L 398.487273 265.075627 
" clip-path="url(#p506d3b6a5d)" style="fill: none; stroke: #ff7f00; stroke-opacity: 0.6; stroke-width: 1.5; stroke-linecap: square"/>
    <defs>
     <path id="m15ff148cd3" d="M 0 3 
L 0 -3 
" style="stroke: #ff7f00; stroke-opacity: 0.6"/>
    </defs>
    <g clip-path="url(#p506d3b6a5d)">
     <use xlink:href="#m15ff148cd3" x="73.832727" y="136.886478" style="fill: #ff7f00; fill-opacity: 0.6; stroke: #ff7f00; stroke-opacity: 0.6"/>
     <use xlink:href="#m15ff148cd3" x="79.735537" y="205.085159" style="fill: #ff7f00; fill-opacity: 0.6; stroke: #ff7f00; stroke-opacity: 0.6"/>
     <use xlink:href="#m15ff148cd3" x="85.638347" y="243.613183" style="fill: #ff7f00; fill-opacity: 0.6; stroke: #ff7f00; stroke-opacity: 0.6"/>
     <use xlink:href="#m15ff148cd3" x="91.541157" y="266.378313" style="fill: #ff7f00; fill-opacity: 0.6; stroke: #ff7f00; stroke-opacity: 0.6"/>
     <use xlink:href="#m15ff148cd3" x="97.443967" y="279.411329" style="fill: #ff7f00; fill-opacity: 0.6; stroke: #ff7f00; stroke-opacity: 0.6"/>
     <use xlink:href="#m15ff148cd3" x="103.346777" y="287.505365" style="fill: #ff7f00; fill-opacity: 0.6; stroke: #ff7f00; stroke-opacity: 0.6"/>
     <use xlink:href="#m15ff148cd3" x="109.249587" y="291.718257" style="fill: #ff7f00; fill-opacity: 0.6; stroke: #ff7f00; stroke-opacity: 0.6"/>
     <use xlink:href="#m15ff148cd3" x="115.152397" y="294.108303" style="fill: #ff7f00; fill-opacity: 0.6; stroke: #ff7f00; stroke-opacity: 0.6"/>
     <use xlink:href="#m15ff148cd3" x="121.055207" y="294.978264" style="fill: #ff7f00; fill-opacity: 0.6; stroke: #ff7f00; stroke-opacity: 0.6"/>
     <use xlink:href="#m15ff148cd3" x="126.958017" y="295.488" style="fill: #ff7f00; fill-opacity: 0.6; stroke: #ff7f00; stroke-opacity: 0.6"/>
     <use xlink:href="#m15ff148cd3" x="132.860826" y="294.242099" style="fill: #ff7f00; fill-opacity: 0.6; stroke: #ff7f00; stroke-opacity: 0.6"/>
     <use xlink:href="#m15ff148cd3" x="138.763636" y="293.275281" style="fill: #ff7f00; fill-opacity: 0.6; stroke: #ff7f00; stroke-opacity: 0.6"/>
     <use xlink:href="#m15ff148cd3" x="144.666446" y="292.530947" style="fill: #ff7f00; fill-opacity: 0.6; stroke: #ff7f00; stroke-opacity: 0.6"/>
     <use xlink:href="#m15ff148cd3" x="150.569256" y="291.511345" style="fill: #ff7f00; fill-opacity: 0.6; stroke: #ff7f00; stroke-opacity: 0.6"/>
     <use xlink:href="#m15ff148cd3" x="156.472066" y="290.336903" style="fill: #ff7f00; fill-opacity: 0.6; stroke: #ff7f00; stroke-opacity: 0.6"/>
     <use xlink:href="#m15ff148cd3" x="162.374876" y="289.150328" style="fill: #ff7f00; fill-opacity: 0.6; stroke: #ff7f00; stroke-opacity: 0.6"/>
     <use xlink:href="#m15ff148cd3" x="168.277686" y="288.542909" style="fill: #ff7f00; fill-opacity: 0.6; stroke: #ff7f00; stroke-opacity: 0.6"/>
     <use xlink:href="#m15ff148cd3" x="174.180496" y="287.89363" style="fill: #ff7f00; fill-opacity: 0.6; stroke: #ff7f00; stroke-opacity: 0.6"/>
     <use xlink:href="#m15ff148cd3" x="180.083306" y="286.826931" style="fill: #ff7f00; fill-opacity: 0.6; stroke: #ff7f00; stroke-opacity: 0.6"/>
     <use xlink:href="#m15ff148cd3" x="185.986116" y="285.885638" style="fill: #ff7f00; fill-opacity: 0.6; stroke: #ff7f00; stroke-opacity: 0.6"/>
     <use xlink:href="#m15ff148cd3" x="191.888926" y="284.920728" style="fill: #ff7f00; fill-opacity: 0.6; stroke: #ff7f00; stroke-opacity: 0.6"/>
     <use xlink:href="#m15ff148cd3" x="197.791736" y="283.93712" style="fill: #ff7f00; fill-opacity: 0.6; stroke: #ff7f00; stroke-opacity: 0.6"/>
     <use xlink:href="#m15ff148cd3" x="203.694545" y="283.096487" style="fill: #ff7f00; fill-opacity: 0.6; stroke: #ff7f00; stroke-opacity: 0.6"/>
     <use xlink:href="#m15ff148cd3" x="209.597355" y="281.857175" style="fill: #ff7f00; fill-opacity: 0.6; stroke: #ff7f00; stroke-opacity: 0.6"/>
     <use xlink:href="#m15ff148cd3" x="215.500165" y="280.687749" style="fill: #ff7f00; fill-opacity: 0.6; stroke: #ff7f00; stroke-opacity: 0.6"/>
     <use xlink:href="#m15ff148cd3" x="221.402975" y="279.886625" style="fill: #ff7f00; fill-opacity: 0.6; stroke: #ff7f00; stroke-opacity: 0.6"/>
     <use xlink:href="#m15ff148cd3" x="227.305785" y="279.11172" style="fill: #ff7f00; fill-opacity: 0.6; stroke: #ff7f00; stroke-opacity: 0.6"/>
     <use xlink:href="#m15ff148cd3" x="233.208595" y="278.340254" style="fill: #ff7f00; fill-opacity: 0.6; stroke: #ff7f00; stroke-opacity: 0.6"/>
     <use xlink:href="#m15ff148cd3" x="239.111405" y="277.583046" style="fill: #ff7f00; fill-opacity: 0.6; stroke: #ff7f00; stroke-opacity: 0.6"/>
     <use xlink:href="#m15ff148cd3" x="245.014215" y="276.818869" style="fill: #ff7f00; fill-opacity: 0.6; stroke: #ff7f00; stroke-opacity: 0.6"/>
     <use xlink:href="#m15ff148cd3" x="250.917025" y="276.042627" style="fill: #ff7f00; fill-opacity: 0.6; stroke: #ff7f00; stroke-opacity: 0.6"/>
     <use xlink:href="#m15ff148cd3" x="256.819835" y="275.383621" style="fill: #ff7f00; fill-opacity: 0.6; stroke: #ff7f00; stroke-opacity: 0.6"/>
     <use xlink:href="#m15ff148cd3" x="262.722645" y="274.686561" style="fill: #ff7f00; fill-opacity: 0.6; stroke: #ff7f00; stroke-opacity: 0.6"/>
     <use xlink:href="#m15ff148cd3" x="268.625455" y="274.029945" style="fill: #ff7f00; fill-opacity: 0.6; stroke: #ff7f00; stroke-opacity: 0.6"/>
     <use xlink:href="#m15ff148cd3" x="274.528264" y="273.398572" style="fill: #ff7f00; fill-opacity: 0.6; stroke: #ff7f00; stroke-opacity: 0.6"/>
     <use xlink:href="#m15ff148cd3" x="280.431074" y="272.787156" style="fill: #ff7f00; fill-opacity: 0.6; stroke: #ff7f00; stroke-opacity: 0.6"/>
     <use xlink:href="#m15ff148cd3" x="286.333884" y="272.165779" style="fill: #ff7f00; fill-opacity: 0.6; stroke: #ff7f00; stroke-opacity: 0.6"/>
     <use xlink:href="#m15ff148cd3" x="292.236694" y="271.628898" style="fill: #ff7f00; fill-opacity: 0.6; stroke: #ff7f00; stroke-opacity: 0.6"/>
     <use xlink:href="#m15ff148cd3" x="298.139504" y="271.084638" style="fill: #ff7f00; fill-opacity: 0.6; stroke: #ff7f00; stroke-opacity: 0.6"/>
     <use xlink:href="#m15ff148cd3" x="304.042314" y="270.59412" style="fill: #ff7f00; fill-opacity: 0.6; stroke: #ff7f00; stroke-opacity: 0.6"/>
     <use xlink:href="#m15ff148cd3" x="309.945124" y="270.12446" style="fill: #ff7f00; fill-opacity: 0.6; stroke: #ff7f00; stroke-opacity: 0.6"/>
     <use xlink:href="#m15ff148cd3" x="315.847934" y="269.677649" style="fill: #ff7f00; fill-opacity: 0.6; stroke: #ff7f00; stroke-opacity: 0.6"/>
     <use xlink:href="#m15ff148cd3" x="321.750744" y="269.242306" style="fill: #ff7f00; fill-opacity: 0.6; stroke: #ff7f00; stroke-opacity: 0.6"/>
     <use xlink:href="#m15ff148cd3" x="327.653554" y="268.833612" style="fill: #ff7f00; fill-opacity: 0.6; stroke: #ff7f00; stroke-opacity: 0.6"/>
     <use xlink:href="#m15ff148cd3" x="333.556364" y="268.450424" style="fill: #ff7f00; fill-opacity: 0.6; stroke: #ff7f00; stroke-opacity: 0.6"/>
     <use xlink:href="#m15ff148cd3" x="339.459174" y="268.069745" style="fill: #ff7f00; fill-opacity: 0.6; stroke: #ff7f00; stroke-opacity: 0.6"/>
     <use xlink:href="#m15ff148cd3" x="345.361983" y="267.712924" style="fill: #ff7f00; fill-opacity: 0.6; stroke: #ff7f00; stroke-opacity: 0.6"/>
     <use xlink:href="#m15ff148cd3" x="351.264793" y="267.370385" style="fill: #ff7f00; fill-opacity: 0.6; stroke: #ff7f00; stroke-opacity: 0.6"/>
     <use xlink:href="#m15ff148cd3" x="357.167603" y="267.041633" style="fill: #ff7f00; fill-opacity: 0.6; stroke: #ff7f00; stroke-opacity: 0.6"/>
     <use xlink:href="#m15ff148cd3" x="363.070413" y="266.725795" style="fill: #ff7f00; fill-opacity: 0.6; stroke: #ff7f00; stroke-opacity: 0.6"/>
     <use xlink:href="#m15ff148cd3" x="368.973223" y="266.422597" style="fill: #ff7f00; fill-opacity: 0.6; stroke: #ff7f00; stroke-opacity: 0.6"/>
     <use xlink:href="#m15ff148cd3" x="374.876033" y="266.132327" style="fill: #ff7f00; fill-opacity: 0.6; stroke: #ff7f00; stroke-opacity: 0.6"/>
     <use xlink:href="#m15ff148cd3" x="380.778843" y="265.851267" style="fill: #ff7f00; fill-opacity: 0.6; stroke: #ff7f00; stroke-opacity: 0.6"/>
     <use xlink:href="#m15ff148cd3" x="386.681653" y="265.581545" style="fill: #ff7f00; fill-opacity: 0.6; stroke: #ff7f00; stroke-opacity: 0.6"/>
     <use xlink:href="#m15ff148cd3" x="392.584463" y="265.323569" style="fill: #ff7f00; fill-opacity: 0.6; stroke: #ff7f00; stroke-opacity: 0.6"/>
     <use xlink:href="#m15ff148cd3" x="398.487273" y="265.075627" style="fill: #ff7f00; fill-opacity: 0.6; stroke: #ff7f00; stroke-opacity: 0.6"/>
    </g>
   </g>
   <g id="patch_3">
    <path d="M 57.6 307.584 
L 57.6 41.472 
" style="fill: none; stroke: #000000; stroke-width: 0.8; stroke-linejoin: miter; stroke-linecap: square"/>
   </g>
   <g id="patch_4">
    <path d="M 414.72 307.584 
L 414.72 41.472 
" style="fill: none; stroke: #000000; stroke-width: 0.8; stroke-linejoin: miter; stroke-linecap: square"/>
   </g>
   <g id="patch_5">
    <path d="M 57.6 307.584 
L 414.72 307.584 
" style="fill: none; stroke: #000000; stroke-width: 0.8; stroke-linejoin: miter; stroke-linecap: square"/>
   </g>
   <g id="patch_6">
    <path d="M 57.6 41.472 
L 414.72 41.472 
" style="fill: none; stroke: #000000; stroke-width: 0.8; stroke-linejoin: miter; stroke-linecap: square"/>
   </g>
   <g id="text_16">
    <!-- H4 Linear Lower Bounds after F3 Optimization, GFRO -->
    <g transform="translate(76.78875 35.472) scale(0.12 -0.12)">
     <defs>
      <path id="DejaVuSans-34" d="M 2419 4116 
L 825 1625 
L 2419 1625 
L 2419 4116 
z
M 2253 4666 
L 3047 4666 
L 3047 1625 
L 3713 1625 
L 3713 1100 
L 3047 1100 
L 3047 0 
L 2419 0 
L 2419 1100 
L 313 1100 
L 313 1709 
L 2253 4666 
z
" transform="scale(0.015625)"/>
      <path id="DejaVuSans-69" d="M 603 3500 
L 1178 3500 
L 1178 0 
L 603 0 
L 603 3500 
z
M 603 4863 
L 1178 4863 
L 1178 4134 
L 603 4134 
L 603 4863 
z
" transform="scale(0.015625)"/>
      <path id="DejaVuSans-77" d="M 269 3500 
L 844 3500 
L 1563 769 
L 2278 3500 
L 2956 3500 
L 3675 769 
L 4391 3500 
L 4966 3500 
L 4050 0 
L 3372 0 
L 2619 2869 
L 1863 0 
L 1184 0 
L 269 3500 
z
" transform="scale(0.015625)"/>
      <path id="DejaVuSans-75" d="M 544 1381 
L 544 3500 
L 1119 3500 
L 1119 1403 
Q 1119 906 1312 657 
Q 1506 409 1894 409 
Q 2359 409 2629 706 
Q 2900 1003 2900 1516 
L 2900 3500 
L 3475 3500 
L 3475 0 
L 2900 0 
L 2900 538 
Q 2691 219 2414 64 
Q 2138 -91 1772 -91 
Q 1169 -91 856 284 
Q 544 659 544 1381 
z
M 1991 3584 
L 1991 3584 
z
" transform="scale(0.015625)"/>
      <path id="DejaVuSans-73" d="M 2834 3397 
L 2834 2853 
Q 2591 2978 2328 3040 
Q 2066 3103 1784 3103 
Q 1356 3103 1142 2972 
Q 928 2841 928 2578 
Q 928 2378 1081 2264 
Q 1234 2150 1697 2047 
L 1894 2003 
Q 2506 1872 2764 1633 
Q 3022 1394 3022 966 
Q 3022 478 2636 193 
Q 2250 -91 1575 -91 
Q 1294 -91 989 -36 
Q 684 19 347 128 
L 347 722 
Q 666 556 975 473 
Q 1284 391 1588 391 
Q 1994 391 2212 530 
Q 2431 669 2431 922 
Q 2431 1156 2273 1281 
Q 2116 1406 1581 1522 
L 1381 1569 
Q 847 1681 609 1914 
Q 372 2147 372 2553 
Q 372 3047 722 3315 
Q 1072 3584 1716 3584 
Q 2034 3584 2315 3537 
Q 2597 3491 2834 3397 
z
" transform="scale(0.015625)"/>
      <path id="DejaVuSans-66" d="M 2375 4863 
L 2375 4384 
L 1825 4384 
Q 1516 4384 1395 4259 
Q 1275 4134 1275 3809 
L 1275 3500 
L 2222 3500 
L 2222 3053 
L 1275 3053 
L 1275 0 
L 697 0 
L 697 3053 
L 147 3053 
L 147 3500 
L 697 3500 
L 697 3744 
Q 697 4328 969 4595 
Q 1241 4863 1831 4863 
L 2375 4863 
z
" transform="scale(0.015625)"/>
      <path id="DejaVuSans-46" d="M 628 4666 
L 3309 4666 
L 3309 4134 
L 1259 4134 
L 1259 2759 
L 3109 2759 
L 3109 2228 
L 1259 2228 
L 1259 0 
L 628 0 
L 628 4666 
z
" transform="scale(0.015625)"/>
      <path id="DejaVuSans-4f" d="M 2522 4238 
Q 1834 4238 1429 3725 
Q 1025 3213 1025 2328 
Q 1025 1447 1429 934 
Q 1834 422 2522 422 
Q 3209 422 3611 934 
Q 4013 1447 4013 2328 
Q 4013 3213 3611 3725 
Q 3209 4238 2522 4238 
z
M 2522 4750 
Q 3503 4750 4090 4092 
Q 4678 3434 4678 2328 
Q 4678 1225 4090 567 
Q 3503 -91 2522 -91 
Q 1538 -91 948 565 
Q 359 1222 359 2328 
Q 359 3434 948 4092 
Q 1538 4750 2522 4750 
z
" transform="scale(0.015625)"/>
      <path id="DejaVuSans-70" d="M 1159 525 
L 1159 -1331 
L 581 -1331 
L 581 3500 
L 1159 3500 
L 1159 2969 
Q 1341 3281 1617 3432 
Q 1894 3584 2278 3584 
Q 2916 3584 3314 3078 
Q 3713 2572 3713 1747 
Q 3713 922 3314 415 
Q 2916 -91 2278 -91 
Q 1894 -91 1617 61 
Q 1341 213 1159 525 
z
M 3116 1747 
Q 3116 2381 2855 2742 
Q 2594 3103 2138 3103 
Q 1681 3103 1420 2742 
Q 1159 2381 1159 1747 
Q 1159 1113 1420 752 
Q 1681 391 2138 391 
Q 2594 391 2855 752 
Q 3116 1113 3116 1747 
z
" transform="scale(0.015625)"/>
      <path id="DejaVuSans-6d" d="M 3328 2828 
Q 3544 3216 3844 3400 
Q 4144 3584 4550 3584 
Q 5097 3584 5394 3201 
Q 5691 2819 5691 2113 
L 5691 0 
L 5113 0 
L 5113 2094 
Q 5113 2597 4934 2840 
Q 4756 3084 4391 3084 
Q 3944 3084 3684 2787 
Q 3425 2491 3425 1978 
L 3425 0 
L 2847 0 
L 2847 2094 
Q 2847 2600 2669 2842 
Q 2491 3084 2119 3084 
Q 1678 3084 1418 2786 
Q 1159 2488 1159 1978 
L 1159 0 
L 581 0 
L 581 3500 
L 1159 3500 
L 1159 2956 
Q 1356 3278 1631 3431 
Q 1906 3584 2284 3584 
Q 2666 3584 2933 3390 
Q 3200 3197 3328 2828 
z
" transform="scale(0.015625)"/>
      <path id="DejaVuSans-7a" d="M 353 3500 
L 3084 3500 
L 3084 2975 
L 922 459 
L 3084 459 
L 3084 0 
L 275 0 
L 275 525 
L 2438 3041 
L 353 3041 
L 353 3500 
z
" transform="scale(0.015625)"/>
      <path id="DejaVuSans-2c" d="M 750 794 
L 1409 794 
L 1409 256 
L 897 -744 
L 494 -744 
L 750 256 
L 750 794 
z
" transform="scale(0.015625)"/>
      <path id="DejaVuSans-47" d="M 3809 666 
L 3809 1919 
L 2778 1919 
L 2778 2438 
L 4434 2438 
L 4434 434 
Q 4069 175 3628 42 
Q 3188 -91 2688 -91 
Q 1594 -91 976 548 
Q 359 1188 359 2328 
Q 359 3472 976 4111 
Q 1594 4750 2688 4750 
Q 3144 4750 3555 4637 
Q 3966 4525 4313 4306 
L 4313 3634 
Q 3963 3931 3569 4081 
Q 3175 4231 2741 4231 
Q 1884 4231 1454 3753 
Q 1025 3275 1025 2328 
Q 1025 1384 1454 906 
Q 1884 428 2741 428 
Q 3075 428 3337 486 
Q 3600 544 3809 666 
z
" transform="scale(0.015625)"/>
      <path id="DejaVuSans-52" d="M 2841 2188 
Q 3044 2119 3236 1894 
Q 3428 1669 3622 1275 
L 4263 0 
L 3584 0 
L 2988 1197 
Q 2756 1666 2539 1819 
Q 2322 1972 1947 1972 
L 1259 1972 
L 1259 0 
L 628 0 
L 628 4666 
L 2053 4666 
Q 2853 4666 3247 4331 
Q 3641 3997 3641 3322 
Q 3641 2881 3436 2590 
Q 3231 2300 2841 2188 
z
M 1259 4147 
L 1259 2491 
L 2053 2491 
Q 2509 2491 2742 2702 
Q 2975 2913 2975 3322 
Q 2975 3731 2742 3939 
Q 2509 4147 2053 4147 
L 1259 4147 
z
" transform="scale(0.015625)"/>
     </defs>
     <use xlink:href="#DejaVuSans-48"/>
     <use xlink:href="#DejaVuSans-34" transform="translate(75.195312 0)"/>
     <use xlink:href="#DejaVuSans-20" transform="translate(138.818359 0)"/>
     <use xlink:href="#DejaVuSans-4c" transform="translate(170.605469 0)"/>
     <use xlink:href="#DejaVuSans-69" transform="translate(226.318359 0)"/>
     <use xlink:href="#DejaVuSans-6e" transform="translate(254.101562 0)"/>
     <use xlink:href="#DejaVuSans-65" transform="translate(317.480469 0)"/>
     <use xlink:href="#DejaVuSans-61" transform="translate(379.003906 0)"/>
     <use xlink:href="#DejaVuSans-72" transform="translate(440.283203 0)"/>
     <use xlink:href="#DejaVuSans-20" transform="translate(481.396484 0)"/>
     <use xlink:href="#DejaVuSans-4c" transform="translate(513.183594 0)"/>
     <use xlink:href="#DejaVuSans-6f" transform="translate(567.146484 0)"/>
     <use xlink:href="#DejaVuSans-77" transform="translate(628.328125 0)"/>
     <use xlink:href="#DejaVuSans-65" transform="translate(710.115234 0)"/>
     <use xlink:href="#DejaVuSans-72" transform="translate(771.638672 0)"/>
     <use xlink:href="#DejaVuSans-20" transform="translate(812.751953 0)"/>
     <use xlink:href="#DejaVuSans-42" transform="translate(844.539062 0)"/>
     <use xlink:href="#DejaVuSans-6f" transform="translate(913.142578 0)"/>
     <use xlink:href="#DejaVuSans-75" transform="translate(974.324219 0)"/>
     <use xlink:href="#DejaVuSans-6e" transform="translate(1037.703125 0)"/>
     <use xlink:href="#DejaVuSans-64" transform="translate(1101.082031 0)"/>
     <use xlink:href="#DejaVuSans-73" transform="translate(1164.558594 0)"/>
     <use xlink:href="#DejaVuSans-20" transform="translate(1216.658203 0)"/>
     <use xlink:href="#DejaVuSans-61" transform="translate(1248.445312 0)"/>
     <use xlink:href="#DejaVuSans-66" transform="translate(1309.724609 0)"/>
     <use xlink:href="#DejaVuSans-74" transform="translate(1343.179688 0)"/>
     <use xlink:href="#DejaVuSans-65" transform="translate(1382.388672 0)"/>
     <use xlink:href="#DejaVuSans-72" transform="translate(1443.912109 0)"/>
     <use xlink:href="#DejaVuSans-20" transform="translate(1485.025391 0)"/>
     <use xlink:href="#DejaVuSans-46" transform="translate(1516.8125 0)"/>
     <use xlink:href="#DejaVuSans-33" transform="translate(1574.332031 0)"/>
     <use xlink:href="#DejaVuSans-20" transform="translate(1637.955078 0)"/>
     <use xlink:href="#DejaVuSans-4f" transform="translate(1669.742188 0)"/>
     <use xlink:href="#DejaVuSans-70" transform="translate(1748.453125 0)"/>
     <use xlink:href="#DejaVuSans-74" transform="translate(1811.929688 0)"/>
     <use xlink:href="#DejaVuSans-69" transform="translate(1851.138672 0)"/>
     <use xlink:href="#DejaVuSans-6d" transform="translate(1878.921875 0)"/>
     <use xlink:href="#DejaVuSans-69" transform="translate(1976.333984 0)"/>
     <use xlink:href="#DejaVuSans-7a" transform="translate(2004.117188 0)"/>
     <use xlink:href="#DejaVuSans-61" transform="translate(2056.607422 0)"/>
     <use xlink:href="#DejaVuSans-74" transform="translate(2117.886719 0)"/>
     <use xlink:href="#DejaVuSans-69" transform="translate(2157.095703 0)"/>
     <use xlink:href="#DejaVuSans-6f" transform="translate(2184.878906 0)"/>
     <use xlink:href="#DejaVuSans-6e" transform="translate(2246.060547 0)"/>
     <use xlink:href="#DejaVuSans-2c" transform="translate(2309.439453 0)"/>
     <use xlink:href="#DejaVuSans-20" transform="translate(2341.226562 0)"/>
     <use xlink:href="#DejaVuSans-47" transform="translate(2373.013672 0)"/>
     <use xlink:href="#DejaVuSans-46" transform="translate(2450.503906 0)"/>
     <use xlink:href="#DejaVuSans-52" transform="translate(2508.023438 0)"/>
     <use xlink:href="#DejaVuSans-4f" transform="translate(2577.505859 0)"/>
    </g>
   </g>
   <g id="legend_1">
    <g id="patch_7">
     <path d="M 320.227813 93.506375 
L 407.72 93.506375 
Q 409.72 93.506375 409.72 91.506375 
L 409.72 48.472 
Q 409.72 46.472 407.72 46.472 
L 320.227813 46.472 
Q 318.227813 46.472 318.227813 48.472 
L 318.227813 91.506375 
Q 318.227813 93.506375 320.227813 93.506375 
z
" style="fill: #ffffff; opacity: 0.8; stroke: #cccccc; stroke-linejoin: miter"/>
    </g>
    <g id="line2d_17">
     <path d="M 322.227813 54.570438 
L 332.227813 54.570438 
L 342.227813 54.570438 
" style="fill: none; stroke: #377eb8; stroke-opacity: 0.6; stroke-width: 1.5; stroke-linecap: square"/>
     <g>
      <use xlink:href="#me7c873b26e" x="332.227813" y="54.570438" style="fill: #377eb8; fill-opacity: 0.6; stroke: #377eb8; stroke-opacity: 0.6"/>
     </g>
    </g>
    <g id="text_17">
     <!-- Exact -->
     <g transform="translate(350.227813 58.070438) scale(0.1 -0.1)">
      <defs>
       <path id="DejaVuSans-78" d="M 3513 3500 
L 2247 1797 
L 3578 0 
L 2900 0 
L 1881 1375 
L 863 0 
L 184 0 
L 1544 1831 
L 300 3500 
L 978 3500 
L 1906 2253 
L 2834 3500 
L 3513 3500 
z
" transform="scale(0.015625)"/>
       <path id="DejaVuSans-63" d="M 3122 3366 
L 3122 2828 
Q 2878 2963 2633 3030 
Q 2388 3097 2138 3097 
Q 1578 3097 1268 2742 
Q 959 2388 959 1747 
Q 959 1106 1268 751 
Q 1578 397 2138 397 
Q 2388 397 2633 464 
Q 2878 531 3122 666 
L 3122 134 
Q 2881 22 2623 -34 
Q 2366 -91 2075 -91 
Q 1284 -91 818 406 
Q 353 903 353 1747 
Q 353 2603 823 3093 
Q 1294 3584 2113 3584 
Q 2378 3584 2631 3529 
Q 2884 3475 3122 3366 
z
" transform="scale(0.015625)"/>
      </defs>
      <use xlink:href="#DejaVuSans-45"/>
      <use xlink:href="#DejaVuSans-78" transform="translate(63.183594 0)"/>
      <use xlink:href="#DejaVuSans-61" transform="translate(122.363281 0)"/>
      <use xlink:href="#DejaVuSans-63" transform="translate(183.642578 0)"/>
      <use xlink:href="#DejaVuSans-74" transform="translate(238.623047 0)"/>
     </g>
    </g>
    <g id="line2d_18">
     <path d="M 322.227813 69.248563 
L 332.227813 69.248563 
L 342.227813 69.248563 
" style="fill: none; stroke: #f781bf; stroke-opacity: 0.6; stroke-width: 1.5; stroke-linecap: square"/>
     <g>
      <use xlink:href="#m7545f7fd5a" x="332.227813" y="69.248563" style="fill: #f781bf; fill-opacity: 0.6; stroke: #f781bf; stroke-opacity: 0.6"/>
     </g>
    </g>
    <g id="text_18">
     <!-- Fluid GFRO -->
     <g transform="translate(350.227813 72.748563) scale(0.1 -0.1)">
      <defs>
       <path id="DejaVuSans-6c" d="M 603 4863 
L 1178 4863 
L 1178 0 
L 603 0 
L 603 4863 
z
" transform="scale(0.015625)"/>
      </defs>
      <use xlink:href="#DejaVuSans-46"/>
      <use xlink:href="#DejaVuSans-6c" transform="translate(57.519531 0)"/>
      <use xlink:href="#DejaVuSans-75" transform="translate(85.302734 0)"/>
      <use xlink:href="#DejaVuSans-69" transform="translate(148.681641 0)"/>
      <use xlink:href="#DejaVuSans-64" transform="translate(176.464844 0)"/>
      <use xlink:href="#DejaVuSans-20" transform="translate(239.941406 0)"/>
      <use xlink:href="#DejaVuSans-47" transform="translate(271.728516 0)"/>
      <use xlink:href="#DejaVuSans-46" transform="translate(349.21875 0)"/>
      <use xlink:href="#DejaVuSans-52" transform="translate(406.738281 0)"/>
      <use xlink:href="#DejaVuSans-4f" transform="translate(476.220703 0)"/>
     </g>
    </g>
    <g id="line2d_19">
     <path d="M 322.227813 83.926688 
L 332.227813 83.926688 
L 342.227813 83.926688 
" style="fill: none; stroke: #ff7f00; stroke-opacity: 0.6; stroke-width: 1.5; stroke-linecap: square"/>
     <g>
      <use xlink:href="#m15ff148cd3" x="332.227813" y="83.926688" style="fill: #ff7f00; fill-opacity: 0.6; stroke: #ff7f00; stroke-opacity: 0.6"/>
     </g>
    </g>
    <g id="text_19">
     <!-- GFRO -->
     <g transform="translate(350.227813 87.426688) scale(0.1 -0.1)">
      <use xlink:href="#DejaVuSans-47"/>
      <use xlink:href="#DejaVuSans-46" transform="translate(77.490234 0)"/>
      <use xlink:href="#DejaVuSans-52" transform="translate(135.009766 0)"/>
      <use xlink:href="#DejaVuSans-4f" transform="translate(204.492188 0)"/>
     </g>
    </g>
   </g>
  </g>
 </g>
 <defs>
  <clipPath id="p506d3b6a5d">
   <rect x="57.6" y="41.472" width="357.12" height="266.112"/>
  </clipPath>
 </defs>
</svg>
