<?xml version="1.0" encoding="utf-8" standalone="no"?>
<!DOCTYPE svg PUBLIC "-//W3C//DTD SVG 1.1//EN"
  "http://www.w3.org/Graphics/SVG/1.1/DTD/svg11.dtd">
<svg xmlns:xlink="http://www.w3.org/1999/xlink" width="460.8pt" height="345.6pt" viewBox="0 0 460.8 345.6" xmlns="http://www.w3.org/2000/svg" version="1.1">
 <metadata>
  <rdf:RDF xmlns:dc="http://purl.org/dc/elements/1.1/" xmlns:cc="http://creativecommons.org/ns#" xmlns:rdf="http://www.w3.org/1999/02/22-rdf-syntax-ns#">
   <cc:Work>
    <dc:type rdf:resource="http://purl.org/dc/dcmitype/StillImage"/>
    <dc:date>2025-06-03T15:32:49.412235</dc:date>
    <dc:format>image/svg+xml</dc:format>
    <dc:creator>
     <cc:Agent>
      <dc:title>Matplotlib v3.10.1, https://matplotlib.org/</dc:title>
     </cc:Agent>
    </dc:creator>
   </cc:Work>
  </rdf:RDF>
 </metadata>
 <defs>
  <style type="text/css">*{stroke-linejoin: round; stroke-linecap: butt}</style>
 </defs>
 <g id="figure_1">
  <g id="patch_1">
   <path d="M 0 345.6 
L 460.8 345.6 
L 460.8 0 
L 0 0 
z
" style="fill: #ffffff"/>
  </g>
  <g id="axes_1">
   <g id="patch_2">
    <path d="M 57.6 307.584 
L 414.72 307.584 
L 414.72 41.472 
L 57.6 41.472 
z
" style="fill: #ffffff"/>
   </g>
   <g id="matplotlib.axis_1">
    <g id="xtick_1">
     <g id="line2d_1">
      <defs>
       <path id="m35595a3966" d="M 0 0 
L 0 3.5 
" style="stroke: #000000; stroke-width: 0.8"/>
      </defs>
      <g>
       <use xlink:href="#m35595a3966" x="109.249587" y="307.584" style="stroke: #000000; stroke-width: 0.8"/>
      </g>
     </g>
     <g id="text_1">
      <!-- 0.5 -->
      <g transform="translate(101.298024 322.182437) scale(0.1 -0.1)">
       <defs>
        <path id="DejaVuSans-30" d="M 2034 4250 
Q 1547 4250 1301 3770 
Q 1056 3291 1056 2328 
Q 1056 1369 1301 889 
Q 1547 409 2034 409 
Q 2525 409 2770 889 
Q 3016 1369 3016 2328 
Q 3016 3291 2770 3770 
Q 2525 4250 2034 4250 
z
M 2034 4750 
Q 2819 4750 3233 4129 
Q 3647 3509 3647 2328 
Q 3647 1150 3233 529 
Q 2819 -91 2034 -91 
Q 1250 -91 836 529 
Q 422 1150 422 2328 
Q 422 3509 836 4129 
Q 1250 4750 2034 4750 
z
" transform="scale(0.015625)"/>
        <path id="DejaVuSans-2e" d="M 684 794 
L 1344 794 
L 1344 0 
L 684 0 
L 684 794 
z
" transform="scale(0.015625)"/>
        <path id="DejaVuSans-35" d="M 691 4666 
L 3169 4666 
L 3169 4134 
L 1269 4134 
L 1269 2991 
Q 1406 3038 1543 3061 
Q 1681 3084 1819 3084 
Q 2600 3084 3056 2656 
Q 3513 2228 3513 1497 
Q 3513 744 3044 326 
Q 2575 -91 1722 -91 
Q 1428 -91 1123 -41 
Q 819 9 494 109 
L 494 744 
Q 775 591 1075 516 
Q 1375 441 1709 441 
Q 2250 441 2565 725 
Q 2881 1009 2881 1497 
Q 2881 1984 2565 2268 
Q 2250 2553 1709 2553 
Q 1456 2553 1204 2497 
Q 953 2441 691 2322 
L 691 4666 
z
" transform="scale(0.015625)"/>
       </defs>
       <use xlink:href="#DejaVuSans-30"/>
       <use xlink:href="#DejaVuSans-2e" transform="translate(63.623047 0)"/>
       <use xlink:href="#DejaVuSans-35" transform="translate(95.410156 0)"/>
      </g>
     </g>
    </g>
    <g id="xtick_2">
     <g id="line2d_2">
      <g>
       <use xlink:href="#m35595a3966" x="168.277686" y="307.584" style="stroke: #000000; stroke-width: 0.8"/>
      </g>
     </g>
     <g id="text_2">
      <!-- 1.0 -->
      <g transform="translate(160.326123 322.182437) scale(0.1 -0.1)">
       <defs>
        <path id="DejaVuSans-31" d="M 794 531 
L 1825 531 
L 1825 4091 
L 703 3866 
L 703 4441 
L 1819 4666 
L 2450 4666 
L 2450 531 
L 3481 531 
L 3481 0 
L 794 0 
L 794 531 
z
" transform="scale(0.015625)"/>
       </defs>
       <use xlink:href="#DejaVuSans-31"/>
       <use xlink:href="#DejaVuSans-2e" transform="translate(63.623047 0)"/>
       <use xlink:href="#DejaVuSans-30" transform="translate(95.410156 0)"/>
      </g>
     </g>
    </g>
    <g id="xtick_3">
     <g id="line2d_3">
      <g>
       <use xlink:href="#m35595a3966" x="227.305785" y="307.584" style="stroke: #000000; stroke-width: 0.8"/>
      </g>
     </g>
     <g id="text_3">
      <!-- 1.5 -->
      <g transform="translate(219.354223 322.182437) scale(0.1 -0.1)">
       <use xlink:href="#DejaVuSans-31"/>
       <use xlink:href="#DejaVuSans-2e" transform="translate(63.623047 0)"/>
       <use xlink:href="#DejaVuSans-35" transform="translate(95.410156 0)"/>
      </g>
     </g>
    </g>
    <g id="xtick_4">
     <g id="line2d_4">
      <g>
       <use xlink:href="#m35595a3966" x="286.333884" y="307.584" style="stroke: #000000; stroke-width: 0.8"/>
      </g>
     </g>
     <g id="text_4">
      <!-- 2.0 -->
      <g transform="translate(278.382322 322.182437) scale(0.1 -0.1)">
       <defs>
        <path id="DejaVuSans-32" d="M 1228 531 
L 3431 531 
L 3431 0 
L 469 0 
L 469 531 
Q 828 903 1448 1529 
Q 2069 2156 2228 2338 
Q 2531 2678 2651 2914 
Q 2772 3150 2772 3378 
Q 2772 3750 2511 3984 
Q 2250 4219 1831 4219 
Q 1534 4219 1204 4116 
Q 875 4013 500 3803 
L 500 4441 
Q 881 4594 1212 4672 
Q 1544 4750 1819 4750 
Q 2544 4750 2975 4387 
Q 3406 4025 3406 3419 
Q 3406 3131 3298 2873 
Q 3191 2616 2906 2266 
Q 2828 2175 2409 1742 
Q 1991 1309 1228 531 
z
" transform="scale(0.015625)"/>
       </defs>
       <use xlink:href="#DejaVuSans-32"/>
       <use xlink:href="#DejaVuSans-2e" transform="translate(63.623047 0)"/>
       <use xlink:href="#DejaVuSans-30" transform="translate(95.410156 0)"/>
      </g>
     </g>
    </g>
    <g id="xtick_5">
     <g id="line2d_5">
      <g>
       <use xlink:href="#m35595a3966" x="345.361983" y="307.584" style="stroke: #000000; stroke-width: 0.8"/>
      </g>
     </g>
     <g id="text_5">
      <!-- 2.5 -->
      <g transform="translate(337.410421 322.182437) scale(0.1 -0.1)">
       <use xlink:href="#DejaVuSans-32"/>
       <use xlink:href="#DejaVuSans-2e" transform="translate(63.623047 0)"/>
       <use xlink:href="#DejaVuSans-35" transform="translate(95.410156 0)"/>
      </g>
     </g>
    </g>
    <g id="xtick_6">
     <g id="line2d_6">
      <g>
       <use xlink:href="#m35595a3966" x="404.390083" y="307.584" style="stroke: #000000; stroke-width: 0.8"/>
      </g>
     </g>
     <g id="text_6">
      <!-- 3.0 -->
      <g transform="translate(396.43852 322.182437) scale(0.1 -0.1)">
       <defs>
        <path id="DejaVuSans-33" d="M 2597 2516 
Q 3050 2419 3304 2112 
Q 3559 1806 3559 1356 
Q 3559 666 3084 287 
Q 2609 -91 1734 -91 
Q 1441 -91 1130 -33 
Q 819 25 488 141 
L 488 750 
Q 750 597 1062 519 
Q 1375 441 1716 441 
Q 2309 441 2620 675 
Q 2931 909 2931 1356 
Q 2931 1769 2642 2001 
Q 2353 2234 1838 2234 
L 1294 2234 
L 1294 2753 
L 1863 2753 
Q 2328 2753 2575 2939 
Q 2822 3125 2822 3475 
Q 2822 3834 2567 4026 
Q 2313 4219 1838 4219 
Q 1578 4219 1281 4162 
Q 984 4106 628 3988 
L 628 4550 
Q 988 4650 1302 4700 
Q 1616 4750 1894 4750 
Q 2613 4750 3031 4423 
Q 3450 4097 3450 3541 
Q 3450 3153 3228 2886 
Q 3006 2619 2597 2516 
z
" transform="scale(0.015625)"/>
       </defs>
       <use xlink:href="#DejaVuSans-33"/>
       <use xlink:href="#DejaVuSans-2e" transform="translate(63.623047 0)"/>
       <use xlink:href="#DejaVuSans-30" transform="translate(95.410156 0)"/>
      </g>
     </g>
    </g>
    <g id="text_7">
     <!-- Bond Length (Å) -->
     <g transform="translate(195.580312 337.544938) scale(0.1 -0.1)">
      <defs>
       <path id="DejaVuSans-42" d="M 1259 2228 
L 1259 519 
L 2272 519 
Q 2781 519 3026 730 
Q 3272 941 3272 1375 
Q 3272 1813 3026 2020 
Q 2781 2228 2272 2228 
L 1259 2228 
z
M 1259 4147 
L 1259 2741 
L 2194 2741 
Q 2656 2741 2882 2914 
Q 3109 3088 3109 3444 
Q 3109 3797 2882 3972 
Q 2656 4147 2194 4147 
L 1259 4147 
z
M 628 4666 
L 2241 4666 
Q 2963 4666 3353 4366 
Q 3744 4066 3744 3513 
Q 3744 3084 3544 2831 
Q 3344 2578 2956 2516 
Q 3422 2416 3680 2098 
Q 3938 1781 3938 1306 
Q 3938 681 3513 340 
Q 3088 0 2303 0 
L 628 0 
L 628 4666 
z
" transform="scale(0.015625)"/>
       <path id="DejaVuSans-6f" d="M 1959 3097 
Q 1497 3097 1228 2736 
Q 959 2375 959 1747 
Q 959 1119 1226 758 
Q 1494 397 1959 397 
Q 2419 397 2687 759 
Q 2956 1122 2956 1747 
Q 2956 2369 2687 2733 
Q 2419 3097 1959 3097 
z
M 1959 3584 
Q 2709 3584 3137 3096 
Q 3566 2609 3566 1747 
Q 3566 888 3137 398 
Q 2709 -91 1959 -91 
Q 1206 -91 779 398 
Q 353 888 353 1747 
Q 353 2609 779 3096 
Q 1206 3584 1959 3584 
z
" transform="scale(0.015625)"/>
       <path id="DejaVuSans-6e" d="M 3513 2113 
L 3513 0 
L 2938 0 
L 2938 2094 
Q 2938 2591 2744 2837 
Q 2550 3084 2163 3084 
Q 1697 3084 1428 2787 
Q 1159 2491 1159 1978 
L 1159 0 
L 581 0 
L 581 3500 
L 1159 3500 
L 1159 2956 
Q 1366 3272 1645 3428 
Q 1925 3584 2291 3584 
Q 2894 3584 3203 3211 
Q 3513 2838 3513 2113 
z
" transform="scale(0.015625)"/>
       <path id="DejaVuSans-64" d="M 2906 2969 
L 2906 4863 
L 3481 4863 
L 3481 0 
L 2906 0 
L 2906 525 
Q 2725 213 2448 61 
Q 2172 -91 1784 -91 
Q 1150 -91 751 415 
Q 353 922 353 1747 
Q 353 2572 751 3078 
Q 1150 3584 1784 3584 
Q 2172 3584 2448 3432 
Q 2725 3281 2906 2969 
z
M 947 1747 
Q 947 1113 1208 752 
Q 1469 391 1925 391 
Q 2381 391 2643 752 
Q 2906 1113 2906 1747 
Q 2906 2381 2643 2742 
Q 2381 3103 1925 3103 
Q 1469 3103 1208 2742 
Q 947 2381 947 1747 
z
" transform="scale(0.015625)"/>
       <path id="DejaVuSans-20" transform="scale(0.015625)"/>
       <path id="DejaVuSans-4c" d="M 628 4666 
L 1259 4666 
L 1259 531 
L 3531 531 
L 3531 0 
L 628 0 
L 628 4666 
z
" transform="scale(0.015625)"/>
       <path id="DejaVuSans-65" d="M 3597 1894 
L 3597 1613 
L 953 1613 
Q 991 1019 1311 708 
Q 1631 397 2203 397 
Q 2534 397 2845 478 
Q 3156 559 3463 722 
L 3463 178 
Q 3153 47 2828 -22 
Q 2503 -91 2169 -91 
Q 1331 -91 842 396 
Q 353 884 353 1716 
Q 353 2575 817 3079 
Q 1281 3584 2069 3584 
Q 2775 3584 3186 3129 
Q 3597 2675 3597 1894 
z
M 3022 2063 
Q 3016 2534 2758 2815 
Q 2500 3097 2075 3097 
Q 1594 3097 1305 2825 
Q 1016 2553 972 2059 
L 3022 2063 
z
" transform="scale(0.015625)"/>
       <path id="DejaVuSans-67" d="M 2906 1791 
Q 2906 2416 2648 2759 
Q 2391 3103 1925 3103 
Q 1463 3103 1205 2759 
Q 947 2416 947 1791 
Q 947 1169 1205 825 
Q 1463 481 1925 481 
Q 2391 481 2648 825 
Q 2906 1169 2906 1791 
z
M 3481 434 
Q 3481 -459 3084 -895 
Q 2688 -1331 1869 -1331 
Q 1566 -1331 1297 -1286 
Q 1028 -1241 775 -1147 
L 775 -588 
Q 1028 -725 1275 -790 
Q 1522 -856 1778 -856 
Q 2344 -856 2625 -561 
Q 2906 -266 2906 331 
L 2906 616 
Q 2728 306 2450 153 
Q 2172 0 1784 0 
Q 1141 0 747 490 
Q 353 981 353 1791 
Q 353 2603 747 3093 
Q 1141 3584 1784 3584 
Q 2172 3584 2450 3431 
Q 2728 3278 2906 2969 
L 2906 3500 
L 3481 3500 
L 3481 434 
z
" transform="scale(0.015625)"/>
       <path id="DejaVuSans-74" d="M 1172 4494 
L 1172 3500 
L 2356 3500 
L 2356 3053 
L 1172 3053 
L 1172 1153 
Q 1172 725 1289 603 
Q 1406 481 1766 481 
L 2356 481 
L 2356 0 
L 1766 0 
Q 1100 0 847 248 
Q 594 497 594 1153 
L 594 3053 
L 172 3053 
L 172 3500 
L 594 3500 
L 594 4494 
L 1172 4494 
z
" transform="scale(0.015625)"/>
       <path id="DejaVuSans-68" d="M 3513 2113 
L 3513 0 
L 2938 0 
L 2938 2094 
Q 2938 2591 2744 2837 
Q 2550 3084 2163 3084 
Q 1697 3084 1428 2787 
Q 1159 2491 1159 1978 
L 1159 0 
L 581 0 
L 581 4863 
L 1159 4863 
L 1159 2956 
Q 1366 3272 1645 3428 
Q 1925 3584 2291 3584 
Q 2894 3584 3203 3211 
Q 3513 2838 3513 2113 
z
" transform="scale(0.015625)"/>
       <path id="DejaVuSans-28" d="M 1984 4856 
Q 1566 4138 1362 3434 
Q 1159 2731 1159 2009 
Q 1159 1288 1364 580 
Q 1569 -128 1984 -844 
L 1484 -844 
Q 1016 -109 783 600 
Q 550 1309 550 2009 
Q 550 2706 781 3412 
Q 1013 4119 1484 4856 
L 1984 4856 
z
" transform="scale(0.015625)"/>
       <path id="DejaVuSans-c5" d="M 2663 5081 
Q 2663 5278 2523 5417 
Q 2384 5556 2188 5556 
Q 1988 5556 1852 5420 
Q 1716 5284 1716 5081 
Q 1716 4884 1853 4746 
Q 1991 4609 2188 4609 
Q 2384 4609 2523 4746 
Q 2663 4884 2663 5081 
z
M 2188 4044 
L 1338 1722 
L 3041 1722 
L 2188 4044 
z
M 1716 4366 
Q 1525 4494 1428 4673 
Q 1331 4853 1331 5081 
Q 1331 5441 1579 5691 
Q 1828 5941 2188 5941 
Q 2544 5941 2795 5689 
Q 3047 5438 3047 5081 
Q 3047 4863 2948 4678 
Q 2850 4494 2663 4366 
L 4325 0 
L 3669 0 
L 3244 1197 
L 1141 1197 
L 716 0 
L 50 0 
L 1716 4366 
z
" transform="scale(0.015625)"/>
       <path id="DejaVuSans-29" d="M 513 4856 
L 1013 4856 
Q 1481 4119 1714 3412 
Q 1947 2706 1947 2009 
Q 1947 1309 1714 600 
Q 1481 -109 1013 -844 
L 513 -844 
Q 928 -128 1133 580 
Q 1338 1288 1338 2009 
Q 1338 2731 1133 3434 
Q 928 4138 513 4856 
z
" transform="scale(0.015625)"/>
      </defs>
      <use xlink:href="#DejaVuSans-42"/>
      <use xlink:href="#DejaVuSans-6f" transform="translate(68.603516 0)"/>
      <use xlink:href="#DejaVuSans-6e" transform="translate(129.785156 0)"/>
      <use xlink:href="#DejaVuSans-64" transform="translate(193.164062 0)"/>
      <use xlink:href="#DejaVuSans-20" transform="translate(256.640625 0)"/>
      <use xlink:href="#DejaVuSans-4c" transform="translate(288.427734 0)"/>
      <use xlink:href="#DejaVuSans-65" transform="translate(342.390625 0)"/>
      <use xlink:href="#DejaVuSans-6e" transform="translate(403.914062 0)"/>
      <use xlink:href="#DejaVuSans-67" transform="translate(467.292969 0)"/>
      <use xlink:href="#DejaVuSans-74" transform="translate(530.769531 0)"/>
      <use xlink:href="#DejaVuSans-68" transform="translate(569.978516 0)"/>
      <use xlink:href="#DejaVuSans-20" transform="translate(633.357422 0)"/>
      <use xlink:href="#DejaVuSans-28" transform="translate(665.144531 0)"/>
      <use xlink:href="#DejaVuSans-c5" transform="translate(704.158203 0)"/>
      <use xlink:href="#DejaVuSans-29" transform="translate(772.566406 0)"/>
     </g>
    </g>
   </g>
   <g id="matplotlib.axis_2">
    <g id="ytick_1">
     <g id="line2d_7">
      <defs>
       <path id="m6224f9fcd2" d="M 0 0 
L -3.5 0 
" style="stroke: #000000; stroke-width: 0.8"/>
      </defs>
      <g>
       <use xlink:href="#m6224f9fcd2" x="57.6" y="266.765109" style="stroke: #000000; stroke-width: 0.8"/>
      </g>
     </g>
     <g id="text_8">
      <!-- −4 -->
      <g transform="translate(35.857813 270.564328) scale(0.1 -0.1)">
       <defs>
        <path id="DejaVuSans-2212" d="M 678 2272 
L 4684 2272 
L 4684 1741 
L 678 1741 
L 678 2272 
z
" transform="scale(0.015625)"/>
        <path id="DejaVuSans-34" d="M 2419 4116 
L 825 1625 
L 2419 1625 
L 2419 4116 
z
M 2253 4666 
L 3047 4666 
L 3047 1625 
L 3713 1625 
L 3713 1100 
L 3047 1100 
L 3047 0 
L 2419 0 
L 2419 1100 
L 313 1100 
L 313 1709 
L 2253 4666 
z
" transform="scale(0.015625)"/>
       </defs>
       <use xlink:href="#DejaVuSans-2212"/>
       <use xlink:href="#DejaVuSans-34" transform="translate(83.789062 0)"/>
      </g>
     </g>
    </g>
    <g id="ytick_2">
     <g id="line2d_8">
      <g>
       <use xlink:href="#m6224f9fcd2" x="57.6" y="215.484766" style="stroke: #000000; stroke-width: 0.8"/>
      </g>
     </g>
     <g id="text_9">
      <!-- −3 -->
      <g transform="translate(35.857813 219.283985) scale(0.1 -0.1)">
       <use xlink:href="#DejaVuSans-2212"/>
       <use xlink:href="#DejaVuSans-33" transform="translate(83.789062 0)"/>
      </g>
     </g>
    </g>
    <g id="ytick_3">
     <g id="line2d_9">
      <g>
       <use xlink:href="#m6224f9fcd2" x="57.6" y="164.204424" style="stroke: #000000; stroke-width: 0.8"/>
      </g>
     </g>
     <g id="text_10">
      <!-- −2 -->
      <g transform="translate(35.857813 168.003642) scale(0.1 -0.1)">
       <use xlink:href="#DejaVuSans-2212"/>
       <use xlink:href="#DejaVuSans-32" transform="translate(83.789062 0)"/>
      </g>
     </g>
    </g>
    <g id="ytick_4">
     <g id="line2d_10">
      <g>
       <use xlink:href="#m6224f9fcd2" x="57.6" y="112.924081" style="stroke: #000000; stroke-width: 0.8"/>
      </g>
     </g>
     <g id="text_11">
      <!-- −1 -->
      <g transform="translate(35.857813 116.723299) scale(0.1 -0.1)">
       <use xlink:href="#DejaVuSans-2212"/>
       <use xlink:href="#DejaVuSans-31" transform="translate(83.789062 0)"/>
      </g>
     </g>
    </g>
    <g id="ytick_5">
     <g id="line2d_11">
      <g>
       <use xlink:href="#m6224f9fcd2" x="57.6" y="61.643738" style="stroke: #000000; stroke-width: 0.8"/>
      </g>
     </g>
     <g id="text_12">
      <!-- 0 -->
      <g transform="translate(44.2375 65.442957) scale(0.1 -0.1)">
       <use xlink:href="#DejaVuSans-30"/>
      </g>
     </g>
    </g>
    <g id="text_13">
     <!-- Energy (Ha) -->
     <g transform="translate(29.778125 204.349094) rotate(-90) scale(0.1 -0.1)">
      <defs>
       <path id="DejaVuSans-45" d="M 628 4666 
L 3578 4666 
L 3578 4134 
L 1259 4134 
L 1259 2753 
L 3481 2753 
L 3481 2222 
L 1259 2222 
L 1259 531 
L 3634 531 
L 3634 0 
L 628 0 
L 628 4666 
z
" transform="scale(0.015625)"/>
       <path id="DejaVuSans-72" d="M 2631 2963 
Q 2534 3019 2420 3045 
Q 2306 3072 2169 3072 
Q 1681 3072 1420 2755 
Q 1159 2438 1159 1844 
L 1159 0 
L 581 0 
L 581 3500 
L 1159 3500 
L 1159 2956 
Q 1341 3275 1631 3429 
Q 1922 3584 2338 3584 
Q 2397 3584 2469 3576 
Q 2541 3569 2628 3553 
L 2631 2963 
z
" transform="scale(0.015625)"/>
       <path id="DejaVuSans-79" d="M 2059 -325 
Q 1816 -950 1584 -1140 
Q 1353 -1331 966 -1331 
L 506 -1331 
L 506 -850 
L 844 -850 
Q 1081 -850 1212 -737 
Q 1344 -625 1503 -206 
L 1606 56 
L 191 3500 
L 800 3500 
L 1894 763 
L 2988 3500 
L 3597 3500 
L 2059 -325 
z
" transform="scale(0.015625)"/>
       <path id="DejaVuSans-48" d="M 628 4666 
L 1259 4666 
L 1259 2753 
L 3553 2753 
L 3553 4666 
L 4184 4666 
L 4184 0 
L 3553 0 
L 3553 2222 
L 1259 2222 
L 1259 0 
L 628 0 
L 628 4666 
z
" transform="scale(0.015625)"/>
       <path id="DejaVuSans-61" d="M 2194 1759 
Q 1497 1759 1228 1600 
Q 959 1441 959 1056 
Q 959 750 1161 570 
Q 1363 391 1709 391 
Q 2188 391 2477 730 
Q 2766 1069 2766 1631 
L 2766 1759 
L 2194 1759 
z
M 3341 1997 
L 3341 0 
L 2766 0 
L 2766 531 
Q 2569 213 2275 61 
Q 1981 -91 1556 -91 
Q 1019 -91 701 211 
Q 384 513 384 1019 
Q 384 1609 779 1909 
Q 1175 2209 1959 2209 
L 2766 2209 
L 2766 2266 
Q 2766 2663 2505 2880 
Q 2244 3097 1772 3097 
Q 1472 3097 1187 3025 
Q 903 2953 641 2809 
L 641 3341 
Q 956 3463 1253 3523 
Q 1550 3584 1831 3584 
Q 2591 3584 2966 3190 
Q 3341 2797 3341 1997 
z
" transform="scale(0.015625)"/>
      </defs>
      <use xlink:href="#DejaVuSans-45"/>
      <use xlink:href="#DejaVuSans-6e" transform="translate(63.183594 0)"/>
      <use xlink:href="#DejaVuSans-65" transform="translate(126.5625 0)"/>
      <use xlink:href="#DejaVuSans-72" transform="translate(188.085938 0)"/>
      <use xlink:href="#DejaVuSans-67" transform="translate(227.449219 0)"/>
      <use xlink:href="#DejaVuSans-79" transform="translate(290.925781 0)"/>
      <use xlink:href="#DejaVuSans-20" transform="translate(350.105469 0)"/>
      <use xlink:href="#DejaVuSans-28" transform="translate(381.892578 0)"/>
      <use xlink:href="#DejaVuSans-48" transform="translate(420.90625 0)"/>
      <use xlink:href="#DejaVuSans-61" transform="translate(496.101562 0)"/>
      <use xlink:href="#DejaVuSans-29" transform="translate(557.380859 0)"/>
     </g>
    </g>
   </g>
   <g id="line2d_12">
    <path d="M 73.832727 53.568 
L 79.735537 77.657046 
L 85.638347 92.504438 
L 91.541157 102.117743 
L 97.443967 108.521648 
L 103.346777 112.842832 
L 109.249587 115.752694 
L 115.152397 117.674174 
L 121.055207 118.887267 
L 126.958017 119.585643 
L 132.860826 119.907923 
L 138.763636 119.955491 
L 144.666446 119.803219 
L 150.569256 119.506522 
L 156.472066 119.106453 
L 162.374876 118.633604 
L 168.277686 118.111104 
L 174.180496 117.556858 
L 180.083306 116.985122 
L 185.986116 116.407537 
L 191.888926 115.833766 
L 197.791736 115.271856 
L 203.694545 114.728445 
L 209.597355 114.208877 
L 215.500165 113.717298 
L 221.402975 113.256733 
L 227.305785 112.829179 
L 233.208595 112.435704 
L 239.111405 112.076557 
L 245.014215 111.75128 
L 250.917025 111.458831 
L 256.819835 111.197705 
L 262.722645 110.966041 
L 268.625455 110.761741 
L 274.528264 110.582561 
L 280.431074 110.426203 
L 286.333884 110.290379 
L 292.236694 110.172877 
L 298.139504 110.071595 
L 304.042314 109.984578 
L 309.945124 109.910029 
L 315.847934 109.846322 
L 321.750744 109.792 
L 327.653554 109.745769 
L 333.556364 109.706493 
L 339.459174 109.673177 
L 345.361983 109.644955 
L 351.264793 109.621081 
L 357.167603 109.600911 
L 363.070413 109.583891 
L 368.973223 109.569547 
L 374.876033 109.557474 
L 380.778843 109.547326 
L 386.681653 109.538808 
L 392.584463 109.531668 
L 398.487273 109.525692 
" clip-path="url(#p28ed9bec85)" style="fill: none; stroke: #377eb8; stroke-width: 1.5; stroke-linecap: square"/>
   </g>
   <g id="line2d_13">
    <path d="M 73.832727 62.745116 
L 79.735537 86.854231 
L 85.638347 101.725573 
L 91.541157 111.366008 
L 97.443967 117.799168 
L 103.346777 122.150333 
L 109.249587 125.08924 
L 115.152397 127.037031 
L 121.055207 128.271911 
L 126.958017 128.985881 
L 132.860826 129.316081 
L 138.763636 129.36261 
L 144.666446 129.19922 
L 150.569256 128.880319 
L 156.472066 128.446014 
L 162.374876 127.925981 
L 168.277686 127.342452 
L 174.180496 126.712459 
L 180.083306 126.049444 
L 185.986116 125.364322 
L 191.888926 124.666164 
L 197.791736 123.962597 
L 203.694545 123.260053 
L 209.597355 122.563917 
L 215.500165 121.878652 
L 221.402975 121.207894 
L 227.305785 120.554555 
L 233.208595 119.920916 
L 239.111405 119.308713 
L 245.014215 118.719225 
L 250.917025 118.153339 
L 256.819835 117.611615 
L 262.722645 117.094337 
L 268.625455 116.601554 
L 274.528264 116.133118 
L 280.431074 115.688715 
L 286.333884 115.267889 
L 292.236694 114.87007 
L 298.139504 114.494592 
L 304.042314 114.140716 
L 309.945124 113.807647 
L 315.847934 113.494551 
L 321.750744 113.20057 
L 327.653554 112.92484 
L 333.556364 112.666494 
L 339.459174 112.424678 
L 345.361983 112.198558 
L 351.264793 111.987322 
L 357.167603 111.790185 
L 363.070413 111.606393 
L 368.973223 111.435222 
L 374.876033 111.275979 
L 380.778843 111.128 
L 386.681653 110.990649 
L 392.584463 110.863317 
L 398.487273 110.745423 
" clip-path="url(#p28ed9bec85)" style="fill: none; stroke: #ff7f00; stroke-width: 1.5; stroke-linecap: square"/>
   </g>
   <g id="line2d_14">
    <path d="M 73.832727 61.325682 
L 79.735537 85.452028 
L 85.638347 100.342258 
L 91.541157 110.002544 
L 97.443967 116.456108 
L 103.346777 172.639707 
L 109.249587 174.822829 
L 115.152397 176.038758 
L 121.055207 176.524027 
L 126.958017 127.803182 
L 132.860826 128.136308 
L 138.763636 128.201674 
L 144.666446 128.076252 
L 150.569256 127.799093 
L 156.472066 127.410046 
L 162.374876 126.938344 
L 168.277686 126.405643 
L 174.180496 125.828319 
L 180.083306 125.219112 
L 185.986116 124.588247 
L 191.888926 123.944133 
L 197.791736 163.529029 
L 203.694545 122.643145 
L 209.597355 121.997123 
L 215.500165 159.886394 
L 221.402975 158.731958 
L 227.305785 157.612397 
L 233.208595 119.531002 
L 239.111405 155.484985 
L 245.014215 118.401746 
L 250.917025 117.868043 
L 256.819835 117.355914 
L 262.722645 116.865751 
L 268.625455 116.397731 
L 274.528264 115.95184 
L 280.431074 115.527902 
L 286.333884 115.125604 
L 292.236694 114.744512 
L 298.139504 114.384095 
L 304.042314 114.043742 
L 309.945124 113.722783 
L 315.847934 113.420499 
L 321.750744 113.136145 
L 327.653554 112.868957 
L 333.556364 112.618168 
L 339.459174 112.383017 
L 345.361983 112.162755 
L 351.264793 111.956649 
L 357.167603 111.76399 
L 363.070413 111.584093 
L 368.973223 111.416298 
L 374.876033 111.25997 
L 380.778843 111.1145 
L 386.681653 110.9793 
L 392.584463 110.853806 
L 398.487273 110.737476 
" clip-path="url(#p28ed9bec85)" style="fill: none; stroke: #f781bf; stroke-width: 1.5; stroke-linecap: square"/>
   </g>
   <g id="line2d_15">
    <path d="M 73.832727 61.393946 
L 79.735537 85.516303 
L 85.638347 100.402297 
L 91.541157 110.058367 
L 97.443967 116.507972 
L 103.346777 120.876502 
L 109.249587 123.834076 
L 115.152397 125.802413 
L 121.055207 127.060384 
L 126.958017 127.800628 
L 132.860826 128.160788 
L 138.763636 128.241262 
L 144.666446 128.115857 
L 150.569256 127.838799 
L 156.472066 127.449807 
L 162.374876 126.978009 
L 168.277686 126.44498 
L 174.180496 125.867046 
L 180.083306 125.256928 
L 185.986116 124.624852 
L 191.888926 123.979253 
L 197.791736 123.327197 
L 203.694545 122.674634 
L 209.597355 122.026564 
L 215.500165 121.387147 
L 221.402975 120.759803 
L 227.305785 120.147305 
L 233.208595 119.551861 
L 239.111405 118.975195 
L 245.014215 118.418615 
L 250.917025 117.883079 
L 256.819835 117.369242 
L 262.722645 116.877503 
L 268.625455 116.408037 
L 274.528264 115.960832 
L 280.431074 115.535708 
L 286.333884 115.132345 
L 292.236694 114.750305 
L 298.139504 114.389047 
L 304.042314 114.047955 
L 309.945124 113.726347 
L 315.847934 113.423499 
L 321.750744 113.138656 
L 327.653554 112.871048 
L 333.556364 112.619901 
L 339.459174 112.384445 
L 345.361983 112.163924 
L 351.264793 111.957602 
L 357.167603 111.764762 
L 363.070413 111.584716 
L 368.973223 111.416797 
L 374.876033 111.260368 
L 380.778843 111.114815 
L 386.681653 110.979548 
L 392.584463 110.854001 
L 398.487273 110.737628 
" clip-path="url(#p28ed9bec85)" style="fill: none; stroke: #a65628; stroke-width: 1.5; stroke-linecap: square"/>
   </g>
   <g id="line2d_16">
    <path d="M 73.832727 61.325682 
L 79.735537 85.452028 
L 85.638347 100.342258 
L 91.541157 110.002544 
L 97.443967 116.456108 
L 103.346777 172.639707 
L 109.249587 174.822829 
L 115.152397 176.005589 
L 121.055207 176.474773 
L 126.958017 127.760253 
L 132.860826 128.12099 
L 138.763636 128.201674 
L 144.666446 128.076252 
L 150.569256 127.799093 
L 156.472066 127.410046 
L 162.374876 126.938344 
L 168.277686 126.405643 
L 174.180496 125.828319 
L 180.083306 125.219112 
L 185.986116 124.588247 
L 191.888926 123.944133 
L 197.791736 163.529029 
L 203.694545 122.643145 
L 209.597355 121.997123 
L 215.500165 159.886394 
L 221.402975 158.731958 
L 227.305785 157.612397 
L 233.208595 119.531002 
L 239.111405 155.484985 
L 245.014215 118.401746 
L 250.917025 117.868042 
L 256.819835 117.355913 
L 262.722645 116.865751 
L 268.625455 116.397731 
L 274.528264 115.95184 
L 280.431074 115.527902 
L 286.333884 115.125604 
L 292.236694 114.744511 
L 298.139504 114.384094 
L 304.042314 114.043742 
L 309.945124 113.722783 
L 315.847934 113.420498 
L 321.750744 113.136144 
L 327.653554 112.868956 
L 333.556364 112.618168 
L 339.459174 112.383017 
L 345.361983 112.162755 
L 351.264793 111.956649 
L 357.167603 111.76399 
L 363.070413 111.584093 
L 368.973223 111.416298 
L 374.876033 111.25997 
L 380.778843 111.1145 
L 386.681653 110.9793 
L 392.584463 110.853806 
L 398.487273 110.737476 
" clip-path="url(#p28ed9bec85)" style="fill: none; stroke: #984ea3; stroke-width: 1.5; stroke-linecap: square"/>
   </g>
   <g id="line2d_17">
    <path d="M 73.832727 166.370404 
L 79.735537 198.407234 
L 85.638347 221.2555 
L 91.541157 238.496672 
L 97.443967 251.897115 
L 103.346777 262.456974 
L 109.249587 270.809064 
L 115.152397 277.390237 
L 121.055207 282.524182 
L 126.958017 286.46528 
L 132.860826 289.422522 
L 138.763636 291.572048 
L 144.666446 293.063287 
L 150.569256 294.022024 
L 156.472066 294.552513 
L 162.374876 294.73968 
L 168.277686 294.651748 
L 174.180496 294.343104 
L 180.083306 293.85713 
L 185.986116 293.228723 
L 191.888926 292.486355 
L 197.791736 291.653635 
L 203.694545 290.750431 
L 209.597355 289.79364 
L 215.500165 288.797713 
L 221.402975 287.775012 
L 227.305785 286.736076 
L 233.208595 285.689829 
L 239.111405 284.643758 
L 245.014215 283.604081 
L 250.917025 282.575893 
L 256.819835 281.563315 
L 262.722645 280.569622 
L 268.625455 279.59736 
L 274.528264 278.648461 
L 280.431074 277.724331 
L 286.333884 276.825938 
L 292.236694 275.953879 
L 298.139504 275.108448 
L 304.042314 274.289686 
L 309.945124 273.497425 
L 315.847934 272.731331 
L 321.750744 271.990934 
L 327.653554 271.275659 
L 333.556364 270.584848 
L 339.459174 269.917782 
L 345.361983 269.2737 
L 351.264793 268.651811 
L 357.167603 268.051309 
L 363.070413 267.471381 
L 368.973223 266.91122 
L 374.876033 266.370025 
L 380.778843 265.847014 
L 386.681653 265.341422 
L 392.584463 264.852508 
L 398.487273 264.379554 
" clip-path="url(#p28ed9bec85)" style="fill: none; stroke: #e41a1c; stroke-width: 1.5; stroke-linecap: square"/>
   </g>
   <g id="line2d_18">
    <path d="M 73.832727 167.453013 
L 79.735537 199.41393 
L 85.638347 222.180864 
L 91.541157 239.340611 
L 97.443967 252.664578 
L 103.346777 263.157254 
L 109.249587 271.454774 
L 115.152397 277.996126 
L 121.055207 283.105907 
L 126.958017 287.03829 
L 132.860826 290.001137 
L 138.763636 292.168789 
L 144.666446 293.688454 
L 150.569256 294.683513 
L 156.472066 295.255808 
L 162.374876 295.488 
L 168.277686 295.446271 
L 174.180496 295.183251 
L 180.083306 294.740872 
L 185.986116 294.152881 
L 191.888926 293.446887 
L 197.791736 292.645893 
L 203.694545 291.769389 
L 209.597355 290.834089 
L 215.500165 289.862692 
L 221.402975 288.884415 
L 227.305785 287.881651 
L 233.208595 286.863612 
L 239.111405 285.838176 
L 245.014215 284.812015 
L 250.917025 283.790724 
L 256.819835 282.778937 
L 262.722645 281.780444 
L 268.625455 280.7983 
L 274.528264 279.834923 
L 280.431074 278.892185 
L 286.333884 277.971494 
L 292.236694 277.073865 
L 298.139504 276.199983 
L 304.042314 275.350261 
L 309.945124 274.524886 
L 315.847934 273.723858 
L 321.750744 272.947027 
L 327.653554 272.194123 
L 333.556364 271.464779 
L 339.459174 270.758554 
L 345.361983 270.074948 
L 351.264793 269.413417 
L 357.167603 268.773386 
L 363.070413 268.154259 
L 368.973223 267.555422 
L 374.876033 266.976254 
L 380.778843 266.416131 
L 386.681653 265.874429 
L 392.584463 265.350527 
L 398.487273 264.843811 
" clip-path="url(#p28ed9bec85)" style="fill: none; stroke: #ffc300; stroke-width: 1.5; stroke-linecap: square"/>
   </g>
   <g id="patch_3">
    <path d="M 57.6 307.584 
L 57.6 41.472 
" style="fill: none; stroke: #000000; stroke-width: 0.8; stroke-linejoin: miter; stroke-linecap: square"/>
   </g>
   <g id="patch_4">
    <path d="M 414.72 307.584 
L 414.72 41.472 
" style="fill: none; stroke: #000000; stroke-width: 0.8; stroke-linejoin: miter; stroke-linecap: square"/>
   </g>
   <g id="patch_5">
    <path d="M 57.6 307.584 
L 414.72 307.584 
" style="fill: none; stroke: #000000; stroke-width: 0.8; stroke-linejoin: miter; stroke-linecap: square"/>
   </g>
   <g id="patch_6">
    <path d="M 57.6 41.472 
L 414.72 41.472 
" style="fill: none; stroke: #000000; stroke-width: 0.8; stroke-linejoin: miter; stroke-linecap: square"/>
   </g>
   <g id="text_14">
    <!-- H2 Energies from Partitioning, All Bounds -->
    <g transform="translate(112.441875 35.472) scale(0.12 -0.12)">
     <defs>
      <path id="DejaVuSans-69" d="M 603 3500 
L 1178 3500 
L 1178 0 
L 603 0 
L 603 3500 
z
M 603 4863 
L 1178 4863 
L 1178 4134 
L 603 4134 
L 603 4863 
z
" transform="scale(0.015625)"/>
      <path id="DejaVuSans-73" d="M 2834 3397 
L 2834 2853 
Q 2591 2978 2328 3040 
Q 2066 3103 1784 3103 
Q 1356 3103 1142 2972 
Q 928 2841 928 2578 
Q 928 2378 1081 2264 
Q 1234 2150 1697 2047 
L 1894 2003 
Q 2506 1872 2764 1633 
Q 3022 1394 3022 966 
Q 3022 478 2636 193 
Q 2250 -91 1575 -91 
Q 1294 -91 989 -36 
Q 684 19 347 128 
L 347 722 
Q 666 556 975 473 
Q 1284 391 1588 391 
Q 1994 391 2212 530 
Q 2431 669 2431 922 
Q 2431 1156 2273 1281 
Q 2116 1406 1581 1522 
L 1381 1569 
Q 847 1681 609 1914 
Q 372 2147 372 2553 
Q 372 3047 722 3315 
Q 1072 3584 1716 3584 
Q 2034 3584 2315 3537 
Q 2597 3491 2834 3397 
z
" transform="scale(0.015625)"/>
      <path id="DejaVuSans-66" d="M 2375 4863 
L 2375 4384 
L 1825 4384 
Q 1516 4384 1395 4259 
Q 1275 4134 1275 3809 
L 1275 3500 
L 2222 3500 
L 2222 3053 
L 1275 3053 
L 1275 0 
L 697 0 
L 697 3053 
L 147 3053 
L 147 3500 
L 697 3500 
L 697 3744 
Q 697 4328 969 4595 
Q 1241 4863 1831 4863 
L 2375 4863 
z
" transform="scale(0.015625)"/>
      <path id="DejaVuSans-6d" d="M 3328 2828 
Q 3544 3216 3844 3400 
Q 4144 3584 4550 3584 
Q 5097 3584 5394 3201 
Q 5691 2819 5691 2113 
L 5691 0 
L 5113 0 
L 5113 2094 
Q 5113 2597 4934 2840 
Q 4756 3084 4391 3084 
Q 3944 3084 3684 2787 
Q 3425 2491 3425 1978 
L 3425 0 
L 2847 0 
L 2847 2094 
Q 2847 2600 2669 2842 
Q 2491 3084 2119 3084 
Q 1678 3084 1418 2786 
Q 1159 2488 1159 1978 
L 1159 0 
L 581 0 
L 581 3500 
L 1159 3500 
L 1159 2956 
Q 1356 3278 1631 3431 
Q 1906 3584 2284 3584 
Q 2666 3584 2933 3390 
Q 3200 3197 3328 2828 
z
" transform="scale(0.015625)"/>
      <path id="DejaVuSans-50" d="M 1259 4147 
L 1259 2394 
L 2053 2394 
Q 2494 2394 2734 2622 
Q 2975 2850 2975 3272 
Q 2975 3691 2734 3919 
Q 2494 4147 2053 4147 
L 1259 4147 
z
M 628 4666 
L 2053 4666 
Q 2838 4666 3239 4311 
Q 3641 3956 3641 3272 
Q 3641 2581 3239 2228 
Q 2838 1875 2053 1875 
L 1259 1875 
L 1259 0 
L 628 0 
L 628 4666 
z
" transform="scale(0.015625)"/>
      <path id="DejaVuSans-2c" d="M 750 794 
L 1409 794 
L 1409 256 
L 897 -744 
L 494 -744 
L 750 256 
L 750 794 
z
" transform="scale(0.015625)"/>
      <path id="DejaVuSans-41" d="M 2188 4044 
L 1331 1722 
L 3047 1722 
L 2188 4044 
z
M 1831 4666 
L 2547 4666 
L 4325 0 
L 3669 0 
L 3244 1197 
L 1141 1197 
L 716 0 
L 50 0 
L 1831 4666 
z
" transform="scale(0.015625)"/>
      <path id="DejaVuSans-6c" d="M 603 4863 
L 1178 4863 
L 1178 0 
L 603 0 
L 603 4863 
z
" transform="scale(0.015625)"/>
      <path id="DejaVuSans-75" d="M 544 1381 
L 544 3500 
L 1119 3500 
L 1119 1403 
Q 1119 906 1312 657 
Q 1506 409 1894 409 
Q 2359 409 2629 706 
Q 2900 1003 2900 1516 
L 2900 3500 
L 3475 3500 
L 3475 0 
L 2900 0 
L 2900 538 
Q 2691 219 2414 64 
Q 2138 -91 1772 -91 
Q 1169 -91 856 284 
Q 544 659 544 1381 
z
M 1991 3584 
L 1991 3584 
z
" transform="scale(0.015625)"/>
     </defs>
     <use xlink:href="#DejaVuSans-48"/>
     <use xlink:href="#DejaVuSans-32" transform="translate(75.195312 0)"/>
     <use xlink:href="#DejaVuSans-20" transform="translate(138.818359 0)"/>
     <use xlink:href="#DejaVuSans-45" transform="translate(170.605469 0)"/>
     <use xlink:href="#DejaVuSans-6e" transform="translate(233.789062 0)"/>
     <use xlink:href="#DejaVuSans-65" transform="translate(297.167969 0)"/>
     <use xlink:href="#DejaVuSans-72" transform="translate(358.691406 0)"/>
     <use xlink:href="#DejaVuSans-67" transform="translate(398.054688 0)"/>
     <use xlink:href="#DejaVuSans-69" transform="translate(461.53125 0)"/>
     <use xlink:href="#DejaVuSans-65" transform="translate(489.314453 0)"/>
     <use xlink:href="#DejaVuSans-73" transform="translate(550.837891 0)"/>
     <use xlink:href="#DejaVuSans-20" transform="translate(602.9375 0)"/>
     <use xlink:href="#DejaVuSans-66" transform="translate(634.724609 0)"/>
     <use xlink:href="#DejaVuSans-72" transform="translate(669.929688 0)"/>
     <use xlink:href="#DejaVuSans-6f" transform="translate(708.792969 0)"/>
     <use xlink:href="#DejaVuSans-6d" transform="translate(769.974609 0)"/>
     <use xlink:href="#DejaVuSans-20" transform="translate(867.386719 0)"/>
     <use xlink:href="#DejaVuSans-50" transform="translate(899.173828 0)"/>
     <use xlink:href="#DejaVuSans-61" transform="translate(954.976562 0)"/>
     <use xlink:href="#DejaVuSans-72" transform="translate(1016.255859 0)"/>
     <use xlink:href="#DejaVuSans-74" transform="translate(1057.369141 0)"/>
     <use xlink:href="#DejaVuSans-69" transform="translate(1096.578125 0)"/>
     <use xlink:href="#DejaVuSans-74" transform="translate(1124.361328 0)"/>
     <use xlink:href="#DejaVuSans-69" transform="translate(1163.570312 0)"/>
     <use xlink:href="#DejaVuSans-6f" transform="translate(1191.353516 0)"/>
     <use xlink:href="#DejaVuSans-6e" transform="translate(1252.535156 0)"/>
     <use xlink:href="#DejaVuSans-69" transform="translate(1315.914062 0)"/>
     <use xlink:href="#DejaVuSans-6e" transform="translate(1343.697266 0)"/>
     <use xlink:href="#DejaVuSans-67" transform="translate(1407.076172 0)"/>
     <use xlink:href="#DejaVuSans-2c" transform="translate(1470.552734 0)"/>
     <use xlink:href="#DejaVuSans-20" transform="translate(1502.339844 0)"/>
     <use xlink:href="#DejaVuSans-41" transform="translate(1534.126953 0)"/>
     <use xlink:href="#DejaVuSans-6c" transform="translate(1602.535156 0)"/>
     <use xlink:href="#DejaVuSans-6c" transform="translate(1630.318359 0)"/>
     <use xlink:href="#DejaVuSans-20" transform="translate(1658.101562 0)"/>
     <use xlink:href="#DejaVuSans-42" transform="translate(1689.888672 0)"/>
     <use xlink:href="#DejaVuSans-6f" transform="translate(1758.492188 0)"/>
     <use xlink:href="#DejaVuSans-75" transform="translate(1819.673828 0)"/>
     <use xlink:href="#DejaVuSans-6e" transform="translate(1883.052734 0)"/>
     <use xlink:href="#DejaVuSans-64" transform="translate(1946.431641 0)"/>
     <use xlink:href="#DejaVuSans-73" transform="translate(2009.908203 0)"/>
    </g>
   </g>
   <g id="legend_1">
    <g id="patch_7">
     <path d="M 269.00125 227.401437 
L 407.72 227.401437 
Q 409.72 227.401437 409.72 225.401437 
L 409.72 123.654562 
Q 409.72 121.654562 407.72 121.654562 
L 269.00125 121.654562 
Q 267.00125 121.654562 267.00125 123.654562 
L 267.00125 225.401437 
Q 267.00125 227.401437 269.00125 227.401437 
z
" style="fill: #ffffff; opacity: 0.8; stroke: #cccccc; stroke-linejoin: miter"/>
    </g>
    <g id="line2d_19">
     <path d="M 271.00125 129.753 
L 281.00125 129.753 
L 291.00125 129.753 
" style="fill: none; stroke: #377eb8; stroke-width: 1.5; stroke-linecap: square"/>
    </g>
    <g id="text_15">
     <!-- No Partitioning -->
     <g transform="translate(299.00125 133.253) scale(0.1 -0.1)">
      <defs>
       <path id="DejaVuSans-4e" d="M 628 4666 
L 1478 4666 
L 3547 763 
L 3547 4666 
L 4159 4666 
L 4159 0 
L 3309 0 
L 1241 3903 
L 1241 0 
L 628 0 
L 628 4666 
z
" transform="scale(0.015625)"/>
      </defs>
      <use xlink:href="#DejaVuSans-4e"/>
      <use xlink:href="#DejaVuSans-6f" transform="translate(74.804688 0)"/>
      <use xlink:href="#DejaVuSans-20" transform="translate(135.986328 0)"/>
      <use xlink:href="#DejaVuSans-50" transform="translate(167.773438 0)"/>
      <use xlink:href="#DejaVuSans-61" transform="translate(223.576172 0)"/>
      <use xlink:href="#DejaVuSans-72" transform="translate(284.855469 0)"/>
      <use xlink:href="#DejaVuSans-74" transform="translate(325.96875 0)"/>
      <use xlink:href="#DejaVuSans-69" transform="translate(365.177734 0)"/>
      <use xlink:href="#DejaVuSans-74" transform="translate(392.960938 0)"/>
      <use xlink:href="#DejaVuSans-69" transform="translate(432.169922 0)"/>
      <use xlink:href="#DejaVuSans-6f" transform="translate(459.953125 0)"/>
      <use xlink:href="#DejaVuSans-6e" transform="translate(521.134766 0)"/>
      <use xlink:href="#DejaVuSans-69" transform="translate(584.513672 0)"/>
      <use xlink:href="#DejaVuSans-6e" transform="translate(612.296875 0)"/>
      <use xlink:href="#DejaVuSans-67" transform="translate(675.675781 0)"/>
     </g>
    </g>
    <g id="line2d_20">
     <path d="M 271.00125 144.431125 
L 281.00125 144.431125 
L 291.00125 144.431125 
" style="fill: none; stroke: #ff7f00; stroke-width: 1.5; stroke-linecap: square"/>
    </g>
    <g id="text_16">
     <!-- LR F(M, 2) -->
     <g transform="translate(299.00125 147.931125) scale(0.1 -0.1)">
      <defs>
       <path id="DejaVuSans-52" d="M 2841 2188 
Q 3044 2119 3236 1894 
Q 3428 1669 3622 1275 
L 4263 0 
L 3584 0 
L 2988 1197 
Q 2756 1666 2539 1819 
Q 2322 1972 1947 1972 
L 1259 1972 
L 1259 0 
L 628 0 
L 628 4666 
L 2053 4666 
Q 2853 4666 3247 4331 
Q 3641 3997 3641 3322 
Q 3641 2881 3436 2590 
Q 3231 2300 2841 2188 
z
M 1259 4147 
L 1259 2491 
L 2053 2491 
Q 2509 2491 2742 2702 
Q 2975 2913 2975 3322 
Q 2975 3731 2742 3939 
Q 2509 4147 2053 4147 
L 1259 4147 
z
" transform="scale(0.015625)"/>
       <path id="DejaVuSans-46" d="M 628 4666 
L 3309 4666 
L 3309 4134 
L 1259 4134 
L 1259 2759 
L 3109 2759 
L 3109 2228 
L 1259 2228 
L 1259 0 
L 628 0 
L 628 4666 
z
" transform="scale(0.015625)"/>
       <path id="DejaVuSans-4d" d="M 628 4666 
L 1569 4666 
L 2759 1491 
L 3956 4666 
L 4897 4666 
L 4897 0 
L 4281 0 
L 4281 4097 
L 3078 897 
L 2444 897 
L 1241 4097 
L 1241 0 
L 628 0 
L 628 4666 
z
" transform="scale(0.015625)"/>
      </defs>
      <use xlink:href="#DejaVuSans-4c"/>
      <use xlink:href="#DejaVuSans-52" transform="translate(55.712891 0)"/>
      <use xlink:href="#DejaVuSans-20" transform="translate(125.195312 0)"/>
      <use xlink:href="#DejaVuSans-46" transform="translate(156.982422 0)"/>
      <use xlink:href="#DejaVuSans-28" transform="translate(214.501953 0)"/>
      <use xlink:href="#DejaVuSans-4d" transform="translate(253.515625 0)"/>
      <use xlink:href="#DejaVuSans-2c" transform="translate(339.794922 0)"/>
      <use xlink:href="#DejaVuSans-20" transform="translate(371.582031 0)"/>
      <use xlink:href="#DejaVuSans-32" transform="translate(403.369141 0)"/>
      <use xlink:href="#DejaVuSans-29" transform="translate(466.992188 0)"/>
     </g>
    </g>
    <g id="line2d_21">
     <path d="M 271.00125 159.10925 
L 281.00125 159.10925 
L 291.00125 159.10925 
" style="fill: none; stroke: #f781bf; stroke-width: 1.5; stroke-linecap: square"/>
    </g>
    <g id="text_17">
     <!-- GFRO F(M, 2) -->
     <g transform="translate(299.00125 162.60925) scale(0.1 -0.1)">
      <defs>
       <path id="DejaVuSans-47" d="M 3809 666 
L 3809 1919 
L 2778 1919 
L 2778 2438 
L 4434 2438 
L 4434 434 
Q 4069 175 3628 42 
Q 3188 -91 2688 -91 
Q 1594 -91 976 548 
Q 359 1188 359 2328 
Q 359 3472 976 4111 
Q 1594 4750 2688 4750 
Q 3144 4750 3555 4637 
Q 3966 4525 4313 4306 
L 4313 3634 
Q 3963 3931 3569 4081 
Q 3175 4231 2741 4231 
Q 1884 4231 1454 3753 
Q 1025 3275 1025 2328 
Q 1025 1384 1454 906 
Q 1884 428 2741 428 
Q 3075 428 3337 486 
Q 3600 544 3809 666 
z
" transform="scale(0.015625)"/>
       <path id="DejaVuSans-4f" d="M 2522 4238 
Q 1834 4238 1429 3725 
Q 1025 3213 1025 2328 
Q 1025 1447 1429 934 
Q 1834 422 2522 422 
Q 3209 422 3611 934 
Q 4013 1447 4013 2328 
Q 4013 3213 3611 3725 
Q 3209 4238 2522 4238 
z
M 2522 4750 
Q 3503 4750 4090 4092 
Q 4678 3434 4678 2328 
Q 4678 1225 4090 567 
Q 3503 -91 2522 -91 
Q 1538 -91 948 565 
Q 359 1222 359 2328 
Q 359 3434 948 4092 
Q 1538 4750 2522 4750 
z
" transform="scale(0.015625)"/>
      </defs>
      <use xlink:href="#DejaVuSans-47"/>
      <use xlink:href="#DejaVuSans-46" transform="translate(77.490234 0)"/>
      <use xlink:href="#DejaVuSans-52" transform="translate(135.009766 0)"/>
      <use xlink:href="#DejaVuSans-4f" transform="translate(204.492188 0)"/>
      <use xlink:href="#DejaVuSans-20" transform="translate(283.203125 0)"/>
      <use xlink:href="#DejaVuSans-46" transform="translate(314.990234 0)"/>
      <use xlink:href="#DejaVuSans-28" transform="translate(372.509766 0)"/>
      <use xlink:href="#DejaVuSans-4d" transform="translate(411.523438 0)"/>
      <use xlink:href="#DejaVuSans-2c" transform="translate(497.802734 0)"/>
      <use xlink:href="#DejaVuSans-20" transform="translate(529.589844 0)"/>
      <use xlink:href="#DejaVuSans-32" transform="translate(561.376953 0)"/>
      <use xlink:href="#DejaVuSans-29" transform="translate(625 0)"/>
     </g>
    </g>
    <g id="line2d_22">
     <path d="M 271.00125 173.787375 
L 281.00125 173.787375 
L 291.00125 173.787375 
" style="fill: none; stroke: #a65628; stroke-width: 1.5; stroke-linecap: square"/>
    </g>
    <g id="text_18">
     <!-- LR F(M, 2) + Spin -->
     <g transform="translate(299.00125 177.287375) scale(0.1 -0.1)">
      <defs>
       <path id="DejaVuSans-2b" d="M 2944 4013 
L 2944 2272 
L 4684 2272 
L 4684 1741 
L 2944 1741 
L 2944 0 
L 2419 0 
L 2419 1741 
L 678 1741 
L 678 2272 
L 2419 2272 
L 2419 4013 
L 2944 4013 
z
" transform="scale(0.015625)"/>
       <path id="DejaVuSans-53" d="M 3425 4513 
L 3425 3897 
Q 3066 4069 2747 4153 
Q 2428 4238 2131 4238 
Q 1616 4238 1336 4038 
Q 1056 3838 1056 3469 
Q 1056 3159 1242 3001 
Q 1428 2844 1947 2747 
L 2328 2669 
Q 3034 2534 3370 2195 
Q 3706 1856 3706 1288 
Q 3706 609 3251 259 
Q 2797 -91 1919 -91 
Q 1588 -91 1214 -16 
Q 841 59 441 206 
L 441 856 
Q 825 641 1194 531 
Q 1563 422 1919 422 
Q 2459 422 2753 634 
Q 3047 847 3047 1241 
Q 3047 1584 2836 1778 
Q 2625 1972 2144 2069 
L 1759 2144 
Q 1053 2284 737 2584 
Q 422 2884 422 3419 
Q 422 4038 858 4394 
Q 1294 4750 2059 4750 
Q 2388 4750 2728 4690 
Q 3069 4631 3425 4513 
z
" transform="scale(0.015625)"/>
       <path id="DejaVuSans-70" d="M 1159 525 
L 1159 -1331 
L 581 -1331 
L 581 3500 
L 1159 3500 
L 1159 2969 
Q 1341 3281 1617 3432 
Q 1894 3584 2278 3584 
Q 2916 3584 3314 3078 
Q 3713 2572 3713 1747 
Q 3713 922 3314 415 
Q 2916 -91 2278 -91 
Q 1894 -91 1617 61 
Q 1341 213 1159 525 
z
M 3116 1747 
Q 3116 2381 2855 2742 
Q 2594 3103 2138 3103 
Q 1681 3103 1420 2742 
Q 1159 2381 1159 1747 
Q 1159 1113 1420 752 
Q 1681 391 2138 391 
Q 2594 391 2855 752 
Q 3116 1113 3116 1747 
z
" transform="scale(0.015625)"/>
      </defs>
      <use xlink:href="#DejaVuSans-4c"/>
      <use xlink:href="#DejaVuSans-52" transform="translate(55.712891 0)"/>
      <use xlink:href="#DejaVuSans-20" transform="translate(125.195312 0)"/>
      <use xlink:href="#DejaVuSans-46" transform="translate(156.982422 0)"/>
      <use xlink:href="#DejaVuSans-28" transform="translate(214.501953 0)"/>
      <use xlink:href="#DejaVuSans-4d" transform="translate(253.515625 0)"/>
      <use xlink:href="#DejaVuSans-2c" transform="translate(339.794922 0)"/>
      <use xlink:href="#DejaVuSans-20" transform="translate(371.582031 0)"/>
      <use xlink:href="#DejaVuSans-32" transform="translate(403.369141 0)"/>
      <use xlink:href="#DejaVuSans-29" transform="translate(466.992188 0)"/>
      <use xlink:href="#DejaVuSans-20" transform="translate(506.005859 0)"/>
      <use xlink:href="#DejaVuSans-2b" transform="translate(537.792969 0)"/>
      <use xlink:href="#DejaVuSans-20" transform="translate(621.582031 0)"/>
      <use xlink:href="#DejaVuSans-53" transform="translate(653.369141 0)"/>
      <use xlink:href="#DejaVuSans-70" transform="translate(716.845703 0)"/>
      <use xlink:href="#DejaVuSans-69" transform="translate(780.322266 0)"/>
      <use xlink:href="#DejaVuSans-6e" transform="translate(808.105469 0)"/>
     </g>
    </g>
    <g id="line2d_23">
     <path d="M 271.00125 188.4655 
L 281.00125 188.4655 
L 291.00125 188.4655 
" style="fill: none; stroke: #984ea3; stroke-width: 1.5; stroke-linecap: square"/>
    </g>
    <g id="text_19">
     <!-- GFRO F(M, 2) + Spin -->
     <g transform="translate(299.00125 191.9655) scale(0.1 -0.1)">
      <use xlink:href="#DejaVuSans-47"/>
      <use xlink:href="#DejaVuSans-46" transform="translate(77.490234 0)"/>
      <use xlink:href="#DejaVuSans-52" transform="translate(135.009766 0)"/>
      <use xlink:href="#DejaVuSans-4f" transform="translate(204.492188 0)"/>
      <use xlink:href="#DejaVuSans-20" transform="translate(283.203125 0)"/>
      <use xlink:href="#DejaVuSans-46" transform="translate(314.990234 0)"/>
      <use xlink:href="#DejaVuSans-28" transform="translate(372.509766 0)"/>
      <use xlink:href="#DejaVuSans-4d" transform="translate(411.523438 0)"/>
      <use xlink:href="#DejaVuSans-2c" transform="translate(497.802734 0)"/>
      <use xlink:href="#DejaVuSans-20" transform="translate(529.589844 0)"/>
      <use xlink:href="#DejaVuSans-32" transform="translate(561.376953 0)"/>
      <use xlink:href="#DejaVuSans-29" transform="translate(625 0)"/>
      <use xlink:href="#DejaVuSans-20" transform="translate(664.013672 0)"/>
      <use xlink:href="#DejaVuSans-2b" transform="translate(695.800781 0)"/>
      <use xlink:href="#DejaVuSans-20" transform="translate(779.589844 0)"/>
      <use xlink:href="#DejaVuSans-53" transform="translate(811.376953 0)"/>
      <use xlink:href="#DejaVuSans-70" transform="translate(874.853516 0)"/>
      <use xlink:href="#DejaVuSans-69" transform="translate(938.330078 0)"/>
      <use xlink:href="#DejaVuSans-6e" transform="translate(966.113281 0)"/>
     </g>
    </g>
    <g id="line2d_24">
     <path d="M 271.00125 203.143625 
L 281.00125 203.143625 
L 291.00125 203.143625 
" style="fill: none; stroke: #e41a1c; stroke-width: 1.5; stroke-linecap: square"/>
    </g>
    <g id="text_20">
     <!-- LR: All Fock Space -->
     <g transform="translate(299.00125 206.643625) scale(0.1 -0.1)">
      <defs>
       <path id="DejaVuSans-3a" d="M 750 794 
L 1409 794 
L 1409 0 
L 750 0 
L 750 794 
z
M 750 3309 
L 1409 3309 
L 1409 2516 
L 750 2516 
L 750 3309 
z
" transform="scale(0.015625)"/>
       <path id="DejaVuSans-63" d="M 3122 3366 
L 3122 2828 
Q 2878 2963 2633 3030 
Q 2388 3097 2138 3097 
Q 1578 3097 1268 2742 
Q 959 2388 959 1747 
Q 959 1106 1268 751 
Q 1578 397 2138 397 
Q 2388 397 2633 464 
Q 2878 531 3122 666 
L 3122 134 
Q 2881 22 2623 -34 
Q 2366 -91 2075 -91 
Q 1284 -91 818 406 
Q 353 903 353 1747 
Q 353 2603 823 3093 
Q 1294 3584 2113 3584 
Q 2378 3584 2631 3529 
Q 2884 3475 3122 3366 
z
" transform="scale(0.015625)"/>
       <path id="DejaVuSans-6b" d="M 581 4863 
L 1159 4863 
L 1159 1991 
L 2875 3500 
L 3609 3500 
L 1753 1863 
L 3688 0 
L 2938 0 
L 1159 1709 
L 1159 0 
L 581 0 
L 581 4863 
z
" transform="scale(0.015625)"/>
      </defs>
      <use xlink:href="#DejaVuSans-4c"/>
      <use xlink:href="#DejaVuSans-52" transform="translate(55.712891 0)"/>
      <use xlink:href="#DejaVuSans-3a" transform="translate(122.070312 0)"/>
      <use xlink:href="#DejaVuSans-20" transform="translate(155.761719 0)"/>
      <use xlink:href="#DejaVuSans-41" transform="translate(187.548828 0)"/>
      <use xlink:href="#DejaVuSans-6c" transform="translate(255.957031 0)"/>
      <use xlink:href="#DejaVuSans-6c" transform="translate(283.740234 0)"/>
      <use xlink:href="#DejaVuSans-20" transform="translate(311.523438 0)"/>
      <use xlink:href="#DejaVuSans-46" transform="translate(343.310547 0)"/>
      <use xlink:href="#DejaVuSans-6f" transform="translate(397.205078 0)"/>
      <use xlink:href="#DejaVuSans-63" transform="translate(458.386719 0)"/>
      <use xlink:href="#DejaVuSans-6b" transform="translate(513.367188 0)"/>
      <use xlink:href="#DejaVuSans-20" transform="translate(571.277344 0)"/>
      <use xlink:href="#DejaVuSans-53" transform="translate(603.064453 0)"/>
      <use xlink:href="#DejaVuSans-70" transform="translate(666.541016 0)"/>
      <use xlink:href="#DejaVuSans-61" transform="translate(730.017578 0)"/>
      <use xlink:href="#DejaVuSans-63" transform="translate(791.296875 0)"/>
      <use xlink:href="#DejaVuSans-65" transform="translate(846.277344 0)"/>
     </g>
    </g>
    <g id="line2d_25">
     <path d="M 271.00125 217.82175 
L 281.00125 217.82175 
L 291.00125 217.82175 
" style="fill: none; stroke: #ffc300; stroke-width: 1.5; stroke-linecap: square"/>
    </g>
    <g id="text_21">
     <!-- GFRO: All Fock Space -->
     <g transform="translate(299.00125 221.32175) scale(0.1 -0.1)">
      <use xlink:href="#DejaVuSans-47"/>
      <use xlink:href="#DejaVuSans-46" transform="translate(77.490234 0)"/>
      <use xlink:href="#DejaVuSans-52" transform="translate(135.009766 0)"/>
      <use xlink:href="#DejaVuSans-4f" transform="translate(204.492188 0)"/>
      <use xlink:href="#DejaVuSans-3a" transform="translate(281.453125 0)"/>
      <use xlink:href="#DejaVuSans-20" transform="translate(315.144531 0)"/>
      <use xlink:href="#DejaVuSans-41" transform="translate(346.931641 0)"/>
      <use xlink:href="#DejaVuSans-6c" transform="translate(415.339844 0)"/>
      <use xlink:href="#DejaVuSans-6c" transform="translate(443.123047 0)"/>
      <use xlink:href="#DejaVuSans-20" transform="translate(470.90625 0)"/>
      <use xlink:href="#DejaVuSans-46" transform="translate(502.693359 0)"/>
      <use xlink:href="#DejaVuSans-6f" transform="translate(556.587891 0)"/>
      <use xlink:href="#DejaVuSans-63" transform="translate(617.769531 0)"/>
      <use xlink:href="#DejaVuSans-6b" transform="translate(672.75 0)"/>
      <use xlink:href="#DejaVuSans-20" transform="translate(730.660156 0)"/>
      <use xlink:href="#DejaVuSans-53" transform="translate(762.447266 0)"/>
      <use xlink:href="#DejaVuSans-70" transform="translate(825.923828 0)"/>
      <use xlink:href="#DejaVuSans-61" transform="translate(889.400391 0)"/>
      <use xlink:href="#DejaVuSans-63" transform="translate(950.679688 0)"/>
      <use xlink:href="#DejaVuSans-65" transform="translate(1005.660156 0)"/>
     </g>
    </g>
   </g>
  </g>
 </g>
 <defs>
  <clipPath id="p28ed9bec85">
   <rect x="57.6" y="41.472" width="357.12" height="266.112"/>
  </clipPath>
 </defs>
</svg>
