<?xml version="1.0" encoding="utf-8" standalone="no"?>
<!DOCTYPE svg PUBLIC "-//W3C//DTD SVG 1.1//EN"
  "http://www.w3.org/Graphics/SVG/1.1/DTD/svg11.dtd">
<svg xmlns:xlink="http://www.w3.org/1999/xlink" width="460.8pt" height="345.6pt" viewBox="0 0 460.8 345.6" xmlns="http://www.w3.org/2000/svg" version="1.1">
 <metadata>
  <rdf:RDF xmlns:dc="http://purl.org/dc/elements/1.1/" xmlns:cc="http://creativecommons.org/ns#" xmlns:rdf="http://www.w3.org/1999/02/22-rdf-syntax-ns#">
   <cc:Work>
    <dc:type rdf:resource="http://purl.org/dc/dcmitype/StillImage"/>
    <dc:date>2025-07-03T15:35:20.921589</dc:date>
    <dc:format>image/svg+xml</dc:format>
    <dc:creator>
     <cc:Agent>
      <dc:title>Matplotlib v3.10.1, https://matplotlib.org/</dc:title>
     </cc:Agent>
    </dc:creator>
   </cc:Work>
  </rdf:RDF>
 </metadata>
 <defs>
  <style type="text/css">*{stroke-linejoin: round; stroke-linecap: butt}</style>
 </defs>
 <g id="figure_1">
  <g id="patch_1">
   <path d="M 0 345.6 
L 460.8 345.6 
L 460.8 0 
L 0 0 
z
" style="fill: #ffffff"/>
  </g>
  <g id="axes_1">
   <g id="patch_2">
    <path d="M 57.6 307.584 
L 414.72 307.584 
L 414.72 41.472 
L 57.6 41.472 
z
" style="fill: #ffffff"/>
   </g>
   <g id="matplotlib.axis_1">
    <g id="xtick_1">
     <g id="line2d_1">
      <defs>
       <path id="m50d90f37d2" d="M 0 0 
L 0 3.5 
" style="stroke: #000000; stroke-width: 0.8"/>
      </defs>
      <g>
       <use xlink:href="#m50d90f37d2" x="109.249587" y="307.584" style="stroke: #000000; stroke-width: 0.8"/>
      </g>
     </g>
     <g id="text_1">
      <!-- 0.5 -->
      <g transform="translate(101.298024 322.182437) scale(0.1 -0.1)">
       <defs>
        <path id="DejaVuSans-30" d="M 2034 4250 
Q 1547 4250 1301 3770 
Q 1056 3291 1056 2328 
Q 1056 1369 1301 889 
Q 1547 409 2034 409 
Q 2525 409 2770 889 
Q 3016 1369 3016 2328 
Q 3016 3291 2770 3770 
Q 2525 4250 2034 4250 
z
M 2034 4750 
Q 2819 4750 3233 4129 
Q 3647 3509 3647 2328 
Q 3647 1150 3233 529 
Q 2819 -91 2034 -91 
Q 1250 -91 836 529 
Q 422 1150 422 2328 
Q 422 3509 836 4129 
Q 1250 4750 2034 4750 
z
" transform="scale(0.015625)"/>
        <path id="DejaVuSans-2e" d="M 684 794 
L 1344 794 
L 1344 0 
L 684 0 
L 684 794 
z
" transform="scale(0.015625)"/>
        <path id="DejaVuSans-35" d="M 691 4666 
L 3169 4666 
L 3169 4134 
L 1269 4134 
L 1269 2991 
Q 1406 3038 1543 3061 
Q 1681 3084 1819 3084 
Q 2600 3084 3056 2656 
Q 3513 2228 3513 1497 
Q 3513 744 3044 326 
Q 2575 -91 1722 -91 
Q 1428 -91 1123 -41 
Q 819 9 494 109 
L 494 744 
Q 775 591 1075 516 
Q 1375 441 1709 441 
Q 2250 441 2565 725 
Q 2881 1009 2881 1497 
Q 2881 1984 2565 2268 
Q 2250 2553 1709 2553 
Q 1456 2553 1204 2497 
Q 953 2441 691 2322 
L 691 4666 
z
" transform="scale(0.015625)"/>
       </defs>
       <use xlink:href="#DejaVuSans-30"/>
       <use xlink:href="#DejaVuSans-2e" transform="translate(63.623047 0)"/>
       <use xlink:href="#DejaVuSans-35" transform="translate(95.410156 0)"/>
      </g>
     </g>
    </g>
    <g id="xtick_2">
     <g id="line2d_2">
      <g>
       <use xlink:href="#m50d90f37d2" x="168.277686" y="307.584" style="stroke: #000000; stroke-width: 0.8"/>
      </g>
     </g>
     <g id="text_2">
      <!-- 1.0 -->
      <g transform="translate(160.326123 322.182437) scale(0.1 -0.1)">
       <defs>
        <path id="DejaVuSans-31" d="M 794 531 
L 1825 531 
L 1825 4091 
L 703 3866 
L 703 4441 
L 1819 4666 
L 2450 4666 
L 2450 531 
L 3481 531 
L 3481 0 
L 794 0 
L 794 531 
z
" transform="scale(0.015625)"/>
       </defs>
       <use xlink:href="#DejaVuSans-31"/>
       <use xlink:href="#DejaVuSans-2e" transform="translate(63.623047 0)"/>
       <use xlink:href="#DejaVuSans-30" transform="translate(95.410156 0)"/>
      </g>
     </g>
    </g>
    <g id="xtick_3">
     <g id="line2d_3">
      <g>
       <use xlink:href="#m50d90f37d2" x="227.305785" y="307.584" style="stroke: #000000; stroke-width: 0.8"/>
      </g>
     </g>
     <g id="text_3">
      <!-- 1.5 -->
      <g transform="translate(219.354223 322.182437) scale(0.1 -0.1)">
       <use xlink:href="#DejaVuSans-31"/>
       <use xlink:href="#DejaVuSans-2e" transform="translate(63.623047 0)"/>
       <use xlink:href="#DejaVuSans-35" transform="translate(95.410156 0)"/>
      </g>
     </g>
    </g>
    <g id="xtick_4">
     <g id="line2d_4">
      <g>
       <use xlink:href="#m50d90f37d2" x="286.333884" y="307.584" style="stroke: #000000; stroke-width: 0.8"/>
      </g>
     </g>
     <g id="text_4">
      <!-- 2.0 -->
      <g transform="translate(278.382322 322.182437) scale(0.1 -0.1)">
       <defs>
        <path id="DejaVuSans-32" d="M 1228 531 
L 3431 531 
L 3431 0 
L 469 0 
L 469 531 
Q 828 903 1448 1529 
Q 2069 2156 2228 2338 
Q 2531 2678 2651 2914 
Q 2772 3150 2772 3378 
Q 2772 3750 2511 3984 
Q 2250 4219 1831 4219 
Q 1534 4219 1204 4116 
Q 875 4013 500 3803 
L 500 4441 
Q 881 4594 1212 4672 
Q 1544 4750 1819 4750 
Q 2544 4750 2975 4387 
Q 3406 4025 3406 3419 
Q 3406 3131 3298 2873 
Q 3191 2616 2906 2266 
Q 2828 2175 2409 1742 
Q 1991 1309 1228 531 
z
" transform="scale(0.015625)"/>
       </defs>
       <use xlink:href="#DejaVuSans-32"/>
       <use xlink:href="#DejaVuSans-2e" transform="translate(63.623047 0)"/>
       <use xlink:href="#DejaVuSans-30" transform="translate(95.410156 0)"/>
      </g>
     </g>
    </g>
    <g id="xtick_5">
     <g id="line2d_5">
      <g>
       <use xlink:href="#m50d90f37d2" x="345.361983" y="307.584" style="stroke: #000000; stroke-width: 0.8"/>
      </g>
     </g>
     <g id="text_5">
      <!-- 2.5 -->
      <g transform="translate(337.410421 322.182437) scale(0.1 -0.1)">
       <use xlink:href="#DejaVuSans-32"/>
       <use xlink:href="#DejaVuSans-2e" transform="translate(63.623047 0)"/>
       <use xlink:href="#DejaVuSans-35" transform="translate(95.410156 0)"/>
      </g>
     </g>
    </g>
    <g id="xtick_6">
     <g id="line2d_6">
      <g>
       <use xlink:href="#m50d90f37d2" x="404.390083" y="307.584" style="stroke: #000000; stroke-width: 0.8"/>
      </g>
     </g>
     <g id="text_6">
      <!-- 3.0 -->
      <g transform="translate(396.43852 322.182437) scale(0.1 -0.1)">
       <defs>
        <path id="DejaVuSans-33" d="M 2597 2516 
Q 3050 2419 3304 2112 
Q 3559 1806 3559 1356 
Q 3559 666 3084 287 
Q 2609 -91 1734 -91 
Q 1441 -91 1130 -33 
Q 819 25 488 141 
L 488 750 
Q 750 597 1062 519 
Q 1375 441 1716 441 
Q 2309 441 2620 675 
Q 2931 909 2931 1356 
Q 2931 1769 2642 2001 
Q 2353 2234 1838 2234 
L 1294 2234 
L 1294 2753 
L 1863 2753 
Q 2328 2753 2575 2939 
Q 2822 3125 2822 3475 
Q 2822 3834 2567 4026 
Q 2313 4219 1838 4219 
Q 1578 4219 1281 4162 
Q 984 4106 628 3988 
L 628 4550 
Q 988 4650 1302 4700 
Q 1616 4750 1894 4750 
Q 2613 4750 3031 4423 
Q 3450 4097 3450 3541 
Q 3450 3153 3228 2886 
Q 3006 2619 2597 2516 
z
" transform="scale(0.015625)"/>
       </defs>
       <use xlink:href="#DejaVuSans-33"/>
       <use xlink:href="#DejaVuSans-2e" transform="translate(63.623047 0)"/>
       <use xlink:href="#DejaVuSans-30" transform="translate(95.410156 0)"/>
      </g>
     </g>
    </g>
    <g id="text_7">
     <!-- Bond Length (Å) -->
     <g transform="translate(195.580312 337.544938) scale(0.1 -0.1)">
      <defs>
       <path id="DejaVuSans-42" d="M 1259 2228 
L 1259 519 
L 2272 519 
Q 2781 519 3026 730 
Q 3272 941 3272 1375 
Q 3272 1813 3026 2020 
Q 2781 2228 2272 2228 
L 1259 2228 
z
M 1259 4147 
L 1259 2741 
L 2194 2741 
Q 2656 2741 2882 2914 
Q 3109 3088 3109 3444 
Q 3109 3797 2882 3972 
Q 2656 4147 2194 4147 
L 1259 4147 
z
M 628 4666 
L 2241 4666 
Q 2963 4666 3353 4366 
Q 3744 4066 3744 3513 
Q 3744 3084 3544 2831 
Q 3344 2578 2956 2516 
Q 3422 2416 3680 2098 
Q 3938 1781 3938 1306 
Q 3938 681 3513 340 
Q 3088 0 2303 0 
L 628 0 
L 628 4666 
z
" transform="scale(0.015625)"/>
       <path id="DejaVuSans-6f" d="M 1959 3097 
Q 1497 3097 1228 2736 
Q 959 2375 959 1747 
Q 959 1119 1226 758 
Q 1494 397 1959 397 
Q 2419 397 2687 759 
Q 2956 1122 2956 1747 
Q 2956 2369 2687 2733 
Q 2419 3097 1959 3097 
z
M 1959 3584 
Q 2709 3584 3137 3096 
Q 3566 2609 3566 1747 
Q 3566 888 3137 398 
Q 2709 -91 1959 -91 
Q 1206 -91 779 398 
Q 353 888 353 1747 
Q 353 2609 779 3096 
Q 1206 3584 1959 3584 
z
" transform="scale(0.015625)"/>
       <path id="DejaVuSans-6e" d="M 3513 2113 
L 3513 0 
L 2938 0 
L 2938 2094 
Q 2938 2591 2744 2837 
Q 2550 3084 2163 3084 
Q 1697 3084 1428 2787 
Q 1159 2491 1159 1978 
L 1159 0 
L 581 0 
L 581 3500 
L 1159 3500 
L 1159 2956 
Q 1366 3272 1645 3428 
Q 1925 3584 2291 3584 
Q 2894 3584 3203 3211 
Q 3513 2838 3513 2113 
z
" transform="scale(0.015625)"/>
       <path id="DejaVuSans-64" d="M 2906 2969 
L 2906 4863 
L 3481 4863 
L 3481 0 
L 2906 0 
L 2906 525 
Q 2725 213 2448 61 
Q 2172 -91 1784 -91 
Q 1150 -91 751 415 
Q 353 922 353 1747 
Q 353 2572 751 3078 
Q 1150 3584 1784 3584 
Q 2172 3584 2448 3432 
Q 2725 3281 2906 2969 
z
M 947 1747 
Q 947 1113 1208 752 
Q 1469 391 1925 391 
Q 2381 391 2643 752 
Q 2906 1113 2906 1747 
Q 2906 2381 2643 2742 
Q 2381 3103 1925 3103 
Q 1469 3103 1208 2742 
Q 947 2381 947 1747 
z
" transform="scale(0.015625)"/>
       <path id="DejaVuSans-20" transform="scale(0.015625)"/>
       <path id="DejaVuSans-4c" d="M 628 4666 
L 1259 4666 
L 1259 531 
L 3531 531 
L 3531 0 
L 628 0 
L 628 4666 
z
" transform="scale(0.015625)"/>
       <path id="DejaVuSans-65" d="M 3597 1894 
L 3597 1613 
L 953 1613 
Q 991 1019 1311 708 
Q 1631 397 2203 397 
Q 2534 397 2845 478 
Q 3156 559 3463 722 
L 3463 178 
Q 3153 47 2828 -22 
Q 2503 -91 2169 -91 
Q 1331 -91 842 396 
Q 353 884 353 1716 
Q 353 2575 817 3079 
Q 1281 3584 2069 3584 
Q 2775 3584 3186 3129 
Q 3597 2675 3597 1894 
z
M 3022 2063 
Q 3016 2534 2758 2815 
Q 2500 3097 2075 3097 
Q 1594 3097 1305 2825 
Q 1016 2553 972 2059 
L 3022 2063 
z
" transform="scale(0.015625)"/>
       <path id="DejaVuSans-67" d="M 2906 1791 
Q 2906 2416 2648 2759 
Q 2391 3103 1925 3103 
Q 1463 3103 1205 2759 
Q 947 2416 947 1791 
Q 947 1169 1205 825 
Q 1463 481 1925 481 
Q 2391 481 2648 825 
Q 2906 1169 2906 1791 
z
M 3481 434 
Q 3481 -459 3084 -895 
Q 2688 -1331 1869 -1331 
Q 1566 -1331 1297 -1286 
Q 1028 -1241 775 -1147 
L 775 -588 
Q 1028 -725 1275 -790 
Q 1522 -856 1778 -856 
Q 2344 -856 2625 -561 
Q 2906 -266 2906 331 
L 2906 616 
Q 2728 306 2450 153 
Q 2172 0 1784 0 
Q 1141 0 747 490 
Q 353 981 353 1791 
Q 353 2603 747 3093 
Q 1141 3584 1784 3584 
Q 2172 3584 2450 3431 
Q 2728 3278 2906 2969 
L 2906 3500 
L 3481 3500 
L 3481 434 
z
" transform="scale(0.015625)"/>
       <path id="DejaVuSans-74" d="M 1172 4494 
L 1172 3500 
L 2356 3500 
L 2356 3053 
L 1172 3053 
L 1172 1153 
Q 1172 725 1289 603 
Q 1406 481 1766 481 
L 2356 481 
L 2356 0 
L 1766 0 
Q 1100 0 847 248 
Q 594 497 594 1153 
L 594 3053 
L 172 3053 
L 172 3500 
L 594 3500 
L 594 4494 
L 1172 4494 
z
" transform="scale(0.015625)"/>
       <path id="DejaVuSans-68" d="M 3513 2113 
L 3513 0 
L 2938 0 
L 2938 2094 
Q 2938 2591 2744 2837 
Q 2550 3084 2163 3084 
Q 1697 3084 1428 2787 
Q 1159 2491 1159 1978 
L 1159 0 
L 581 0 
L 581 4863 
L 1159 4863 
L 1159 2956 
Q 1366 3272 1645 3428 
Q 1925 3584 2291 3584 
Q 2894 3584 3203 3211 
Q 3513 2838 3513 2113 
z
" transform="scale(0.015625)"/>
       <path id="DejaVuSans-28" d="M 1984 4856 
Q 1566 4138 1362 3434 
Q 1159 2731 1159 2009 
Q 1159 1288 1364 580 
Q 1569 -128 1984 -844 
L 1484 -844 
Q 1016 -109 783 600 
Q 550 1309 550 2009 
Q 550 2706 781 3412 
Q 1013 4119 1484 4856 
L 1984 4856 
z
" transform="scale(0.015625)"/>
       <path id="DejaVuSans-c5" d="M 2663 5081 
Q 2663 5278 2523 5417 
Q 2384 5556 2188 5556 
Q 1988 5556 1852 5420 
Q 1716 5284 1716 5081 
Q 1716 4884 1853 4746 
Q 1991 4609 2188 4609 
Q 2384 4609 2523 4746 
Q 2663 4884 2663 5081 
z
M 2188 4044 
L 1338 1722 
L 3041 1722 
L 2188 4044 
z
M 1716 4366 
Q 1525 4494 1428 4673 
Q 1331 4853 1331 5081 
Q 1331 5441 1579 5691 
Q 1828 5941 2188 5941 
Q 2544 5941 2795 5689 
Q 3047 5438 3047 5081 
Q 3047 4863 2948 4678 
Q 2850 4494 2663 4366 
L 4325 0 
L 3669 0 
L 3244 1197 
L 1141 1197 
L 716 0 
L 50 0 
L 1716 4366 
z
" transform="scale(0.015625)"/>
       <path id="DejaVuSans-29" d="M 513 4856 
L 1013 4856 
Q 1481 4119 1714 3412 
Q 1947 2706 1947 2009 
Q 1947 1309 1714 600 
Q 1481 -109 1013 -844 
L 513 -844 
Q 928 -128 1133 580 
Q 1338 1288 1338 2009 
Q 1338 2731 1133 3434 
Q 928 4138 513 4856 
z
" transform="scale(0.015625)"/>
      </defs>
      <use xlink:href="#DejaVuSans-42"/>
      <use xlink:href="#DejaVuSans-6f" transform="translate(68.603516 0)"/>
      <use xlink:href="#DejaVuSans-6e" transform="translate(129.785156 0)"/>
      <use xlink:href="#DejaVuSans-64" transform="translate(193.164062 0)"/>
      <use xlink:href="#DejaVuSans-20" transform="translate(256.640625 0)"/>
      <use xlink:href="#DejaVuSans-4c" transform="translate(288.427734 0)"/>
      <use xlink:href="#DejaVuSans-65" transform="translate(342.390625 0)"/>
      <use xlink:href="#DejaVuSans-6e" transform="translate(403.914062 0)"/>
      <use xlink:href="#DejaVuSans-67" transform="translate(467.292969 0)"/>
      <use xlink:href="#DejaVuSans-74" transform="translate(530.769531 0)"/>
      <use xlink:href="#DejaVuSans-68" transform="translate(569.978516 0)"/>
      <use xlink:href="#DejaVuSans-20" transform="translate(633.357422 0)"/>
      <use xlink:href="#DejaVuSans-28" transform="translate(665.144531 0)"/>
      <use xlink:href="#DejaVuSans-c5" transform="translate(704.158203 0)"/>
      <use xlink:href="#DejaVuSans-29" transform="translate(772.566406 0)"/>
     </g>
    </g>
   </g>
   <g id="matplotlib.axis_2">
    <g id="ytick_1">
     <g id="line2d_7">
      <defs>
       <path id="m68dba9aa28" d="M 0 0 
L -3.5 0 
" style="stroke: #000000; stroke-width: 0.8"/>
      </defs>
      <g>
       <use xlink:href="#m68dba9aa28" x="57.6" y="275.754922" style="stroke: #000000; stroke-width: 0.8"/>
      </g>
     </g>
     <g id="text_8">
      <!-- −1.2 -->
      <g transform="translate(26.317187 279.554141) scale(0.1 -0.1)">
       <defs>
        <path id="DejaVuSans-2212" d="M 678 2272 
L 4684 2272 
L 4684 1741 
L 678 1741 
L 678 2272 
z
" transform="scale(0.015625)"/>
       </defs>
       <use xlink:href="#DejaVuSans-2212"/>
       <use xlink:href="#DejaVuSans-31" transform="translate(83.789062 0)"/>
       <use xlink:href="#DejaVuSans-2e" transform="translate(147.412109 0)"/>
       <use xlink:href="#DejaVuSans-32" transform="translate(179.199219 0)"/>
      </g>
     </g>
    </g>
    <g id="ytick_2">
     <g id="line2d_8">
      <g>
       <use xlink:href="#m68dba9aa28" x="57.6" y="243.01977" style="stroke: #000000; stroke-width: 0.8"/>
      </g>
     </g>
     <g id="text_9">
      <!-- −1.0 -->
      <g transform="translate(26.317187 246.818988) scale(0.1 -0.1)">
       <use xlink:href="#DejaVuSans-2212"/>
       <use xlink:href="#DejaVuSans-31" transform="translate(83.789062 0)"/>
       <use xlink:href="#DejaVuSans-2e" transform="translate(147.412109 0)"/>
       <use xlink:href="#DejaVuSans-30" transform="translate(179.199219 0)"/>
      </g>
     </g>
    </g>
    <g id="ytick_3">
     <g id="line2d_9">
      <g>
       <use xlink:href="#m68dba9aa28" x="57.6" y="210.284617" style="stroke: #000000; stroke-width: 0.8"/>
      </g>
     </g>
     <g id="text_10">
      <!-- −0.8 -->
      <g transform="translate(26.317187 214.083836) scale(0.1 -0.1)">
       <defs>
        <path id="DejaVuSans-38" d="M 2034 2216 
Q 1584 2216 1326 1975 
Q 1069 1734 1069 1313 
Q 1069 891 1326 650 
Q 1584 409 2034 409 
Q 2484 409 2743 651 
Q 3003 894 3003 1313 
Q 3003 1734 2745 1975 
Q 2488 2216 2034 2216 
z
M 1403 2484 
Q 997 2584 770 2862 
Q 544 3141 544 3541 
Q 544 4100 942 4425 
Q 1341 4750 2034 4750 
Q 2731 4750 3128 4425 
Q 3525 4100 3525 3541 
Q 3525 3141 3298 2862 
Q 3072 2584 2669 2484 
Q 3125 2378 3379 2068 
Q 3634 1759 3634 1313 
Q 3634 634 3220 271 
Q 2806 -91 2034 -91 
Q 1263 -91 848 271 
Q 434 634 434 1313 
Q 434 1759 690 2068 
Q 947 2378 1403 2484 
z
M 1172 3481 
Q 1172 3119 1398 2916 
Q 1625 2713 2034 2713 
Q 2441 2713 2670 2916 
Q 2900 3119 2900 3481 
Q 2900 3844 2670 4047 
Q 2441 4250 2034 4250 
Q 1625 4250 1398 4047 
Q 1172 3844 1172 3481 
z
" transform="scale(0.015625)"/>
       </defs>
       <use xlink:href="#DejaVuSans-2212"/>
       <use xlink:href="#DejaVuSans-30" transform="translate(83.789062 0)"/>
       <use xlink:href="#DejaVuSans-2e" transform="translate(147.412109 0)"/>
       <use xlink:href="#DejaVuSans-38" transform="translate(179.199219 0)"/>
      </g>
     </g>
    </g>
    <g id="ytick_4">
     <g id="line2d_10">
      <g>
       <use xlink:href="#m68dba9aa28" x="57.6" y="177.549465" style="stroke: #000000; stroke-width: 0.8"/>
      </g>
     </g>
     <g id="text_11">
      <!-- −0.6 -->
      <g transform="translate(26.317187 181.348684) scale(0.1 -0.1)">
       <defs>
        <path id="DejaVuSans-36" d="M 2113 2584 
Q 1688 2584 1439 2293 
Q 1191 2003 1191 1497 
Q 1191 994 1439 701 
Q 1688 409 2113 409 
Q 2538 409 2786 701 
Q 3034 994 3034 1497 
Q 3034 2003 2786 2293 
Q 2538 2584 2113 2584 
z
M 3366 4563 
L 3366 3988 
Q 3128 4100 2886 4159 
Q 2644 4219 2406 4219 
Q 1781 4219 1451 3797 
Q 1122 3375 1075 2522 
Q 1259 2794 1537 2939 
Q 1816 3084 2150 3084 
Q 2853 3084 3261 2657 
Q 3669 2231 3669 1497 
Q 3669 778 3244 343 
Q 2819 -91 2113 -91 
Q 1303 -91 875 529 
Q 447 1150 447 2328 
Q 447 3434 972 4092 
Q 1497 4750 2381 4750 
Q 2619 4750 2861 4703 
Q 3103 4656 3366 4563 
z
" transform="scale(0.015625)"/>
       </defs>
       <use xlink:href="#DejaVuSans-2212"/>
       <use xlink:href="#DejaVuSans-30" transform="translate(83.789062 0)"/>
       <use xlink:href="#DejaVuSans-2e" transform="translate(147.412109 0)"/>
       <use xlink:href="#DejaVuSans-36" transform="translate(179.199219 0)"/>
      </g>
     </g>
    </g>
    <g id="ytick_5">
     <g id="line2d_11">
      <g>
       <use xlink:href="#m68dba9aa28" x="57.6" y="144.814313" style="stroke: #000000; stroke-width: 0.8"/>
      </g>
     </g>
     <g id="text_12">
      <!-- −0.4 -->
      <g transform="translate(26.317187 148.613532) scale(0.1 -0.1)">
       <defs>
        <path id="DejaVuSans-34" d="M 2419 4116 
L 825 1625 
L 2419 1625 
L 2419 4116 
z
M 2253 4666 
L 3047 4666 
L 3047 1625 
L 3713 1625 
L 3713 1100 
L 3047 1100 
L 3047 0 
L 2419 0 
L 2419 1100 
L 313 1100 
L 313 1709 
L 2253 4666 
z
" transform="scale(0.015625)"/>
       </defs>
       <use xlink:href="#DejaVuSans-2212"/>
       <use xlink:href="#DejaVuSans-30" transform="translate(83.789062 0)"/>
       <use xlink:href="#DejaVuSans-2e" transform="translate(147.412109 0)"/>
       <use xlink:href="#DejaVuSans-34" transform="translate(179.199219 0)"/>
      </g>
     </g>
    </g>
    <g id="ytick_6">
     <g id="line2d_12">
      <g>
       <use xlink:href="#m68dba9aa28" x="57.6" y="112.079161" style="stroke: #000000; stroke-width: 0.8"/>
      </g>
     </g>
     <g id="text_13">
      <!-- −0.2 -->
      <g transform="translate(26.317187 115.878379) scale(0.1 -0.1)">
       <use xlink:href="#DejaVuSans-2212"/>
       <use xlink:href="#DejaVuSans-30" transform="translate(83.789062 0)"/>
       <use xlink:href="#DejaVuSans-2e" transform="translate(147.412109 0)"/>
       <use xlink:href="#DejaVuSans-32" transform="translate(179.199219 0)"/>
      </g>
     </g>
    </g>
    <g id="ytick_7">
     <g id="line2d_13">
      <g>
       <use xlink:href="#m68dba9aa28" x="57.6" y="79.344008" style="stroke: #000000; stroke-width: 0.8"/>
      </g>
     </g>
     <g id="text_14">
      <!-- 0.0 -->
      <g transform="translate(34.696875 83.143227) scale(0.1 -0.1)">
       <use xlink:href="#DejaVuSans-30"/>
       <use xlink:href="#DejaVuSans-2e" transform="translate(63.623047 0)"/>
       <use xlink:href="#DejaVuSans-30" transform="translate(95.410156 0)"/>
      </g>
     </g>
    </g>
    <g id="ytick_8">
     <g id="line2d_14">
      <g>
       <use xlink:href="#m68dba9aa28" x="57.6" y="46.608856" style="stroke: #000000; stroke-width: 0.8"/>
      </g>
     </g>
     <g id="text_15">
      <!-- 0.2 -->
      <g transform="translate(34.696875 50.408075) scale(0.1 -0.1)">
       <use xlink:href="#DejaVuSans-30"/>
       <use xlink:href="#DejaVuSans-2e" transform="translate(63.623047 0)"/>
       <use xlink:href="#DejaVuSans-32" transform="translate(95.410156 0)"/>
      </g>
     </g>
    </g>
    <g id="text_16">
     <!-- Energy (Ha) -->
     <g transform="translate(20.2375 204.349094) rotate(-90) scale(0.1 -0.1)">
      <defs>
       <path id="DejaVuSans-45" d="M 628 4666 
L 3578 4666 
L 3578 4134 
L 1259 4134 
L 1259 2753 
L 3481 2753 
L 3481 2222 
L 1259 2222 
L 1259 531 
L 3634 531 
L 3634 0 
L 628 0 
L 628 4666 
z
" transform="scale(0.015625)"/>
       <path id="DejaVuSans-72" d="M 2631 2963 
Q 2534 3019 2420 3045 
Q 2306 3072 2169 3072 
Q 1681 3072 1420 2755 
Q 1159 2438 1159 1844 
L 1159 0 
L 581 0 
L 581 3500 
L 1159 3500 
L 1159 2956 
Q 1341 3275 1631 3429 
Q 1922 3584 2338 3584 
Q 2397 3584 2469 3576 
Q 2541 3569 2628 3553 
L 2631 2963 
z
" transform="scale(0.015625)"/>
       <path id="DejaVuSans-79" d="M 2059 -325 
Q 1816 -950 1584 -1140 
Q 1353 -1331 966 -1331 
L 506 -1331 
L 506 -850 
L 844 -850 
Q 1081 -850 1212 -737 
Q 1344 -625 1503 -206 
L 1606 56 
L 191 3500 
L 800 3500 
L 1894 763 
L 2988 3500 
L 3597 3500 
L 2059 -325 
z
" transform="scale(0.015625)"/>
       <path id="DejaVuSans-48" d="M 628 4666 
L 1259 4666 
L 1259 2753 
L 3553 2753 
L 3553 4666 
L 4184 4666 
L 4184 0 
L 3553 0 
L 3553 2222 
L 1259 2222 
L 1259 0 
L 628 0 
L 628 4666 
z
" transform="scale(0.015625)"/>
       <path id="DejaVuSans-61" d="M 2194 1759 
Q 1497 1759 1228 1600 
Q 959 1441 959 1056 
Q 959 750 1161 570 
Q 1363 391 1709 391 
Q 2188 391 2477 730 
Q 2766 1069 2766 1631 
L 2766 1759 
L 2194 1759 
z
M 3341 1997 
L 3341 0 
L 2766 0 
L 2766 531 
Q 2569 213 2275 61 
Q 1981 -91 1556 -91 
Q 1019 -91 701 211 
Q 384 513 384 1019 
Q 384 1609 779 1909 
Q 1175 2209 1959 2209 
L 2766 2209 
L 2766 2266 
Q 2766 2663 2505 2880 
Q 2244 3097 1772 3097 
Q 1472 3097 1187 3025 
Q 903 2953 641 2809 
L 641 3341 
Q 956 3463 1253 3523 
Q 1550 3584 1831 3584 
Q 2591 3584 2966 3190 
Q 3341 2797 3341 1997 
z
" transform="scale(0.015625)"/>
      </defs>
      <use xlink:href="#DejaVuSans-45"/>
      <use xlink:href="#DejaVuSans-6e" transform="translate(63.183594 0)"/>
      <use xlink:href="#DejaVuSans-65" transform="translate(126.5625 0)"/>
      <use xlink:href="#DejaVuSans-72" transform="translate(188.085938 0)"/>
      <use xlink:href="#DejaVuSans-67" transform="translate(227.449219 0)"/>
      <use xlink:href="#DejaVuSans-79" transform="translate(290.925781 0)"/>
      <use xlink:href="#DejaVuSans-20" transform="translate(350.105469 0)"/>
      <use xlink:href="#DejaVuSans-28" transform="translate(381.892578 0)"/>
      <use xlink:href="#DejaVuSans-48" transform="translate(420.90625 0)"/>
      <use xlink:href="#DejaVuSans-61" transform="translate(496.101562 0)"/>
      <use xlink:href="#DejaVuSans-29" transform="translate(557.380859 0)"/>
     </g>
    </g>
   </g>
   <g id="line2d_15">
    <path d="M 73.832727 53.568 
L 79.735537 130.455022 
L 85.638347 177.844689 
L 91.541157 208.528277 
L 97.443967 228.968157 
L 103.346777 242.760441 
L 109.249587 252.048091 
L 115.152397 258.18104 
L 121.055207 262.05297 
L 126.958017 264.282034 
L 132.860826 265.310682 
L 138.763636 265.46251 
L 144.666446 264.976491 
L 150.569256 264.029498 
L 156.472066 262.752565 
L 162.374876 261.243333 
L 168.277686 259.575627 
L 174.180496 257.806594 
L 180.083306 255.981735 
L 185.986116 254.138208 
L 191.888926 252.306854 
L 197.791736 250.513361 
L 203.694545 248.778908 
L 209.597355 247.120561 
L 215.500165 245.551547 
L 221.402975 244.081523 
L 227.305785 242.716864 
L 233.208595 241.460977 
L 239.111405 240.314656 
L 245.014215 239.276442 
L 250.917025 238.343011 
L 256.819835 237.509551 
L 262.722645 236.77013 
L 268.625455 236.118048 
L 274.528264 235.546147 
L 280.431074 235.047084 
L 286.333884 234.613564 
L 292.236694 234.238522 
L 298.139504 233.915253 
L 304.042314 233.637512 
L 309.945124 233.399569 
L 315.847934 233.196229 
L 321.750744 233.022845 
L 327.653554 232.875287 
L 333.556364 232.749926 
L 339.459174 232.643587 
L 345.361983 232.55351 
L 351.264793 232.47731 
L 357.167603 232.412931 
L 363.070413 232.358606 
L 368.973223 232.312824 
L 374.876033 232.27429 
L 380.778843 232.2419 
L 386.681653 232.214712 
L 392.584463 232.191922 
L 398.487273 232.172849 
" clip-path="url(#p0c9af66628)" style="fill: none; stroke: #377eb8; stroke-opacity: 0.6; stroke-width: 1.5; stroke-linecap: square"/>
    <defs>
     <path id="m6a7cc61ff5" d="M 0 3 
L 0 -3 
" style="stroke: #377eb8; stroke-opacity: 0.6"/>
    </defs>
    <g clip-path="url(#p0c9af66628)">
     <use xlink:href="#m6a7cc61ff5" x="73.832727" y="53.568" style="fill: #377eb8; fill-opacity: 0.6; stroke: #377eb8; stroke-opacity: 0.6"/>
     <use xlink:href="#m6a7cc61ff5" x="79.735537" y="130.455022" style="fill: #377eb8; fill-opacity: 0.6; stroke: #377eb8; stroke-opacity: 0.6"/>
     <use xlink:href="#m6a7cc61ff5" x="85.638347" y="177.844689" style="fill: #377eb8; fill-opacity: 0.6; stroke: #377eb8; stroke-opacity: 0.6"/>
     <use xlink:href="#m6a7cc61ff5" x="91.541157" y="208.528277" style="fill: #377eb8; fill-opacity: 0.6; stroke: #377eb8; stroke-opacity: 0.6"/>
     <use xlink:href="#m6a7cc61ff5" x="97.443967" y="228.968157" style="fill: #377eb8; fill-opacity: 0.6; stroke: #377eb8; stroke-opacity: 0.6"/>
     <use xlink:href="#m6a7cc61ff5" x="103.346777" y="242.760441" style="fill: #377eb8; fill-opacity: 0.6; stroke: #377eb8; stroke-opacity: 0.6"/>
     <use xlink:href="#m6a7cc61ff5" x="109.249587" y="252.048091" style="fill: #377eb8; fill-opacity: 0.6; stroke: #377eb8; stroke-opacity: 0.6"/>
     <use xlink:href="#m6a7cc61ff5" x="115.152397" y="258.18104" style="fill: #377eb8; fill-opacity: 0.6; stroke: #377eb8; stroke-opacity: 0.6"/>
     <use xlink:href="#m6a7cc61ff5" x="121.055207" y="262.05297" style="fill: #377eb8; fill-opacity: 0.6; stroke: #377eb8; stroke-opacity: 0.6"/>
     <use xlink:href="#m6a7cc61ff5" x="126.958017" y="264.282034" style="fill: #377eb8; fill-opacity: 0.6; stroke: #377eb8; stroke-opacity: 0.6"/>
     <use xlink:href="#m6a7cc61ff5" x="132.860826" y="265.310682" style="fill: #377eb8; fill-opacity: 0.6; stroke: #377eb8; stroke-opacity: 0.6"/>
     <use xlink:href="#m6a7cc61ff5" x="138.763636" y="265.46251" style="fill: #377eb8; fill-opacity: 0.6; stroke: #377eb8; stroke-opacity: 0.6"/>
     <use xlink:href="#m6a7cc61ff5" x="144.666446" y="264.976491" style="fill: #377eb8; fill-opacity: 0.6; stroke: #377eb8; stroke-opacity: 0.6"/>
     <use xlink:href="#m6a7cc61ff5" x="150.569256" y="264.029498" style="fill: #377eb8; fill-opacity: 0.6; stroke: #377eb8; stroke-opacity: 0.6"/>
     <use xlink:href="#m6a7cc61ff5" x="156.472066" y="262.752565" style="fill: #377eb8; fill-opacity: 0.6; stroke: #377eb8; stroke-opacity: 0.6"/>
     <use xlink:href="#m6a7cc61ff5" x="162.374876" y="261.243333" style="fill: #377eb8; fill-opacity: 0.6; stroke: #377eb8; stroke-opacity: 0.6"/>
     <use xlink:href="#m6a7cc61ff5" x="168.277686" y="259.575627" style="fill: #377eb8; fill-opacity: 0.6; stroke: #377eb8; stroke-opacity: 0.6"/>
     <use xlink:href="#m6a7cc61ff5" x="174.180496" y="257.806594" style="fill: #377eb8; fill-opacity: 0.6; stroke: #377eb8; stroke-opacity: 0.6"/>
     <use xlink:href="#m6a7cc61ff5" x="180.083306" y="255.981735" style="fill: #377eb8; fill-opacity: 0.6; stroke: #377eb8; stroke-opacity: 0.6"/>
     <use xlink:href="#m6a7cc61ff5" x="185.986116" y="254.138208" style="fill: #377eb8; fill-opacity: 0.6; stroke: #377eb8; stroke-opacity: 0.6"/>
     <use xlink:href="#m6a7cc61ff5" x="191.888926" y="252.306854" style="fill: #377eb8; fill-opacity: 0.6; stroke: #377eb8; stroke-opacity: 0.6"/>
     <use xlink:href="#m6a7cc61ff5" x="197.791736" y="250.513361" style="fill: #377eb8; fill-opacity: 0.6; stroke: #377eb8; stroke-opacity: 0.6"/>
     <use xlink:href="#m6a7cc61ff5" x="203.694545" y="248.778908" style="fill: #377eb8; fill-opacity: 0.6; stroke: #377eb8; stroke-opacity: 0.6"/>
     <use xlink:href="#m6a7cc61ff5" x="209.597355" y="247.120561" style="fill: #377eb8; fill-opacity: 0.6; stroke: #377eb8; stroke-opacity: 0.6"/>
     <use xlink:href="#m6a7cc61ff5" x="215.500165" y="245.551547" style="fill: #377eb8; fill-opacity: 0.6; stroke: #377eb8; stroke-opacity: 0.6"/>
     <use xlink:href="#m6a7cc61ff5" x="221.402975" y="244.081523" style="fill: #377eb8; fill-opacity: 0.6; stroke: #377eb8; stroke-opacity: 0.6"/>
     <use xlink:href="#m6a7cc61ff5" x="227.305785" y="242.716864" style="fill: #377eb8; fill-opacity: 0.6; stroke: #377eb8; stroke-opacity: 0.6"/>
     <use xlink:href="#m6a7cc61ff5" x="233.208595" y="241.460977" style="fill: #377eb8; fill-opacity: 0.6; stroke: #377eb8; stroke-opacity: 0.6"/>
     <use xlink:href="#m6a7cc61ff5" x="239.111405" y="240.314656" style="fill: #377eb8; fill-opacity: 0.6; stroke: #377eb8; stroke-opacity: 0.6"/>
     <use xlink:href="#m6a7cc61ff5" x="245.014215" y="239.276442" style="fill: #377eb8; fill-opacity: 0.6; stroke: #377eb8; stroke-opacity: 0.6"/>
     <use xlink:href="#m6a7cc61ff5" x="250.917025" y="238.343011" style="fill: #377eb8; fill-opacity: 0.6; stroke: #377eb8; stroke-opacity: 0.6"/>
     <use xlink:href="#m6a7cc61ff5" x="256.819835" y="237.509551" style="fill: #377eb8; fill-opacity: 0.6; stroke: #377eb8; stroke-opacity: 0.6"/>
     <use xlink:href="#m6a7cc61ff5" x="262.722645" y="236.77013" style="fill: #377eb8; fill-opacity: 0.6; stroke: #377eb8; stroke-opacity: 0.6"/>
     <use xlink:href="#m6a7cc61ff5" x="268.625455" y="236.118048" style="fill: #377eb8; fill-opacity: 0.6; stroke: #377eb8; stroke-opacity: 0.6"/>
     <use xlink:href="#m6a7cc61ff5" x="274.528264" y="235.546147" style="fill: #377eb8; fill-opacity: 0.6; stroke: #377eb8; stroke-opacity: 0.6"/>
     <use xlink:href="#m6a7cc61ff5" x="280.431074" y="235.047084" style="fill: #377eb8; fill-opacity: 0.6; stroke: #377eb8; stroke-opacity: 0.6"/>
     <use xlink:href="#m6a7cc61ff5" x="286.333884" y="234.613564" style="fill: #377eb8; fill-opacity: 0.6; stroke: #377eb8; stroke-opacity: 0.6"/>
     <use xlink:href="#m6a7cc61ff5" x="292.236694" y="234.238522" style="fill: #377eb8; fill-opacity: 0.6; stroke: #377eb8; stroke-opacity: 0.6"/>
     <use xlink:href="#m6a7cc61ff5" x="298.139504" y="233.915253" style="fill: #377eb8; fill-opacity: 0.6; stroke: #377eb8; stroke-opacity: 0.6"/>
     <use xlink:href="#m6a7cc61ff5" x="304.042314" y="233.637512" style="fill: #377eb8; fill-opacity: 0.6; stroke: #377eb8; stroke-opacity: 0.6"/>
     <use xlink:href="#m6a7cc61ff5" x="309.945124" y="233.399569" style="fill: #377eb8; fill-opacity: 0.6; stroke: #377eb8; stroke-opacity: 0.6"/>
     <use xlink:href="#m6a7cc61ff5" x="315.847934" y="233.196229" style="fill: #377eb8; fill-opacity: 0.6; stroke: #377eb8; stroke-opacity: 0.6"/>
     <use xlink:href="#m6a7cc61ff5" x="321.750744" y="233.022845" style="fill: #377eb8; fill-opacity: 0.6; stroke: #377eb8; stroke-opacity: 0.6"/>
     <use xlink:href="#m6a7cc61ff5" x="327.653554" y="232.875287" style="fill: #377eb8; fill-opacity: 0.6; stroke: #377eb8; stroke-opacity: 0.6"/>
     <use xlink:href="#m6a7cc61ff5" x="333.556364" y="232.749926" style="fill: #377eb8; fill-opacity: 0.6; stroke: #377eb8; stroke-opacity: 0.6"/>
     <use xlink:href="#m6a7cc61ff5" x="339.459174" y="232.643587" style="fill: #377eb8; fill-opacity: 0.6; stroke: #377eb8; stroke-opacity: 0.6"/>
     <use xlink:href="#m6a7cc61ff5" x="345.361983" y="232.55351" style="fill: #377eb8; fill-opacity: 0.6; stroke: #377eb8; stroke-opacity: 0.6"/>
     <use xlink:href="#m6a7cc61ff5" x="351.264793" y="232.47731" style="fill: #377eb8; fill-opacity: 0.6; stroke: #377eb8; stroke-opacity: 0.6"/>
     <use xlink:href="#m6a7cc61ff5" x="357.167603" y="232.412931" style="fill: #377eb8; fill-opacity: 0.6; stroke: #377eb8; stroke-opacity: 0.6"/>
     <use xlink:href="#m6a7cc61ff5" x="363.070413" y="232.358606" style="fill: #377eb8; fill-opacity: 0.6; stroke: #377eb8; stroke-opacity: 0.6"/>
     <use xlink:href="#m6a7cc61ff5" x="368.973223" y="232.312824" style="fill: #377eb8; fill-opacity: 0.6; stroke: #377eb8; stroke-opacity: 0.6"/>
     <use xlink:href="#m6a7cc61ff5" x="374.876033" y="232.27429" style="fill: #377eb8; fill-opacity: 0.6; stroke: #377eb8; stroke-opacity: 0.6"/>
     <use xlink:href="#m6a7cc61ff5" x="380.778843" y="232.2419" style="fill: #377eb8; fill-opacity: 0.6; stroke: #377eb8; stroke-opacity: 0.6"/>
     <use xlink:href="#m6a7cc61ff5" x="386.681653" y="232.214712" style="fill: #377eb8; fill-opacity: 0.6; stroke: #377eb8; stroke-opacity: 0.6"/>
     <use xlink:href="#m6a7cc61ff5" x="392.584463" y="232.191922" style="fill: #377eb8; fill-opacity: 0.6; stroke: #377eb8; stroke-opacity: 0.6"/>
     <use xlink:href="#m6a7cc61ff5" x="398.487273" y="232.172849" style="fill: #377eb8; fill-opacity: 0.6; stroke: #377eb8; stroke-opacity: 0.6"/>
    </g>
   </g>
   <g id="line2d_16">
    <path d="M 73.832727 78.328841 
L 79.735537 155.334919 
L 85.638347 202.861312 
L 91.541157 233.694855 
L 97.443967 254.293235 
L 103.346777 268.247858 
L 109.249587 277.697181 
L 115.152397 284.092903 
L 121.055207 288.164715 
L 126.958017 290.510641 
L 132.860826 291.573908 
L 138.763636 291.782541 
L 144.666446 291.382222 
L 150.569256 290.497591 
L 156.472066 289.255837 
L 162.374876 287.750267 
L 168.277686 286.050002 
L 174.180496 284.207305 
L 180.083306 282.26285 
L 185.986116 280.249265 
L 191.888926 278.193392 
L 197.791736 276.117662 
L 203.694545 274.040921 
L 209.597355 271.978956 
L 215.500165 269.944881 
L 221.402975 267.949459 
L 227.305785 266.001399 
L 233.208595 264.107632 
L 239.111405 262.273561 
L 245.014215 260.503292 
L 250.917025 258.799827 
L 256.819835 257.165221 
L 262.722645 255.60073 
L 268.625455 254.106911 
L 274.528264 252.683723 
L 280.431074 251.330605 
L 286.333884 250.046555 
L 292.236694 248.830191 
L 298.139504 247.679818 
L 304.042314 246.593486 
L 309.945124 245.569054 
L 315.847934 244.604229 
L 321.750744 243.69663 
L 327.653554 242.843824 
L 333.556364 242.043363 
L 339.459174 241.292812 
L 345.361983 240.589781 
L 351.264793 239.931935 
L 357.167603 239.31701 
L 363.070413 238.742818 
L 368.973223 238.207253 
L 374.876033 237.708288 
L 380.778843 237.243977 
L 386.681653 236.812448 
L 392.584463 236.411899 
L 398.487273 236.040601 
" clip-path="url(#p0c9af66628)" style="fill: none; stroke: #984ea3; stroke-opacity: 0.6; stroke-width: 1.5; stroke-linecap: square"/>
    <defs>
     <path id="mdbe2fe3898" d="M 0 3 
L 0 -3 
" style="stroke: #984ea3; stroke-opacity: 0.6"/>
    </defs>
    <g clip-path="url(#p0c9af66628)">
     <use xlink:href="#mdbe2fe3898" x="73.832727" y="78.328841" style="fill: #984ea3; fill-opacity: 0.6; stroke: #984ea3; stroke-opacity: 0.6"/>
     <use xlink:href="#mdbe2fe3898" x="79.735537" y="155.334919" style="fill: #984ea3; fill-opacity: 0.6; stroke: #984ea3; stroke-opacity: 0.6"/>
     <use xlink:href="#mdbe2fe3898" x="85.638347" y="202.861312" style="fill: #984ea3; fill-opacity: 0.6; stroke: #984ea3; stroke-opacity: 0.6"/>
     <use xlink:href="#mdbe2fe3898" x="91.541157" y="233.694855" style="fill: #984ea3; fill-opacity: 0.6; stroke: #984ea3; stroke-opacity: 0.6"/>
     <use xlink:href="#mdbe2fe3898" x="97.443967" y="254.293235" style="fill: #984ea3; fill-opacity: 0.6; stroke: #984ea3; stroke-opacity: 0.6"/>
     <use xlink:href="#mdbe2fe3898" x="103.346777" y="268.247858" style="fill: #984ea3; fill-opacity: 0.6; stroke: #984ea3; stroke-opacity: 0.6"/>
     <use xlink:href="#mdbe2fe3898" x="109.249587" y="277.697181" style="fill: #984ea3; fill-opacity: 0.6; stroke: #984ea3; stroke-opacity: 0.6"/>
     <use xlink:href="#mdbe2fe3898" x="115.152397" y="284.092903" style="fill: #984ea3; fill-opacity: 0.6; stroke: #984ea3; stroke-opacity: 0.6"/>
     <use xlink:href="#mdbe2fe3898" x="121.055207" y="288.164715" style="fill: #984ea3; fill-opacity: 0.6; stroke: #984ea3; stroke-opacity: 0.6"/>
     <use xlink:href="#mdbe2fe3898" x="126.958017" y="290.510641" style="fill: #984ea3; fill-opacity: 0.6; stroke: #984ea3; stroke-opacity: 0.6"/>
     <use xlink:href="#mdbe2fe3898" x="132.860826" y="291.573908" style="fill: #984ea3; fill-opacity: 0.6; stroke: #984ea3; stroke-opacity: 0.6"/>
     <use xlink:href="#mdbe2fe3898" x="138.763636" y="291.782541" style="fill: #984ea3; fill-opacity: 0.6; stroke: #984ea3; stroke-opacity: 0.6"/>
     <use xlink:href="#mdbe2fe3898" x="144.666446" y="291.382222" style="fill: #984ea3; fill-opacity: 0.6; stroke: #984ea3; stroke-opacity: 0.6"/>
     <use xlink:href="#mdbe2fe3898" x="150.569256" y="290.497591" style="fill: #984ea3; fill-opacity: 0.6; stroke: #984ea3; stroke-opacity: 0.6"/>
     <use xlink:href="#mdbe2fe3898" x="156.472066" y="289.255837" style="fill: #984ea3; fill-opacity: 0.6; stroke: #984ea3; stroke-opacity: 0.6"/>
     <use xlink:href="#mdbe2fe3898" x="162.374876" y="287.750267" style="fill: #984ea3; fill-opacity: 0.6; stroke: #984ea3; stroke-opacity: 0.6"/>
     <use xlink:href="#mdbe2fe3898" x="168.277686" y="286.050002" style="fill: #984ea3; fill-opacity: 0.6; stroke: #984ea3; stroke-opacity: 0.6"/>
     <use xlink:href="#mdbe2fe3898" x="174.180496" y="284.207305" style="fill: #984ea3; fill-opacity: 0.6; stroke: #984ea3; stroke-opacity: 0.6"/>
     <use xlink:href="#mdbe2fe3898" x="180.083306" y="282.26285" style="fill: #984ea3; fill-opacity: 0.6; stroke: #984ea3; stroke-opacity: 0.6"/>
     <use xlink:href="#mdbe2fe3898" x="185.986116" y="280.249265" style="fill: #984ea3; fill-opacity: 0.6; stroke: #984ea3; stroke-opacity: 0.6"/>
     <use xlink:href="#mdbe2fe3898" x="191.888926" y="278.193392" style="fill: #984ea3; fill-opacity: 0.6; stroke: #984ea3; stroke-opacity: 0.6"/>
     <use xlink:href="#mdbe2fe3898" x="197.791736" y="276.117662" style="fill: #984ea3; fill-opacity: 0.6; stroke: #984ea3; stroke-opacity: 0.6"/>
     <use xlink:href="#mdbe2fe3898" x="203.694545" y="274.040921" style="fill: #984ea3; fill-opacity: 0.6; stroke: #984ea3; stroke-opacity: 0.6"/>
     <use xlink:href="#mdbe2fe3898" x="209.597355" y="271.978956" style="fill: #984ea3; fill-opacity: 0.6; stroke: #984ea3; stroke-opacity: 0.6"/>
     <use xlink:href="#mdbe2fe3898" x="215.500165" y="269.944881" style="fill: #984ea3; fill-opacity: 0.6; stroke: #984ea3; stroke-opacity: 0.6"/>
     <use xlink:href="#mdbe2fe3898" x="221.402975" y="267.949459" style="fill: #984ea3; fill-opacity: 0.6; stroke: #984ea3; stroke-opacity: 0.6"/>
     <use xlink:href="#mdbe2fe3898" x="227.305785" y="266.001399" style="fill: #984ea3; fill-opacity: 0.6; stroke: #984ea3; stroke-opacity: 0.6"/>
     <use xlink:href="#mdbe2fe3898" x="233.208595" y="264.107632" style="fill: #984ea3; fill-opacity: 0.6; stroke: #984ea3; stroke-opacity: 0.6"/>
     <use xlink:href="#mdbe2fe3898" x="239.111405" y="262.273561" style="fill: #984ea3; fill-opacity: 0.6; stroke: #984ea3; stroke-opacity: 0.6"/>
     <use xlink:href="#mdbe2fe3898" x="245.014215" y="260.503292" style="fill: #984ea3; fill-opacity: 0.6; stroke: #984ea3; stroke-opacity: 0.6"/>
     <use xlink:href="#mdbe2fe3898" x="250.917025" y="258.799827" style="fill: #984ea3; fill-opacity: 0.6; stroke: #984ea3; stroke-opacity: 0.6"/>
     <use xlink:href="#mdbe2fe3898" x="256.819835" y="257.165221" style="fill: #984ea3; fill-opacity: 0.6; stroke: #984ea3; stroke-opacity: 0.6"/>
     <use xlink:href="#mdbe2fe3898" x="262.722645" y="255.60073" style="fill: #984ea3; fill-opacity: 0.6; stroke: #984ea3; stroke-opacity: 0.6"/>
     <use xlink:href="#mdbe2fe3898" x="268.625455" y="254.106911" style="fill: #984ea3; fill-opacity: 0.6; stroke: #984ea3; stroke-opacity: 0.6"/>
     <use xlink:href="#mdbe2fe3898" x="274.528264" y="252.683723" style="fill: #984ea3; fill-opacity: 0.6; stroke: #984ea3; stroke-opacity: 0.6"/>
     <use xlink:href="#mdbe2fe3898" x="280.431074" y="251.330605" style="fill: #984ea3; fill-opacity: 0.6; stroke: #984ea3; stroke-opacity: 0.6"/>
     <use xlink:href="#mdbe2fe3898" x="286.333884" y="250.046555" style="fill: #984ea3; fill-opacity: 0.6; stroke: #984ea3; stroke-opacity: 0.6"/>
     <use xlink:href="#mdbe2fe3898" x="292.236694" y="248.830191" style="fill: #984ea3; fill-opacity: 0.6; stroke: #984ea3; stroke-opacity: 0.6"/>
     <use xlink:href="#mdbe2fe3898" x="298.139504" y="247.679818" style="fill: #984ea3; fill-opacity: 0.6; stroke: #984ea3; stroke-opacity: 0.6"/>
     <use xlink:href="#mdbe2fe3898" x="304.042314" y="246.593486" style="fill: #984ea3; fill-opacity: 0.6; stroke: #984ea3; stroke-opacity: 0.6"/>
     <use xlink:href="#mdbe2fe3898" x="309.945124" y="245.569054" style="fill: #984ea3; fill-opacity: 0.6; stroke: #984ea3; stroke-opacity: 0.6"/>
     <use xlink:href="#mdbe2fe3898" x="315.847934" y="244.604229" style="fill: #984ea3; fill-opacity: 0.6; stroke: #984ea3; stroke-opacity: 0.6"/>
     <use xlink:href="#mdbe2fe3898" x="321.750744" y="243.69663" style="fill: #984ea3; fill-opacity: 0.6; stroke: #984ea3; stroke-opacity: 0.6"/>
     <use xlink:href="#mdbe2fe3898" x="327.653554" y="242.843824" style="fill: #984ea3; fill-opacity: 0.6; stroke: #984ea3; stroke-opacity: 0.6"/>
     <use xlink:href="#mdbe2fe3898" x="333.556364" y="242.043363" style="fill: #984ea3; fill-opacity: 0.6; stroke: #984ea3; stroke-opacity: 0.6"/>
     <use xlink:href="#mdbe2fe3898" x="339.459174" y="241.292812" style="fill: #984ea3; fill-opacity: 0.6; stroke: #984ea3; stroke-opacity: 0.6"/>
     <use xlink:href="#mdbe2fe3898" x="345.361983" y="240.589781" style="fill: #984ea3; fill-opacity: 0.6; stroke: #984ea3; stroke-opacity: 0.6"/>
     <use xlink:href="#mdbe2fe3898" x="351.264793" y="239.931935" style="fill: #984ea3; fill-opacity: 0.6; stroke: #984ea3; stroke-opacity: 0.6"/>
     <use xlink:href="#mdbe2fe3898" x="357.167603" y="239.31701" style="fill: #984ea3; fill-opacity: 0.6; stroke: #984ea3; stroke-opacity: 0.6"/>
     <use xlink:href="#mdbe2fe3898" x="363.070413" y="238.742818" style="fill: #984ea3; fill-opacity: 0.6; stroke: #984ea3; stroke-opacity: 0.6"/>
     <use xlink:href="#mdbe2fe3898" x="368.973223" y="238.207253" style="fill: #984ea3; fill-opacity: 0.6; stroke: #984ea3; stroke-opacity: 0.6"/>
     <use xlink:href="#mdbe2fe3898" x="374.876033" y="237.708288" style="fill: #984ea3; fill-opacity: 0.6; stroke: #984ea3; stroke-opacity: 0.6"/>
     <use xlink:href="#mdbe2fe3898" x="380.778843" y="237.243977" style="fill: #984ea3; fill-opacity: 0.6; stroke: #984ea3; stroke-opacity: 0.6"/>
     <use xlink:href="#mdbe2fe3898" x="386.681653" y="236.812448" style="fill: #984ea3; fill-opacity: 0.6; stroke: #984ea3; stroke-opacity: 0.6"/>
     <use xlink:href="#mdbe2fe3898" x="392.584463" y="236.411899" style="fill: #984ea3; fill-opacity: 0.6; stroke: #984ea3; stroke-opacity: 0.6"/>
     <use xlink:href="#mdbe2fe3898" x="398.487273" y="236.040601" style="fill: #984ea3; fill-opacity: 0.6; stroke: #984ea3; stroke-opacity: 0.6"/>
    </g>
   </g>
   <g id="line2d_17">
    <path d="M 73.832727 82.85937 
L 79.735537 159.810449 
L 85.638347 207.276557 
L 91.541157 238.046737 
L 97.443967 258.579993 
L 103.346777 272.467971 
L 109.249587 281.848326 
L 115.152397 288.065255 
L 121.055207 292.006724 
L 126.958017 294.285562 
L 132.860826 295.339489 
L 138.763636 295.488 
L 144.666446 294.966494 
L 150.569256 293.948629 
L 156.472066 292.562423 
L 162.374876 290.902591 
L 168.277686 289.040091 
L 174.180496 287.029292 
L 180.083306 284.91309 
L 185.986116 282.726329 
L 191.888926 280.497958 
L 197.791736 278.252326 
L 203.694545 276.009956 
L 209.597355 273.788043 
L 215.500165 271.600825 
L 221.402975 269.459911 
L 227.305785 267.374594 
L 233.208595 265.352153 
L 239.111405 263.398134 
L 245.014215 261.516615 
L 250.917025 259.71043 
L 256.819835 257.981365 
L 262.722645 256.330325 
L 268.625455 254.757469 
L 274.528264 253.262323 
L 280.431074 251.843884 
L 286.333884 250.5007 
L 292.236694 249.230947 
L 298.139504 248.032503 
L 304.042314 246.903007 
L 309.945124 245.839922 
L 315.847934 244.840586 
L 321.750744 243.902265 
L 327.653554 243.022192 
L 333.556364 242.197607 
L 339.459174 241.425785 
L 345.361983 240.704058 
L 351.264793 240.029837 
L 357.167603 239.400619 
L 363.070413 238.813996 
L 368.973223 238.267656 
L 374.876033 237.759387 
L 380.778843 237.287068 
L 386.681653 236.848673 
L 392.584463 236.442258 
L 398.487273 236.065964 
" clip-path="url(#p0c9af66628)" style="fill: none; stroke: #a65628; stroke-opacity: 0.6; stroke-width: 1.5; stroke-linecap: square"/>
    <defs>
     <path id="m3ca3d1e697" d="M 0 3 
L 0 -3 
" style="stroke: #a65628; stroke-opacity: 0.6"/>
    </defs>
    <g clip-path="url(#p0c9af66628)">
     <use xlink:href="#m3ca3d1e697" x="73.832727" y="82.85937" style="fill: #a65628; fill-opacity: 0.6; stroke: #a65628; stroke-opacity: 0.6"/>
     <use xlink:href="#m3ca3d1e697" x="79.735537" y="159.810449" style="fill: #a65628; fill-opacity: 0.6; stroke: #a65628; stroke-opacity: 0.6"/>
     <use xlink:href="#m3ca3d1e697" x="85.638347" y="207.276557" style="fill: #a65628; fill-opacity: 0.6; stroke: #a65628; stroke-opacity: 0.6"/>
     <use xlink:href="#m3ca3d1e697" x="91.541157" y="238.046737" style="fill: #a65628; fill-opacity: 0.6; stroke: #a65628; stroke-opacity: 0.6"/>
     <use xlink:href="#m3ca3d1e697" x="97.443967" y="258.579993" style="fill: #a65628; fill-opacity: 0.6; stroke: #a65628; stroke-opacity: 0.6"/>
     <use xlink:href="#m3ca3d1e697" x="103.346777" y="272.467971" style="fill: #a65628; fill-opacity: 0.6; stroke: #a65628; stroke-opacity: 0.6"/>
     <use xlink:href="#m3ca3d1e697" x="109.249587" y="281.848326" style="fill: #a65628; fill-opacity: 0.6; stroke: #a65628; stroke-opacity: 0.6"/>
     <use xlink:href="#m3ca3d1e697" x="115.152397" y="288.065255" style="fill: #a65628; fill-opacity: 0.6; stroke: #a65628; stroke-opacity: 0.6"/>
     <use xlink:href="#m3ca3d1e697" x="121.055207" y="292.006724" style="fill: #a65628; fill-opacity: 0.6; stroke: #a65628; stroke-opacity: 0.6"/>
     <use xlink:href="#m3ca3d1e697" x="126.958017" y="294.285562" style="fill: #a65628; fill-opacity: 0.6; stroke: #a65628; stroke-opacity: 0.6"/>
     <use xlink:href="#m3ca3d1e697" x="132.860826" y="295.339489" style="fill: #a65628; fill-opacity: 0.6; stroke: #a65628; stroke-opacity: 0.6"/>
     <use xlink:href="#m3ca3d1e697" x="138.763636" y="295.488" style="fill: #a65628; fill-opacity: 0.6; stroke: #a65628; stroke-opacity: 0.6"/>
     <use xlink:href="#m3ca3d1e697" x="144.666446" y="294.966494" style="fill: #a65628; fill-opacity: 0.6; stroke: #a65628; stroke-opacity: 0.6"/>
     <use xlink:href="#m3ca3d1e697" x="150.569256" y="293.948629" style="fill: #a65628; fill-opacity: 0.6; stroke: #a65628; stroke-opacity: 0.6"/>
     <use xlink:href="#m3ca3d1e697" x="156.472066" y="292.562423" style="fill: #a65628; fill-opacity: 0.6; stroke: #a65628; stroke-opacity: 0.6"/>
     <use xlink:href="#m3ca3d1e697" x="162.374876" y="290.902591" style="fill: #a65628; fill-opacity: 0.6; stroke: #a65628; stroke-opacity: 0.6"/>
     <use xlink:href="#m3ca3d1e697" x="168.277686" y="289.040091" style="fill: #a65628; fill-opacity: 0.6; stroke: #a65628; stroke-opacity: 0.6"/>
     <use xlink:href="#m3ca3d1e697" x="174.180496" y="287.029292" style="fill: #a65628; fill-opacity: 0.6; stroke: #a65628; stroke-opacity: 0.6"/>
     <use xlink:href="#m3ca3d1e697" x="180.083306" y="284.91309" style="fill: #a65628; fill-opacity: 0.6; stroke: #a65628; stroke-opacity: 0.6"/>
     <use xlink:href="#m3ca3d1e697" x="185.986116" y="282.726329" style="fill: #a65628; fill-opacity: 0.6; stroke: #a65628; stroke-opacity: 0.6"/>
     <use xlink:href="#m3ca3d1e697" x="191.888926" y="280.497958" style="fill: #a65628; fill-opacity: 0.6; stroke: #a65628; stroke-opacity: 0.6"/>
     <use xlink:href="#m3ca3d1e697" x="197.791736" y="278.252326" style="fill: #a65628; fill-opacity: 0.6; stroke: #a65628; stroke-opacity: 0.6"/>
     <use xlink:href="#m3ca3d1e697" x="203.694545" y="276.009956" style="fill: #a65628; fill-opacity: 0.6; stroke: #a65628; stroke-opacity: 0.6"/>
     <use xlink:href="#m3ca3d1e697" x="209.597355" y="273.788043" style="fill: #a65628; fill-opacity: 0.6; stroke: #a65628; stroke-opacity: 0.6"/>
     <use xlink:href="#m3ca3d1e697" x="215.500165" y="271.600825" style="fill: #a65628; fill-opacity: 0.6; stroke: #a65628; stroke-opacity: 0.6"/>
     <use xlink:href="#m3ca3d1e697" x="221.402975" y="269.459911" style="fill: #a65628; fill-opacity: 0.6; stroke: #a65628; stroke-opacity: 0.6"/>
     <use xlink:href="#m3ca3d1e697" x="227.305785" y="267.374594" style="fill: #a65628; fill-opacity: 0.6; stroke: #a65628; stroke-opacity: 0.6"/>
     <use xlink:href="#m3ca3d1e697" x="233.208595" y="265.352153" style="fill: #a65628; fill-opacity: 0.6; stroke: #a65628; stroke-opacity: 0.6"/>
     <use xlink:href="#m3ca3d1e697" x="239.111405" y="263.398134" style="fill: #a65628; fill-opacity: 0.6; stroke: #a65628; stroke-opacity: 0.6"/>
     <use xlink:href="#m3ca3d1e697" x="245.014215" y="261.516615" style="fill: #a65628; fill-opacity: 0.6; stroke: #a65628; stroke-opacity: 0.6"/>
     <use xlink:href="#m3ca3d1e697" x="250.917025" y="259.71043" style="fill: #a65628; fill-opacity: 0.6; stroke: #a65628; stroke-opacity: 0.6"/>
     <use xlink:href="#m3ca3d1e697" x="256.819835" y="257.981365" style="fill: #a65628; fill-opacity: 0.6; stroke: #a65628; stroke-opacity: 0.6"/>
     <use xlink:href="#m3ca3d1e697" x="262.722645" y="256.330325" style="fill: #a65628; fill-opacity: 0.6; stroke: #a65628; stroke-opacity: 0.6"/>
     <use xlink:href="#m3ca3d1e697" x="268.625455" y="254.757469" style="fill: #a65628; fill-opacity: 0.6; stroke: #a65628; stroke-opacity: 0.6"/>
     <use xlink:href="#m3ca3d1e697" x="274.528264" y="253.262323" style="fill: #a65628; fill-opacity: 0.6; stroke: #a65628; stroke-opacity: 0.6"/>
     <use xlink:href="#m3ca3d1e697" x="280.431074" y="251.843884" style="fill: #a65628; fill-opacity: 0.6; stroke: #a65628; stroke-opacity: 0.6"/>
     <use xlink:href="#m3ca3d1e697" x="286.333884" y="250.5007" style="fill: #a65628; fill-opacity: 0.6; stroke: #a65628; stroke-opacity: 0.6"/>
     <use xlink:href="#m3ca3d1e697" x="292.236694" y="249.230947" style="fill: #a65628; fill-opacity: 0.6; stroke: #a65628; stroke-opacity: 0.6"/>
     <use xlink:href="#m3ca3d1e697" x="298.139504" y="248.032503" style="fill: #a65628; fill-opacity: 0.6; stroke: #a65628; stroke-opacity: 0.6"/>
     <use xlink:href="#m3ca3d1e697" x="304.042314" y="246.903007" style="fill: #a65628; fill-opacity: 0.6; stroke: #a65628; stroke-opacity: 0.6"/>
     <use xlink:href="#m3ca3d1e697" x="309.945124" y="245.839922" style="fill: #a65628; fill-opacity: 0.6; stroke: #a65628; stroke-opacity: 0.6"/>
     <use xlink:href="#m3ca3d1e697" x="315.847934" y="244.840586" style="fill: #a65628; fill-opacity: 0.6; stroke: #a65628; stroke-opacity: 0.6"/>
     <use xlink:href="#m3ca3d1e697" x="321.750744" y="243.902265" style="fill: #a65628; fill-opacity: 0.6; stroke: #a65628; stroke-opacity: 0.6"/>
     <use xlink:href="#m3ca3d1e697" x="327.653554" y="243.022192" style="fill: #a65628; fill-opacity: 0.6; stroke: #a65628; stroke-opacity: 0.6"/>
     <use xlink:href="#m3ca3d1e697" x="333.556364" y="242.197607" style="fill: #a65628; fill-opacity: 0.6; stroke: #a65628; stroke-opacity: 0.6"/>
     <use xlink:href="#m3ca3d1e697" x="339.459174" y="241.425785" style="fill: #a65628; fill-opacity: 0.6; stroke: #a65628; stroke-opacity: 0.6"/>
     <use xlink:href="#m3ca3d1e697" x="345.361983" y="240.704058" style="fill: #a65628; fill-opacity: 0.6; stroke: #a65628; stroke-opacity: 0.6"/>
     <use xlink:href="#m3ca3d1e697" x="351.264793" y="240.029837" style="fill: #a65628; fill-opacity: 0.6; stroke: #a65628; stroke-opacity: 0.6"/>
     <use xlink:href="#m3ca3d1e697" x="357.167603" y="239.400619" style="fill: #a65628; fill-opacity: 0.6; stroke: #a65628; stroke-opacity: 0.6"/>
     <use xlink:href="#m3ca3d1e697" x="363.070413" y="238.813996" style="fill: #a65628; fill-opacity: 0.6; stroke: #a65628; stroke-opacity: 0.6"/>
     <use xlink:href="#m3ca3d1e697" x="368.973223" y="238.267656" style="fill: #a65628; fill-opacity: 0.6; stroke: #a65628; stroke-opacity: 0.6"/>
     <use xlink:href="#m3ca3d1e697" x="374.876033" y="237.759387" style="fill: #a65628; fill-opacity: 0.6; stroke: #a65628; stroke-opacity: 0.6"/>
     <use xlink:href="#m3ca3d1e697" x="380.778843" y="237.287068" style="fill: #a65628; fill-opacity: 0.6; stroke: #a65628; stroke-opacity: 0.6"/>
     <use xlink:href="#m3ca3d1e697" x="386.681653" y="236.848673" style="fill: #a65628; fill-opacity: 0.6; stroke: #a65628; stroke-opacity: 0.6"/>
     <use xlink:href="#m3ca3d1e697" x="392.584463" y="236.442258" style="fill: #a65628; fill-opacity: 0.6; stroke: #a65628; stroke-opacity: 0.6"/>
     <use xlink:href="#m3ca3d1e697" x="398.487273" y="236.065964" style="fill: #a65628; fill-opacity: 0.6; stroke: #a65628; stroke-opacity: 0.6"/>
    </g>
   </g>
   <g id="patch_3">
    <path d="M 57.6 307.584 
L 57.6 41.472 
" style="fill: none; stroke: #000000; stroke-width: 0.8; stroke-linejoin: miter; stroke-linecap: square"/>
   </g>
   <g id="patch_4">
    <path d="M 414.72 307.584 
L 414.72 41.472 
" style="fill: none; stroke: #000000; stroke-width: 0.8; stroke-linejoin: miter; stroke-linecap: square"/>
   </g>
   <g id="patch_5">
    <path d="M 57.6 307.584 
L 414.72 307.584 
" style="fill: none; stroke: #000000; stroke-width: 0.8; stroke-linejoin: miter; stroke-linecap: square"/>
   </g>
   <g id="patch_6">
    <path d="M 57.6 41.472 
L 414.72 41.472 
" style="fill: none; stroke: #000000; stroke-width: 0.8; stroke-linejoin: miter; stroke-linecap: square"/>
   </g>
   <g id="text_17">
    <!-- H2 Lower Bounds -->
    <g transform="translate(183.714375 35.472) scale(0.12 -0.12)">
     <defs>
      <path id="DejaVuSans-77" d="M 269 3500 
L 844 3500 
L 1563 769 
L 2278 3500 
L 2956 3500 
L 3675 769 
L 4391 3500 
L 4966 3500 
L 4050 0 
L 3372 0 
L 2619 2869 
L 1863 0 
L 1184 0 
L 269 3500 
z
" transform="scale(0.015625)"/>
      <path id="DejaVuSans-75" d="M 544 1381 
L 544 3500 
L 1119 3500 
L 1119 1403 
Q 1119 906 1312 657 
Q 1506 409 1894 409 
Q 2359 409 2629 706 
Q 2900 1003 2900 1516 
L 2900 3500 
L 3475 3500 
L 3475 0 
L 2900 0 
L 2900 538 
Q 2691 219 2414 64 
Q 2138 -91 1772 -91 
Q 1169 -91 856 284 
Q 544 659 544 1381 
z
M 1991 3584 
L 1991 3584 
z
" transform="scale(0.015625)"/>
      <path id="DejaVuSans-73" d="M 2834 3397 
L 2834 2853 
Q 2591 2978 2328 3040 
Q 2066 3103 1784 3103 
Q 1356 3103 1142 2972 
Q 928 2841 928 2578 
Q 928 2378 1081 2264 
Q 1234 2150 1697 2047 
L 1894 2003 
Q 2506 1872 2764 1633 
Q 3022 1394 3022 966 
Q 3022 478 2636 193 
Q 2250 -91 1575 -91 
Q 1294 -91 989 -36 
Q 684 19 347 128 
L 347 722 
Q 666 556 975 473 
Q 1284 391 1588 391 
Q 1994 391 2212 530 
Q 2431 669 2431 922 
Q 2431 1156 2273 1281 
Q 2116 1406 1581 1522 
L 1381 1569 
Q 847 1681 609 1914 
Q 372 2147 372 2553 
Q 372 3047 722 3315 
Q 1072 3584 1716 3584 
Q 2034 3584 2315 3537 
Q 2597 3491 2834 3397 
z
" transform="scale(0.015625)"/>
     </defs>
     <use xlink:href="#DejaVuSans-48"/>
     <use xlink:href="#DejaVuSans-32" transform="translate(75.195312 0)"/>
     <use xlink:href="#DejaVuSans-20" transform="translate(138.818359 0)"/>
     <use xlink:href="#DejaVuSans-4c" transform="translate(170.605469 0)"/>
     <use xlink:href="#DejaVuSans-6f" transform="translate(224.568359 0)"/>
     <use xlink:href="#DejaVuSans-77" transform="translate(285.75 0)"/>
     <use xlink:href="#DejaVuSans-65" transform="translate(367.537109 0)"/>
     <use xlink:href="#DejaVuSans-72" transform="translate(429.060547 0)"/>
     <use xlink:href="#DejaVuSans-20" transform="translate(470.173828 0)"/>
     <use xlink:href="#DejaVuSans-42" transform="translate(501.960938 0)"/>
     <use xlink:href="#DejaVuSans-6f" transform="translate(570.564453 0)"/>
     <use xlink:href="#DejaVuSans-75" transform="translate(631.746094 0)"/>
     <use xlink:href="#DejaVuSans-6e" transform="translate(695.125 0)"/>
     <use xlink:href="#DejaVuSans-64" transform="translate(758.503906 0)"/>
     <use xlink:href="#DejaVuSans-73" transform="translate(821.980469 0)"/>
    </g>
   </g>
   <g id="legend_1">
    <g id="patch_7">
     <path d="M 347.399688 93.506375 
L 407.72 93.506375 
Q 409.72 93.506375 409.72 91.506375 
L 409.72 48.472 
Q 409.72 46.472 407.72 46.472 
L 347.399688 46.472 
Q 345.399688 46.472 345.399688 48.472 
L 345.399688 91.506375 
Q 345.399688 93.506375 347.399688 93.506375 
z
" style="fill: #ffffff; opacity: 0.8; stroke: #cccccc; stroke-linejoin: miter"/>
    </g>
    <g id="line2d_18">
     <path d="M 349.399688 54.570438 
L 359.399688 54.570438 
L 369.399688 54.570438 
" style="fill: none; stroke: #377eb8; stroke-opacity: 0.6; stroke-width: 1.5; stroke-linecap: square"/>
     <g>
      <use xlink:href="#m6a7cc61ff5" x="359.399688" y="54.570438" style="fill: #377eb8; fill-opacity: 0.6; stroke: #377eb8; stroke-opacity: 0.6"/>
     </g>
    </g>
    <g id="text_18">
     <!-- Exact -->
     <g transform="translate(377.399688 58.070438) scale(0.1 -0.1)">
      <defs>
       <path id="DejaVuSans-78" d="M 3513 3500 
L 2247 1797 
L 3578 0 
L 2900 0 
L 1881 1375 
L 863 0 
L 184 0 
L 1544 1831 
L 300 3500 
L 978 3500 
L 1906 2253 
L 2834 3500 
L 3513 3500 
z
" transform="scale(0.015625)"/>
       <path id="DejaVuSans-63" d="M 3122 3366 
L 3122 2828 
Q 2878 2963 2633 3030 
Q 2388 3097 2138 3097 
Q 1578 3097 1268 2742 
Q 959 2388 959 1747 
Q 959 1106 1268 751 
Q 1578 397 2138 397 
Q 2388 397 2633 464 
Q 2878 531 3122 666 
L 3122 134 
Q 2881 22 2623 -34 
Q 2366 -91 2075 -91 
Q 1284 -91 818 406 
Q 353 903 353 1747 
Q 353 2603 823 3093 
Q 1294 3584 2113 3584 
Q 2378 3584 2631 3529 
Q 2884 3475 3122 3366 
z
" transform="scale(0.015625)"/>
      </defs>
      <use xlink:href="#DejaVuSans-45"/>
      <use xlink:href="#DejaVuSans-78" transform="translate(63.183594 0)"/>
      <use xlink:href="#DejaVuSans-61" transform="translate(122.363281 0)"/>
      <use xlink:href="#DejaVuSans-63" transform="translate(183.642578 0)"/>
      <use xlink:href="#DejaVuSans-74" transform="translate(238.623047 0)"/>
     </g>
    </g>
    <g id="line2d_19">
     <path d="M 349.399688 69.248563 
L 359.399688 69.248563 
L 369.399688 69.248563 
" style="fill: none; stroke: #984ea3; stroke-opacity: 0.6; stroke-width: 1.5; stroke-linecap: square"/>
     <g>
      <use xlink:href="#mdbe2fe3898" x="359.399688" y="69.248563" style="fill: #984ea3; fill-opacity: 0.6; stroke: #984ea3; stroke-opacity: 0.6"/>
     </g>
    </g>
    <g id="text_19">
     <!-- GFRO -->
     <g transform="translate(377.399688 72.748563) scale(0.1 -0.1)">
      <defs>
       <path id="DejaVuSans-47" d="M 3809 666 
L 3809 1919 
L 2778 1919 
L 2778 2438 
L 4434 2438 
L 4434 434 
Q 4069 175 3628 42 
Q 3188 -91 2688 -91 
Q 1594 -91 976 548 
Q 359 1188 359 2328 
Q 359 3472 976 4111 
Q 1594 4750 2688 4750 
Q 3144 4750 3555 4637 
Q 3966 4525 4313 4306 
L 4313 3634 
Q 3963 3931 3569 4081 
Q 3175 4231 2741 4231 
Q 1884 4231 1454 3753 
Q 1025 3275 1025 2328 
Q 1025 1384 1454 906 
Q 1884 428 2741 428 
Q 3075 428 3337 486 
Q 3600 544 3809 666 
z
" transform="scale(0.015625)"/>
       <path id="DejaVuSans-46" d="M 628 4666 
L 3309 4666 
L 3309 4134 
L 1259 4134 
L 1259 2759 
L 3109 2759 
L 3109 2228 
L 1259 2228 
L 1259 0 
L 628 0 
L 628 4666 
z
" transform="scale(0.015625)"/>
       <path id="DejaVuSans-52" d="M 2841 2188 
Q 3044 2119 3236 1894 
Q 3428 1669 3622 1275 
L 4263 0 
L 3584 0 
L 2988 1197 
Q 2756 1666 2539 1819 
Q 2322 1972 1947 1972 
L 1259 1972 
L 1259 0 
L 628 0 
L 628 4666 
L 2053 4666 
Q 2853 4666 3247 4331 
Q 3641 3997 3641 3322 
Q 3641 2881 3436 2590 
Q 3231 2300 2841 2188 
z
M 1259 4147 
L 1259 2491 
L 2053 2491 
Q 2509 2491 2742 2702 
Q 2975 2913 2975 3322 
Q 2975 3731 2742 3939 
Q 2509 4147 2053 4147 
L 1259 4147 
z
" transform="scale(0.015625)"/>
       <path id="DejaVuSans-4f" d="M 2522 4238 
Q 1834 4238 1429 3725 
Q 1025 3213 1025 2328 
Q 1025 1447 1429 934 
Q 1834 422 2522 422 
Q 3209 422 3611 934 
Q 4013 1447 4013 2328 
Q 4013 3213 3611 3725 
Q 3209 4238 2522 4238 
z
M 2522 4750 
Q 3503 4750 4090 4092 
Q 4678 3434 4678 2328 
Q 4678 1225 4090 567 
Q 3503 -91 2522 -91 
Q 1538 -91 948 565 
Q 359 1222 359 2328 
Q 359 3434 948 4092 
Q 1538 4750 2522 4750 
z
" transform="scale(0.015625)"/>
      </defs>
      <use xlink:href="#DejaVuSans-47"/>
      <use xlink:href="#DejaVuSans-46" transform="translate(77.490234 0)"/>
      <use xlink:href="#DejaVuSans-52" transform="translate(135.009766 0)"/>
      <use xlink:href="#DejaVuSans-4f" transform="translate(204.492188 0)"/>
     </g>
    </g>
    <g id="line2d_20">
     <path d="M 349.399688 83.926688 
L 359.399688 83.926688 
L 369.399688 83.926688 
" style="fill: none; stroke: #a65628; stroke-opacity: 0.6; stroke-width: 1.5; stroke-linecap: square"/>
     <g>
      <use xlink:href="#m3ca3d1e697" x="359.399688" y="83.926688" style="fill: #a65628; fill-opacity: 0.6; stroke: #a65628; stroke-opacity: 0.6"/>
     </g>
    </g>
    <g id="text_20">
     <!-- LR -->
     <g transform="translate(377.399688 87.426688) scale(0.1 -0.1)">
      <use xlink:href="#DejaVuSans-4c"/>
      <use xlink:href="#DejaVuSans-52" transform="translate(55.712891 0)"/>
     </g>
    </g>
   </g>
  </g>
 </g>
 <defs>
  <clipPath id="p0c9af66628">
   <rect x="57.6" y="41.472" width="357.12" height="266.112"/>
  </clipPath>
 </defs>
</svg>
